# This file uses centimeters as units for non-parametric coordinates.

g default
v 0.000000 0.000000 1.119890
v -1.119890 0.000000 -0.000000
v 0.000000 1.737226 0.000000
v 1.119890 0.000000 -0.000000
v -0.000000 0.000000 -1.119890
v -0.791882 0.000000 0.791882
v 0.791882 0.000000 -0.791882
v -0.791882 0.000000 -0.791882
v 0.791882 0.000000 0.791882
v -1.178711 0.037919 -0.000000
v -0.833475 0.037919 0.833475
v -0.000000 1.811329 -0.000000
v 0.833475 0.037919 0.833475
v 1.178711 0.037919 -0.000000
v -0.833475 0.037919 -0.833475
v -0.000000 0.037919 -1.178711
v 0.833475 0.037919 -0.833475
v 0.000000 0.037919 1.178711
vt 0.500000 0.000000
vt 0.000000 0.500000
vt 0.500000 0.500000
vt 1.000000 0.500000
vt 0.500000 1.000000
vt 0.250000 0.250000
vt 0.750000 0.750000
vt 0.250000 0.750000
vt 0.750000 0.250000
vt 0.000000 0.500000
vt 0.250000 0.250000
vt 0.500000 0.500000
vt 0.750000 0.250000
vt 1.000000 0.500000
vt 0.250000 0.750000
vt 0.500000 1.000000
vt 0.750000 0.750000
vt 0.500000 0.000000
vt 0.000000 0.500000
vt 0.250000 0.250000
vt 0.750000 0.250000
vt 1.000000 0.500000
vt 0.500000 1.000000
vt 0.250000 0.750000
vt 0.750000 0.750000
vt 0.500000 0.000000
vn -0.787294 0.523281 0.326108
vn -0.787294 0.523281 0.326108
vn -0.787294 0.523281 0.326108
vn 0.787294 0.523281 0.326108
vn 0.787294 0.523281 0.326108
vn 0.787294 0.523281 0.326108
vn -0.326108 0.523281 -0.787293
vn -0.326108 0.523281 -0.787293
vn -0.326108 0.523281 -0.787293
vn 0.326108 0.523281 -0.787294
vn 0.326108 0.523281 -0.787293
vn 0.326108 0.523281 -0.787293
vn -0.326108 0.523281 0.787293
vn -0.326108 0.523281 0.787294
vn -0.326108 0.523281 0.787294
vn 0.787293 0.523281 -0.326108
vn 0.787294 0.523281 -0.326108
vn 0.787294 0.523281 -0.326108
vn -0.787294 0.523281 -0.326108
vn -0.787293 0.523281 -0.326108
vn -0.787294 0.523281 -0.326108
vn 0.326108 0.523281 0.787294
vn 0.326108 0.523281 0.787294
vn 0.326108 0.523281 0.787293
vn 0.793766 -0.511696 -0.328789
vn 0.793766 -0.511696 -0.328789
vn 0.793766 -0.511696 -0.328789
vn -0.793766 -0.511696 -0.328789
vn -0.793766 -0.511696 -0.328789
vn -0.793766 -0.511696 -0.328789
vn 0.328789 -0.511696 0.793766
vn 0.328789 -0.511696 0.793766
vn 0.328789 -0.511696 0.793766
vn -0.328789 -0.511696 0.793766
vn -0.328789 -0.511696 0.793766
vn -0.328789 -0.511696 0.793766
vn 0.328789 -0.511696 -0.793766
vn 0.328789 -0.511696 -0.793766
vn 0.328789 -0.511696 -0.793766
vn -0.793766 -0.511696 0.328789
vn -0.793766 -0.511696 0.328789
vn -0.793766 -0.511696 0.328789
vn 0.793766 -0.511696 0.328789
vn 0.793766 -0.511696 0.328789
vn 0.793766 -0.511696 0.328789
vn -0.328789 -0.511696 -0.793766
vn -0.328789 -0.511696 -0.793766
vn -0.328789 -0.511696 -0.793766
vn -0.541820 -0.840495 0.000000
vn -0.383124 -0.840495 0.383124
vn -0.383124 -0.840495 0.383124
vn -0.541820 -0.840495 0.000000
vn 0.383124 -0.840495 0.383124
vn 0.541820 -0.840495 0.000000
vn 0.541820 -0.840495 0.000000
vn 0.383124 -0.840495 0.383124
vn -0.000000 -0.840495 -0.541819
vn -0.383124 -0.840495 -0.383124
vn -0.383124 -0.840495 -0.383124
vn 0.000000 -0.840495 -0.541819
vn 0.383124 -0.840495 -0.383124
vn 0.383124 -0.840495 -0.383124
vn 0.000000 -0.840495 0.541819
vn 0.000000 -0.840495 0.541819
s off
g ARC_Cone
f 10/19/1 11/20/2 12/3/3
f 12/3/4 13/21/5 14/22/6
f 15/24/7 12/3/8 16/23/9
f 12/3/10 17/25/11 16/23/12
f 12/3/13 11/20/14 18/26/15
f 12/3/16 14/22/17 17/25/18
f 10/19/19 12/3/20 15/24/21
f 18/26/22 13/21/23 12/3/24
f 2/10/25 3/12/26 6/11/27
f 3/12/28 4/14/29 9/13/30
f 8/15/31 5/16/32 3/12/33
f 3/12/34 5/16/35 7/17/36
f 3/12/37 1/18/38 6/11/39
f 3/12/40 7/17/41 4/14/42
f 2/10/43 8/15/44 3/12/45
f 1/18/46 3/12/47 9/13/48
s 1
f 2/2/49 6/6/50 11/20/51 10/19/52
f 9/9/53 4/4/54 14/22/55 13/21/56
f 5/5/57 8/8/58 15/24/59 16/23/60
f 7/7/61 5/5/57 16/23/60 17/25/62
f 6/6/50 1/1/63 18/26/64 11/20/51
f 4/4/54 7/7/61 17/25/62 14/22/55
f 8/8/58 2/2/49 10/19/52 15/24/59
f 1/1/63 9/9/53 13/21/56 18/26/64
