# This file uses centimeters as units for non-parametric coordinates.

g default
v -0.052500 1.687433 -0.419513
v -0.039814 1.353845 -0.261564
v 0.019815 2.116496 0.480863
v 0.032500 1.782908 0.638811
v 0.010000 1.687433 0.480950
v 0.010000 1.353845 0.322493
v 0.010000 2.116496 -0.422325
v 0.010000 1.782908 -0.580782
v 0.010000 3.392507 0.000000
v 0.010000 2.685400 0.707107
v 0.010000 2.685400 -0.707107
v 0.010000 1.978293 0.000000
v 0.000000 0.000000 -0.043301
v 0.000000 0.000000 0.043301
v 0.000000 3.000000 -0.043301
v 0.000000 3.000000 0.043301
v -0.010000 3.392507 0.000000
v -0.010000 2.685400 -0.707107
v -0.010000 2.685400 0.707107
v -0.010000 1.978293 0.000000
vt 0.521127 0.275720
vt 0.521127 0.021947
vt 0.980540 0.021947
vt 0.980540 0.275720
vt 0.521127 0.275720
vt 0.521127 0.021947
vt 0.980540 0.021947
vt 0.980540 0.275720
vt 0.377126 0.975106
vt 0.100669 0.698648
vt 0.377126 0.422191
vt 0.653583 0.698648
vt 0.028127 0.041756
vt 0.016890 0.839589
vt 0.068017 0.042319
vt 0.056782 0.840150
vt 0.101261 0.042786
vt 0.090025 0.840619
vt 0.377126 0.975106
vt 0.100669 0.698648
vt 0.377126 0.422191
vt 0.653583 0.698648
vn -0.996790 0.000001 0.080058
vn -0.996790 0.000001 0.080058
vn -0.996790 0.000001 0.080058
vn -0.996790 0.000001 0.080058
vn 1.000000 0.000000 -0.000000
vn 1.000000 0.000000 -0.000000
vn 1.000000 0.000000 -0.000000
vn 1.000000 0.000000 -0.000000
vn 1.000000 0.000000 0.000000
vn 1.000000 0.000000 0.000000
vn 1.000000 0.000000 0.000000
vn 1.000000 0.000000 0.000000
vn -1.000000 0.000000 0.000000
vn -1.000000 0.000000 0.000000
vn -1.000000 0.000000 0.000000
vn -1.000000 0.000000 0.000000
vn 1.000000 0.000000 0.000000
vn 1.000000 0.000000 0.000000
vn 1.000000 0.000000 0.000000
vn 1.000000 0.000000 0.000000
vn -1.000000 0.000000 0.000000
vn -1.000000 0.000000 0.000000
vn -1.000000 0.000000 0.000000
vn -1.000000 0.000000 0.000000
s off
g StopRyanSign
f 1/1/1 2/2/2 4/3/3 3/4/4
f 5/5/5 6/6/6 8/7/7 7/8/8
f 9/9/9 10/10/10 12/11/11 11/12/12
f 16/16/13 15/14/14 13/13/15 14/15/16
f 15/18/17 16/16/18 14/15/19 13/17/20
f 17/19/21 18/20/22 20/21/23 19/22/24
