# This file uses centimeters as units for non-parametric coordinates.

g default
v 0.591106 -0.000664 -0.502921
v 0.127617 -0.000664 -0.770520
v -0.399452 -0.000664 -0.677585
v -0.743469 -0.000664 -0.267599
v -0.743469 -0.000664 0.267599
v -0.399452 -0.000664 0.677585
v 0.127617 -0.000664 0.770520
v 0.591106 -0.000664 0.502921
v 0.774158 -0.000664 0.000000
v 0.591106 0.627962 -0.502921
v 0.127617 0.627962 -0.770520
v -0.399452 0.627962 -0.677585
v -0.743469 0.627962 -0.267599
v -0.743469 0.627962 0.267599
v -0.399452 0.627962 0.677585
v 0.127617 0.627962 0.770520
v 0.591106 0.627962 0.502921
v 0.774158 0.627962 0.000000
v 0.194862 1.200694 -0.163541
v 0.044155 1.200694 -0.250559
v -0.127213 1.200694 -0.220338
v -0.239079 1.200694 -0.087018
v -0.239079 1.200694 0.087018
v -0.127213 1.200694 0.220338
v 0.044155 1.200694 0.250559
v 0.194862 1.200694 0.163541
v 0.254425 1.200694 0.000000
v 0.194862 6.837523 -0.163541
v 0.044155 6.837523 -0.250559
v -0.127213 6.837523 -0.220338
v -0.239079 6.837523 -0.087018
v -0.239079 6.837523 0.087018
v -0.127213 6.837523 0.220338
v 0.044155 6.837523 0.250559
v 0.194862 6.837523 0.163541
v 0.254425 6.837523 0.000000
v -0.011673 7.785200 0.000000
v 0.628738 7.284856 -0.542509
v 0.128750 7.284856 -0.831173
v -0.439777 7.284856 -0.730921
v -0.810898 7.284856 -0.288663
v -0.810898 7.284856 0.288663
v -0.439777 7.284856 0.730921
v 0.128750 7.284856 0.831173
v 0.628738 7.284856 0.542510
v 0.826183 7.284856 0.000000
v 0.748737 7.785195 -0.653150
v 0.917965 7.577600 -0.795154
v 0.146774 7.785195 -1.000688
v 0.185135 7.577600 -1.218248
v -0.537693 7.785195 -0.879991
v -0.648155 7.577600 -1.071310
v -0.984467 7.785195 -0.347537
v -1.192059 7.577600 -0.423093
v -0.984467 7.785195 0.347537
v -1.192059 7.577600 0.423093
v -0.537693 7.785195 0.879991
v -0.648155 7.577600 1.071310
v 0.146774 7.785195 1.000688
v 0.185135 7.577600 1.218248
v 0.748737 7.785195 0.653151
v 0.917965 7.577600 0.795156
v 0.986485 7.785195 0.000000
v 1.207405 7.577600 0.000000
v 0.868534 7.351136 -0.751994
v 0.917965 7.428359 -0.795154
v 0.175671 7.351376 -1.153271
v 0.185135 7.428566 -1.218248
v -0.613762 7.351598 -1.015129
v -0.648155 7.428628 -1.071310
v -1.129684 7.351712 -0.401096
v -1.192059 7.428524 -0.423093
v -1.129684 7.351712 0.401096
v -1.192059 7.428524 0.423093
v -0.613762 7.351598 1.015129
v -0.648155 7.428628 1.071310
v 0.175671 7.351376 1.153271
v 0.185135 7.428566 1.218248
v 0.868534 7.351136 0.751996
v 0.917965 7.428359 0.795156
v 1.141624 7.351003 0.000000
v 1.207405 7.428103 0.000000
v 0.591106 0.951316 -0.502921
v 0.565994 1.067719 -0.481410
v 0.127617 0.951248 -0.770520
v 0.122360 1.068494 -0.737781
v -0.399452 0.951210 -0.677585
v -0.382423 1.067719 -0.648979
v -0.743469 0.951202 -0.267599
v -0.711998 1.066944 -0.256333
v -0.743469 0.951238 0.267599
v -0.712032 1.066944 0.256343
v -0.399452 0.951210 0.677585
v -0.382423 1.068494 0.648978
v 0.127617 0.951248 0.770520
v 0.122360 1.068494 0.737781
v 0.591106 0.951316 0.502921
v 0.565994 1.067719 0.481410
v 0.774158 0.951382 0.000000
v 0.741077 1.066944 0.000000
vt 0.375000 0.312500
vt 0.402778 0.312500
vt 0.430556 0.312500
vt 0.458333 0.312500
vt 0.486111 0.312500
vt 0.513889 0.312500
vt 0.541667 0.312500
vt 0.569445 0.312500
vt 0.597222 0.312500
vt 0.625000 0.312500
vt 0.375000 0.437813
vt 0.559847 0.893968
vt 0.513566 0.920688
vt 0.460938 0.911408
vt 0.426587 0.870470
vt 0.426587 0.817030
vt 0.460938 0.776092
vt 0.513566 0.766812
vt 0.559847 0.793532
vt 0.578125 0.843750
vt 0.510941 0.905835
vt 0.467713 0.898223
vt 0.439498 0.864599
vt 0.439498 0.820702
vt 0.467713 0.787071
vt 0.510941 0.779439
vt 0.548955 0.801376
vt 0.563967 0.842617
vt 0.548955 0.883875
vt 0.500000 0.837500
vt 0.513566 0.920688
vt 0.559847 0.893968
vt 0.460938 0.911408
vt 0.513566 0.920688
vt 0.426587 0.870470
vt 0.460938 0.911408
vt 0.426587 0.817030
vt 0.426587 0.870470
vt 0.460938 0.776092
vt 0.426587 0.817030
vt 0.513566 0.766812
vt 0.460938 0.776092
vt 0.559847 0.793532
vt 0.513566 0.766812
vt 0.578125 0.843750
vt 0.559847 0.793532
vt 0.559847 0.893968
vt 0.578125 0.843750
vt 0.513566 0.920688
vt 0.559847 0.893968
vt 0.460938 0.911408
vt 0.513566 0.920688
vt 0.426587 0.870470
vt 0.460938 0.911408
vt 0.426587 0.817030
vt 0.426587 0.870470
vt 0.460938 0.776092
vt 0.426587 0.817030
vt 0.513566 0.766812
vt 0.460938 0.776092
vt 0.559847 0.793532
vt 0.513566 0.766812
vt 0.578125 0.843750
vt 0.559847 0.793532
vt 0.559847 0.893968
vt 0.578125 0.843750
vt 0.625000 0.663459
vt 0.402778 0.437813
vt 0.375000 0.663459
vt 0.430556 0.437813
vt 0.402778 0.663411
vt 0.458333 0.437813
vt 0.430556 0.663385
vt 0.486111 0.437813
vt 0.458333 0.663380
vt 0.513889 0.437813
vt 0.486111 0.663404
vt 0.541667 0.437813
vt 0.513889 0.663385
vt 0.569445 0.437813
vt 0.541667 0.663411
vt 0.597222 0.437813
vt 0.569445 0.663459
vt 0.625000 0.437813
vt 0.597222 0.663505
vt 0.526278 0.992782
vt 0.559846 0.893968
vt 0.424319 0.974834
vt 0.513566 0.920688
vt 0.357754 0.895523
vt 0.460938 0.911408
vt 0.357749 0.791975
vt 0.426587 0.870470
vt 0.424319 0.712666
vt 0.426587 0.817030
vt 0.526278 0.694718
vt 0.460938 0.776092
vt 0.615901 0.746498
vt 0.513566 0.766812
vt 0.651279 0.843750
vt 0.559847 0.793532
vt 0.615901 0.941002
vt 0.578125 0.843750
vn 0.500005 0.000000 -0.866023
vn 0.500005 0.000000 -0.866023
vn 0.500005 0.000000 -0.866023
vn 0.500005 0.000000 -0.866023
vn -0.173646 0.000000 -0.984808
vn -0.173646 0.000000 -0.984808
vn -0.173646 0.000000 -0.984808
vn -0.173646 0.000000 -0.984808
vn -0.766046 0.000000 -0.642786
vn -0.766046 0.000000 -0.642786
vn -0.766046 0.000000 -0.642786
vn -0.766046 0.000000 -0.642786
vn -1.000000 0.000000 0.000000
vn -1.000000 0.000000 0.000000
vn -1.000000 0.000000 0.000000
vn -1.000000 0.000000 0.000000
vn -0.766046 0.000000 0.642786
vn -0.766046 0.000000 0.642786
vn -0.766046 0.000000 0.642786
vn -0.766046 0.000000 0.642786
vn -0.173646 0.000000 0.984808
vn -0.173646 0.000000 0.984808
vn -0.173646 0.000000 0.984808
vn -0.173646 0.000000 0.984808
vn 0.500005 0.000000 0.866023
vn 0.500005 0.000000 0.866023
vn 0.500005 0.000000 0.866023
vn 0.500005 0.000000 0.866023
vn 0.939690 0.000000 0.342026
vn 0.939690 0.000000 0.342026
vn 0.939690 0.000000 0.342026
vn 0.939690 0.000000 0.342026
vn 0.939690 0.000000 -0.342026
vn 0.939690 0.000000 -0.342026
vn 0.939690 0.000000 -0.342026
vn 0.939690 0.000000 -0.342026
vn 0.500032 -0.000000 -0.866007
vn 0.500032 -0.000000 -0.866007
vn 0.500032 -0.000000 -0.866007
vn 0.500032 -0.000000 -0.866007
vn -0.173673 -0.000000 -0.984803
vn -0.173673 -0.000000 -0.984803
vn -0.173673 -0.000000 -0.984803
vn -0.173673 -0.000000 -0.984803
vn -0.766052 -0.000000 -0.642779
vn -0.766052 -0.000000 -0.642779
vn -0.766052 -0.000000 -0.642779
vn -0.766052 -0.000000 -0.642779
vn -1.000000 0.000000 0.000000
vn -1.000000 0.000000 0.000000
vn -1.000000 0.000000 0.000000
vn -1.000000 0.000000 0.000000
vn -0.766052 -0.000000 0.642779
vn -0.766052 -0.000000 0.642779
vn -0.766052 -0.000000 0.642779
vn -0.766052 -0.000000 0.642779
vn -0.173673 -0.000000 0.984803
vn -0.173673 -0.000000 0.984803
vn -0.173673 -0.000000 0.984803
vn -0.173673 -0.000000 0.984803
vn 0.500032 -0.000000 0.866007
vn 0.500032 -0.000000 0.866007
vn 0.500032 -0.000000 0.866007
vn 0.500032 -0.000000 0.866007
vn 0.939621 0.000000 0.342216
vn 0.939621 0.000000 0.342216
vn 0.939621 0.000000 0.342216
vn 0.939621 0.000000 0.342216
vn 0.939621 -0.000000 -0.342216
vn 0.939621 -0.000000 -0.342216
vn 0.939621 -0.000000 -0.342216
vn 0.939621 -0.000000 -0.342216
vn 0.317180 -0.773040 -0.549369
vn 0.317180 -0.773040 -0.549369
vn 0.067007 -0.919482 -0.387380
vn 0.305655 -0.916629 -0.257615
vn -0.108729 -0.779740 -0.616590
vn -0.108729 -0.779740 -0.616590
vn -0.193896 -0.922537 -0.333662
vn -0.474141 -0.785425 -0.397867
vn -0.474141 -0.785425 -0.397867
vn -0.358489 -0.924433 -0.130037
vn -0.616157 -0.787623 0.000000
vn -0.616157 -0.787623 0.000000
vn -0.358489 -0.924433 0.130037
vn -0.474141 -0.785425 0.397867
vn -0.474140 -0.785425 0.397867
vn -0.193896 -0.922537 0.333662
vn -0.108729 -0.779740 0.616590
vn -0.108729 -0.779740 0.616590
vn 0.067007 -0.919482 0.387379
vn 0.317180 -0.773039 0.549370
vn 0.317180 -0.773039 0.549370
vn 0.305655 -0.916630 0.257615
vn 0.601238 -0.768515 0.218854
vn 0.601238 -0.768515 0.218854
vn 0.402415 -0.915457 -0.000000
vn 0.601238 -0.768515 -0.218856
vn 0.601238 -0.768515 -0.218856
vn 0.524575 0.728737 -0.440186
vn 0.524575 0.728737 -0.440187
vn 0.118917 0.728738 -0.674388
vn 0.118916 0.728738 -0.674388
vn 0.684788 0.728742 -0.000000
vn 0.684788 0.728742 -0.000000
vn -0.342408 0.728738 -0.593041
vn -0.342406 0.728738 -0.593042
vn -0.643498 0.728736 -0.234209
vn -0.643499 0.728736 -0.234208
vn -0.643498 0.728736 0.234209
vn -0.643498 0.728736 0.234208
vn -0.342408 0.728739 0.593041
vn -0.342406 0.728739 0.593041
vn 0.118916 0.728739 0.674388
vn 0.118916 0.728739 0.674388
vn 0.524574 0.728737 0.440186
vn 0.524574 0.728737 0.440186
vn 0.000004 1.000000 -0.000003
vn 0.000001 1.000000 -0.000005
vn 0.000000 1.000000 0.000000
vn -0.000002 1.000000 -0.000004
vn -0.000004 1.000000 -0.000001
vn -0.000004 1.000000 0.000001
vn -0.000002 1.000000 0.000004
vn 0.000001 1.000000 0.000005
vn 0.000004 1.000000 0.000003
vn 0.000005 1.000000 0.000000
vn 0.734820 -0.623355 -0.267337
vn 0.734820 -0.623355 -0.267337
vn 0.734820 -0.623355 -0.267337
vn 0.734820 -0.623355 -0.267337
vn 0.391271 -0.623358 -0.677002
vn 0.391271 -0.623358 -0.677002
vn 0.391271 -0.623358 -0.677002
vn 0.391271 -0.623358 -0.677002
vn -0.135106 -0.625519 -0.768422
vn -0.135106 -0.625519 -0.768422
vn -0.135106 -0.625520 -0.768422
vn -0.135106 -0.625519 -0.768422
vn -0.595553 -0.628711 -0.500039
vn -0.595553 -0.628711 -0.500039
vn -0.595553 -0.628711 -0.500039
vn -0.595553 -0.628711 -0.500039
vn -0.776290 -0.630376 0.000000
vn -0.776290 -0.630376 0.000000
vn -0.776290 -0.630376 0.000000
vn -0.776290 -0.630376 0.000000
vn -0.595553 -0.628712 0.500038
vn -0.595553 -0.628712 0.500038
vn -0.595553 -0.628712 0.500038
vn -0.595553 -0.628712 0.500038
vn -0.135106 -0.625520 0.768421
vn -0.135106 -0.625520 0.768421
vn -0.135106 -0.625520 0.768421
vn -0.135106 -0.625520 0.768421
vn 0.391269 -0.623359 0.677002
vn 0.391269 -0.623359 0.677002
vn 0.391269 -0.623359 0.677002
vn 0.391269 -0.623359 0.677002
vn 0.734821 -0.623355 0.267334
vn 0.734821 -0.623355 0.267334
vn 0.734821 -0.623355 0.267334
vn 0.734821 -0.623355 0.267334
vn 0.032845 -0.979742 -0.197550
vn 0.155245 -0.979012 -0.132040
vn -0.099617 -0.980520 -0.169284
vn -0.182529 -0.980998 -0.065779
vn -0.182529 -0.980998 0.065779
vn -0.099617 -0.980520 0.169284
vn 0.032845 -0.979743 0.197550
vn 0.155244 -0.979012 0.132040
vn 0.205243 -0.978711 0.000000
vn 0.500004 0.000000 -0.866023
vn 0.500004 0.000000 -0.866023
vn -0.173646 0.000000 -0.984808
vn -0.173646 0.000000 -0.984808
vn -0.766046 0.000000 -0.642786
vn -0.766046 0.000000 -0.642786
vn -1.000000 0.000000 0.000000
vn -1.000000 0.000000 0.000000
vn -0.766046 0.000000 0.642785
vn -0.766046 0.000000 0.642785
vn -0.173646 0.000000 0.984808
vn -0.173646 0.000000 0.984808
vn 0.500004 0.000000 0.866023
vn 0.500004 0.000000 0.866023
vn 0.939690 0.000000 0.342026
vn 0.939690 0.000000 0.342026
vn 0.939690 0.000000 -0.342026
vn 0.939690 0.000000 -0.342026
vn 0.201550 0.964906 -0.168327
vn 0.043912 0.965837 -0.255403
vn 0.045802 0.965830 -0.255099
vn 0.202350 0.964900 -0.167398
vn -0.130766 0.966258 -0.221916
vn -0.129329 0.966256 -0.222764
vn -0.241975 0.966377 -0.086969
vn -0.241754 0.966377 -0.087582
vn -0.242025 0.966426 0.086279
vn -0.241799 0.966427 0.086901
vn -0.130247 0.966536 0.221005
vn -0.128796 0.966535 0.221861
vn 0.044545 0.965884 0.255116
vn 0.046407 0.965874 0.254820
vn 0.201550 0.964906 0.168327
vn 0.202350 0.964900 0.167398
vn 0.264615 0.964354 0.000000
vn 0.264615 0.964354 0.000000
s 1
g Checkpoint
f 1/1/1 2/2/2 11/68/3 10/11/4
s 2
f 2/2/5 3/3/6 12/70/7 11/68/8
s 3
f 3/3/9 4/4/10 13/72/11 12/70/12
s 4
f 4/4/13 5/5/14 14/74/15 13/72/16
s 5
f 5/5/17 6/6/18 15/76/19 14/74/20
s 6
f 6/6/21 7/7/22 16/78/23 15/76/24
s 7
f 7/7/25 8/8/26 17/80/27 16/78/28
s 8
f 8/8/29 9/9/30 18/82/31 17/80/32
s 9
f 9/9/33 1/10/34 10/84/35 18/82/36
s off
f 19/87/37 20/89/38 29/13/39 28/12/40
f 20/89/41 21/91/42 30/14/43 29/13/44
f 21/91/45 22/93/46 31/15/47 30/14/48
f 22/93/49 23/95/50 32/16/51 31/15/52
f 23/95/53 24/97/54 33/17/55 32/16/56
f 24/97/57 25/99/58 34/18/59 33/17/60
f 25/99/61 26/101/62 35/19/63 34/18/64
f 26/101/65 27/103/66 36/20/67 35/19/68
f 27/103/69 19/87/70 28/12/71 36/20/72
s 10
f 28/12/73 29/13/74 39/31/75 38/47/76
f 29/13/77 30/14/78 40/33/79 39/31/75
f 30/14/80 31/15/81 41/35/82 40/33/79
f 31/15/83 32/16/84 42/37/85 41/35/82
f 32/16/86 33/17/87 43/39/88 42/37/85
f 33/17/89 34/18/90 44/41/91 43/39/88
f 34/18/92 35/19/93 45/43/94 44/41/91
f 35/19/95 36/20/96 46/45/97 45/43/94
f 36/20/98 28/12/99 38/47/76 46/45/97
s 19
f 47/29/100 48/50/101 50/52/102 49/21/103
f 48/50/101 47/29/100 63/28/104 64/66/105
f 49/21/103 50/52/102 52/54/106 51/22/107
f 51/22/107 52/54/106 54/56/108 53/23/109
f 53/23/109 54/56/108 56/58/110 55/24/111
f 55/24/111 56/58/110 58/60/112 57/25/113
f 57/25/113 58/60/112 60/62/114 59/26/115
f 59/26/115 60/62/114 62/64/116 61/27/117
f 61/27/117 62/64/116 64/66/105 63/28/104
s 20
f 47/29/118 49/21/119 37/30/120
f 49/21/119 51/22/121 37/30/120
f 51/22/121 53/23/122 37/30/120
f 53/23/122 55/24/123 37/30/120
f 55/24/123 57/25/124 37/30/120
f 57/25/124 59/26/125 37/30/120
f 59/26/125 61/27/126 37/30/120
f 61/27/126 63/28/127 37/30/120
f 63/28/127 47/29/118 37/30/120
s off
f 65/32/128 66/65/129 82/63/130 81/48/131
f 66/65/132 65/32/133 67/34/134 68/49/135
f 68/49/136 67/34/137 69/36/138 70/51/139
f 70/51/140 69/36/141 71/38/142 72/53/143
f 72/53/144 71/38/145 73/40/146 74/55/147
f 74/55/148 73/40/149 75/42/150 76/57/151
f 76/57/152 75/42/153 77/44/154 78/59/155
f 78/59/156 77/44/157 79/46/158 80/61/159
f 80/61/160 79/46/161 81/48/162 82/63/163
s 10
f 38/47/76 39/31/75 67/34/164 65/32/165
f 39/31/75 40/33/79 69/36/166 67/34/164
f 40/33/79 41/35/82 71/38/167 69/36/166
f 41/35/82 42/37/85 73/40/168 71/38/167
f 42/37/85 43/39/88 75/42/169 73/40/168
f 43/39/88 44/41/91 77/44/170 75/42/169
f 44/41/91 45/43/94 79/46/171 77/44/170
f 45/43/94 46/45/97 81/48/172 79/46/171
f 46/45/97 38/47/76 65/32/165 81/48/172
s 1
f 11/68/3 85/71/173 83/69/174 10/11/4
s 2
f 12/70/7 87/73/175 85/71/176 11/68/8
s 3
f 13/72/11 89/75/177 87/73/178 12/70/12
s 4
f 14/74/15 91/77/179 89/75/180 13/72/16
s 5
f 15/76/19 93/79/181 91/77/182 14/74/20
s 6
f 16/78/23 95/81/183 93/79/184 15/76/24
s 7
f 17/80/27 97/83/185 95/81/186 16/78/28
s 8
f 18/82/31 99/85/187 97/83/188 17/80/32
s 9
f 10/84/35 83/67/189 99/85/190 18/82/36
s 21
f 84/102/191 86/86/192 20/89/193 19/87/194
f 86/86/192 88/88/195 21/91/196 20/89/193
f 88/88/195 90/90/197 22/93/198 21/91/196
f 90/90/197 92/92/199 23/95/200 22/93/198
f 92/92/199 94/94/201 24/97/202 23/95/200
f 94/94/201 96/96/203 25/99/204 24/97/202
f 96/96/203 98/98/205 26/101/206 25/99/204
f 98/98/205 100/100/207 27/103/208 26/101/206
f 100/100/207 84/102/191 19/87/194 27/103/208
g default
v 0.565994 1.067719 -0.481410
v 0.741077 1.066944 0.000000
v 0.774158 0.951382 0.000000
v 0.591110 0.951315 -0.502921
v 0.127617 0.951248 -0.770520
v 0.122360 1.068494 -0.737781
v -0.399452 0.951210 -0.677585
v -0.382420 1.067719 -0.648979
v -0.743469 0.951202 -0.267599
v -0.711998 1.066944 -0.256333
v -0.743469 0.951238 0.267599
v -0.712032 1.066944 0.256343
v -0.399452 0.951210 0.677585
v -0.382420 1.068494 0.648978
v 0.127617 0.951248 0.770520
v 0.122360 1.068494 0.737781
v 0.591110 0.951315 0.502921
v 0.565994 1.067719 0.481410
v 0.917965 7.428359 -0.795154
v 0.185135 7.428566 -1.218248
v 0.185135 7.577600 -1.218248
v 0.917965 7.577600 -0.795154
v -0.648155 7.428628 -1.071310
v -0.648155 7.577600 -1.071310
v -1.192059 7.428524 -0.423093
v -1.192059 7.577600 -0.423093
v -1.192059 7.428524 0.423093
v -1.192059 7.577600 0.423093
v -0.648155 7.428628 1.071310
v -0.648155 7.577600 1.071310
v 0.185135 7.428566 1.218248
v 0.185135 7.577600 1.218248
v 0.917965 7.428359 0.795156
v 0.917965 7.577600 0.795156
v 1.207405 7.428103 0.000000
v 1.207405 7.577600 0.000000
vt 0.625000 0.663459
vt 0.624437 0.683355
vt 0.597782 0.688440
vt 0.597222 0.663505
vt 0.375544 0.688440
vt 0.375000 0.663459
vt 0.402778 0.663411
vt 0.402205 0.683271
vt 0.403315 0.688440
vt 0.430556 0.663385
vt 0.429983 0.683275
vt 0.431099 0.688440
vt 0.458333 0.663380
vt 0.457771 0.683362
vt 0.458891 0.688440
vt 0.486111 0.663404
vt 0.485565 0.683510
vt 0.486685 0.688440
vt 0.513889 0.663385
vt 0.513356 0.683635
vt 0.514473 0.688440
vt 0.541667 0.663411
vt 0.541139 0.683681
vt 0.542252 0.688440
vt 0.569445 0.663459
vt 0.568911 0.683626
vt 0.570020 0.688440
vt 0.596674 0.683491
vt 0.559847 0.893968
vt 0.513566 0.920688
vt 0.513566 0.920688
vt 0.559847 0.893968
vt 0.460938 0.911408
vt 0.460938 0.911408
vt 0.426587 0.870470
vt 0.426587 0.870470
vt 0.426587 0.817030
vt 0.426587 0.817030
vt 0.460938 0.776092
vt 0.460938 0.776092
vt 0.513566 0.766812
vt 0.513566 0.766812
vt 0.559847 0.793532
vt 0.559847 0.793532
vt 0.578125 0.843750
vt 0.578125 0.843750
vn 0.907881 0.258389 -0.330131
vn 0.907881 0.258389 -0.330131
vn 0.907881 0.258389 -0.330131
vn 0.907881 0.258389 -0.330131
vn 0.483504 0.257130 -0.836725
vn 0.483504 0.257130 -0.836725
vn 0.483504 0.257130 -0.836725
vn 0.483504 0.257130 -0.836725
vn -0.167776 0.258141 -0.951428
vn -0.167776 0.258141 -0.951428
vn -0.167776 0.258141 -0.951428
vn -0.167776 0.258141 -0.951428
vn -0.739575 0.260969 -0.620422
vn -0.739575 0.260969 -0.620422
vn -0.739575 0.260969 -0.620422
vn -0.739575 0.260969 -0.620422
vn -0.964990 0.262286 -0.000040
vn -0.964990 0.262286 -0.000040
vn -0.964990 0.262286 -0.000040
vn -0.964990 0.262286 -0.000040
vn -0.739859 0.260068 0.620462
vn -0.739860 0.260068 0.620462
vn -0.739859 0.260068 0.620462
vn -0.739859 0.260068 0.620462
vn -0.167625 0.257344 0.951670
vn -0.167625 0.257344 0.951670
vn -0.167625 0.257344 0.951670
vn -0.167625 0.257344 0.951670
vn 0.483504 0.257130 0.836725
vn 0.483504 0.257130 0.836725
vn 0.483504 0.257130 0.836725
vn 0.483504 0.257130 0.836725
vn 0.907881 0.258389 0.330131
vn 0.907881 0.258389 0.330131
vn 0.907881 0.258389 0.330131
vn 0.907881 0.258389 0.330131
vn 0.499994 0.000000 -0.866029
vn 0.499994 0.000000 -0.866029
vn 0.499994 0.000000 -0.866029
vn 0.499994 0.000000 -0.866029
vn -0.173656 0.000000 -0.984806
vn -0.173656 0.000000 -0.984806
vn -0.173656 0.000000 -0.984806
vn -0.173656 0.000000 -0.984806
vn -0.766052 0.000000 -0.642779
vn -0.766052 0.000000 -0.642779
vn -0.766052 0.000000 -0.642779
vn -0.766052 0.000000 -0.642779
vn -1.000000 0.000000 0.000000
vn -1.000000 0.000000 0.000000
vn -1.000000 0.000000 0.000000
vn -1.000000 0.000000 0.000000
vn -0.766052 0.000000 0.642779
vn -0.766052 0.000000 0.642779
vn -0.766052 0.000000 0.642779
vn -0.766052 0.000000 0.642779
vn -0.173656 0.000000 0.984806
vn -0.173656 0.000000 0.984806
vn -0.173656 0.000000 0.984806
vn -0.173656 0.000000 0.984806
vn 0.499993 0.000000 0.866030
vn 0.499993 0.000000 0.866030
vn 0.499993 0.000000 0.866030
vn 0.499993 0.000000 0.866030
vn 0.939683 0.000000 0.342047
vn 0.939683 0.000000 0.342047
vn 0.939683 0.000000 0.342048
vn 0.939683 0.000000 0.342048
vn 0.939682 0.000000 -0.342048
vn 0.939682 0.000000 -0.342048
vn 0.939683 0.000000 -0.342048
vn 0.939683 0.000000 -0.342048
s off
g Checkpoint Checkpoint_Color
f 104/104/209 101/105/210 102/106/211 103/107/212
f 101/108/213 104/109/214 105/110/215 106/111/216
f 106/112/217 105/110/218 107/113/219 108/114/220
f 108/115/221 107/113/222 109/116/223 110/117/224
f 110/118/225 109/116/226 111/119/227 112/120/228
f 112/121/229 111/119/230 113/122/231 114/123/232
f 114/124/233 113/122/234 115/125/235 116/126/236
f 116/127/237 115/125/238 117/128/239 118/129/240
f 118/130/241 117/128/242 103/107/243 102/131/244
f 119/132/245 120/133/246 121/134/247 122/135/248
f 120/133/249 123/136/250 124/137/251 121/134/252
f 123/136/253 125/138/254 126/139/255 124/137/256
f 125/138/257 127/140/258 128/141/259 126/139/260
f 127/140/261 129/142/262 130/143/263 128/141/264
f 129/142/265 131/144/266 132/145/267 130/143/268
f 131/144/269 133/146/270 134/147/271 132/145/272
f 133/146/273 135/148/274 136/149/275 134/147/276
f 135/148/277 119/132/278 122/135/279 136/149/280
