# This file uses centimeters as units for non-parametric coordinates.

g default
v -6.000000 -0.826401 0.000000
v -6.000000 0.173599 0.000000
v -5.770676 0.437103 0.000000
v -4.602539 0.437103 0.000000
v -4.242641 -0.826401 4.242640
v -4.242641 0.173599 4.242640
v -4.242640 -0.826401 -4.242641
v -4.242640 0.173599 -4.242641
v -4.080490 0.437103 4.080505
v -4.080482 0.437103 -4.080505
v -3.734573 0.194656 0.000000
v -3.254494 0.437103 3.254517
v -3.254486 0.437103 -3.254517
v -2.640747 0.194656 2.640778
v -2.640739 0.194656 -2.640778
v -0.000001 -0.826401 -6.000000
v -0.000001 0.173599 -6.000000
v 0.000000 -0.826401 6.000000
v 0.000000 0.173599 6.000000
v 0.000000 0.437103 5.770691
v 0.000000 0.437103 4.602539
v 0.000000 0.194656 3.734589
v 0.000000 0.194656 -3.734589
v 0.000000 0.437103 -4.602539
v 0.000000 0.437103 -5.770691
v 2.640739 0.194656 2.640778
v 2.640739 0.194656 -2.640778
v 3.254486 0.437103 3.254517
v 3.254486 0.437103 -3.254517
v 3.734573 0.194656 0.000000
v 4.080482 0.437103 4.080505
v 4.080482 0.437103 -4.080505
v 4.242640 -0.826401 4.242640
v 4.242640 0.173599 4.242640
v 4.242640 -0.826401 -4.242640
v 4.242640 0.173599 -4.242640
v 4.602539 0.437103 0.000000
v 5.770676 0.437103 0.000000
v 6.000000 -0.826401 -0.000000
v 6.000000 0.173599 -0.000000
vn -0.110750 0.957206 -0.267378
vn -0.110750 0.957206 -0.267378
vn -0.110750 0.957206 -0.267378
vn -0.110749 0.957206 -0.267378
vn -0.110749 0.957206 -0.267378
vn -0.110749 0.957206 -0.267378
vn -0.267375 0.957207 -0.110749
vn -0.267375 0.957207 -0.110749
vn -0.267375 0.957207 -0.110749
vn -0.267375 0.957207 -0.110749
vn -0.267375 0.957207 -0.110749
vn -0.267375 0.957207 -0.110749
vn -0.267375 0.957207 0.110749
vn -0.267375 0.957207 0.110749
vn -0.267375 0.957207 0.110749
vn -0.267375 0.957207 0.110749
vn -0.267375 0.957207 0.110749
vn -0.267375 0.957207 0.110749
vn -0.110749 0.957206 0.267378
vn -0.110749 0.957206 0.267378
vn -0.110749 0.957206 0.267378
vn -0.110749 0.957206 0.267378
vn -0.110749 0.957206 0.267378
vn -0.110749 0.957206 0.267378
vn 0.110749 0.957206 0.267378
vn 0.110749 0.957206 0.267378
vn 0.110749 0.957206 0.267378
vn 0.110749 0.957206 0.267378
vn 0.110749 0.957206 0.267378
vn 0.110749 0.957206 0.267378
vn 0.267375 0.957207 0.110749
vn 0.267375 0.957207 0.110749
vn 0.267375 0.957207 0.110749
vn 0.267375 0.957207 0.110749
vn 0.267375 0.957207 0.110749
vn 0.267375 0.957207 0.110749
vn 0.110749 0.957206 -0.267378
vn 0.110749 0.957206 -0.267378
vn 0.110749 0.957206 -0.267378
vn 0.110749 0.957206 -0.267378
vn 0.110749 0.957206 -0.267378
vn 0.110749 0.957206 -0.267378
vn 0.267375 0.957207 -0.110748
vn 0.267375 0.957207 -0.110748
vn 0.267375 0.957207 -0.110748
vn 0.267375 0.957207 -0.110749
vn 0.267375 0.957207 -0.110749
vn 0.267375 0.957207 -0.110749
vn 0.000000 1.000000 0.000000
vn 0.000000 1.000000 0.000000
vn 0.000000 1.000000 0.000000
vn 0.000000 1.000000 0.000000
vn 0.000000 1.000000 0.000000
vn 0.000000 1.000000 0.000000
vn 0.000000 1.000000 0.000000
vn 0.000000 1.000000 0.000000
vn 0.000000 1.000000 0.000000
vn 0.000000 1.000000 0.000000
vn 0.000000 1.000000 0.000000
vn 0.000000 1.000000 0.000000
vn 0.000000 1.000000 0.000000
vn 0.000000 1.000000 0.000000
vn 0.000000 1.000000 0.000000
vn 0.000000 1.000000 0.000000
vn 0.000000 1.000000 0.000000
vn 0.000000 1.000000 0.000000
vn 0.000000 1.000000 0.000000
vn 0.000000 1.000000 0.000000
vn 0.000000 1.000000 0.000000
vn 0.000000 1.000000 0.000000
vn 0.000000 1.000000 0.000000
vn 0.000000 1.000000 0.000000
vn 0.000000 1.000000 0.000000
vn 0.000000 1.000000 0.000000
vn 0.000000 1.000000 0.000000
vn 0.000000 1.000000 0.000000
vn 0.000000 1.000000 0.000000
vn 0.000000 1.000000 0.000000
vn 0.000000 1.000000 0.000000
vn 0.000000 1.000000 0.000000
vn 0.000000 1.000000 0.000000
vn 0.000000 1.000000 0.000000
vn 0.000000 1.000000 0.000000
vn 0.000000 1.000000 0.000000
vn 0.000000 1.000000 0.000000
vn 0.000000 1.000000 0.000000
vn 0.000000 1.000000 0.000000
vn 0.000000 1.000000 0.000000
vn 0.000000 1.000000 0.000000
vn 0.000000 1.000000 0.000000
vn 0.000000 1.000000 0.000000
vn 0.000000 1.000000 0.000000
vn 0.000000 1.000000 0.000000
vn 0.000000 1.000000 0.000000
vn 0.000000 1.000000 0.000000
vn 0.000000 1.000000 0.000000
vn 0.298245 0.626585 0.720029
vn 0.298245 0.626585 0.720029
vn 0.298245 0.626585 0.720029
vn 0.298246 0.626582 0.720031
vn 0.298246 0.626582 0.720031
vn 0.298246 0.626582 0.720031
vn 0.720014 0.626605 0.298239
vn 0.720014 0.626605 0.298239
vn 0.720014 0.626605 0.298239
vn 0.720011 0.626609 0.298238
vn 0.720011 0.626609 0.298238
vn 0.720011 0.626609 0.298238
vn 0.720011 0.626610 -0.298237
vn 0.720011 0.626610 -0.298237
vn 0.720011 0.626610 -0.298237
vn 0.720014 0.626605 -0.298239
vn 0.720014 0.626605 -0.298239
vn 0.720014 0.626605 -0.298239
vn 0.298246 0.626581 -0.720031
vn 0.298246 0.626581 -0.720031
vn 0.298246 0.626581 -0.720031
vn 0.298245 0.626585 -0.720029
vn 0.298245 0.626585 -0.720029
vn 0.298245 0.626585 -0.720029
vn -0.298245 0.626586 -0.720028
vn -0.298245 0.626586 -0.720028
vn -0.298245 0.626586 -0.720028
vn -0.298246 0.626583 -0.720030
vn -0.298246 0.626583 -0.720030
vn -0.298246 0.626583 -0.720030
vn -0.720014 0.626605 -0.298238
vn -0.720014 0.626605 -0.298238
vn -0.720014 0.626605 -0.298238
vn -0.720010 0.626609 -0.298238
vn -0.720010 0.626609 -0.298238
vn -0.720010 0.626609 -0.298238
vn -0.298247 0.626578 0.720034
vn -0.298247 0.626578 0.720034
vn -0.298247 0.626578 0.720034
vn -0.298246 0.626583 0.720030
vn -0.298246 0.626583 0.720030
vn -0.298246 0.626583 0.720030
vn -0.720014 0.626606 0.298238
vn -0.720014 0.626606 0.298238
vn -0.720014 0.626606 0.298238
vn -0.720019 0.626597 0.298241
vn -0.720019 0.626597 0.298241
vn -0.720019 0.626597 0.298241
vn -0.252725 -0.000000 0.967538
vn -0.252725 -0.000000 0.967538
vn -0.252725 -0.000000 0.967538
vn -0.505450 -0.000000 0.862856
vn -0.505450 -0.000000 0.862856
vn -0.505450 -0.000000 0.862856
vn -0.862856 -0.000000 0.505449
vn -0.862856 -0.000000 0.505449
vn -0.862856 -0.000000 0.505449
vn -0.967538 -0.000000 0.252725
vn -0.967538 -0.000000 0.252725
vn -0.967538 -0.000000 0.252725
vn -0.967538 0.000000 -0.252725
vn -0.967538 0.000000 -0.252725
vn -0.967538 0.000000 -0.252725
vn -0.862856 0.000000 -0.505450
vn -0.862856 0.000000 -0.505450
vn -0.862856 0.000000 -0.505450
vn -0.505449 0.000000 -0.862856
vn -0.505449 0.000000 -0.862856
vn -0.505449 0.000000 -0.862856
vn -0.252725 0.000000 -0.967538
vn -0.252725 0.000000 -0.967538
vn -0.252725 0.000000 -0.967538
vn 0.252725 0.000000 -0.967538
vn 0.252725 0.000000 -0.967538
vn 0.252725 0.000000 -0.967538
vn 0.505449 0.000000 -0.862856
vn 0.505449 0.000000 -0.862856
vn 0.505449 0.000000 -0.862856
vn 0.862856 0.000000 -0.505450
vn 0.862856 0.000000 -0.505450
vn 0.862856 0.000000 -0.505450
vn 0.967538 0.000000 -0.252725
vn 0.967538 0.000000 -0.252725
vn 0.967538 0.000000 -0.252725
vn 0.967538 -0.000000 0.252725
vn 0.967538 -0.000000 0.252725
vn 0.967538 -0.000000 0.252725
vn 0.862856 -0.000000 0.505449
vn 0.862856 -0.000000 0.505449
vn 0.862856 -0.000000 0.505449
vn 0.505449 -0.000000 0.862856
vn 0.505449 -0.000000 0.862856
vn 0.505449 -0.000000 0.862856
vn 0.252725 -0.000000 0.967538
vn 0.252725 -0.000000 0.967538
vn 0.252725 -0.000000 0.967538
s off
g checkpoint
f 26//1 22//2 21//3
f 26//4 21//5 28//6
f 30//7 26//8 28//9
f 30//10 28//11 37//12
f 27//13 30//14 37//15
f 27//16 37//17 29//18
f 23//19 27//20 29//21
f 23//22 29//23 24//24
f 15//25 23//26 24//27
f 15//28 24//29 13//30
f 11//31 15//32 13//33
f 11//34 13//35 4//36
f 22//37 14//38 12//39
f 22//40 12//41 21//42
f 14//43 11//44 4//45
f 14//46 4//47 12//48
f 28//49 21//50 20//51
f 28//52 20//53 31//54
f 37//55 28//56 31//57
f 37//58 31//59 38//60
f 29//61 37//62 38//63
f 29//64 38//65 32//66
f 24//67 29//68 32//69
f 24//70 32//71 25//72
f 13//73 24//74 25//75
f 13//76 25//77 10//78
f 4//79 13//80 10//81
f 4//82 10//83 3//84
f 21//85 12//86 9//87
f 21//88 9//89 20//90
f 12//91 4//92 3//93
f 12//94 3//95 9//96
f 31//97 20//98 19//99
f 31//100 19//101 34//102
f 38//103 31//104 34//105
f 38//106 34//107 40//108
f 32//109 38//110 40//111
f 32//112 40//113 36//114
f 25//115 32//116 36//117
f 25//118 36//119 17//120
f 10//121 25//122 17//123
f 10//124 17//125 8//126
f 3//127 10//128 8//129
f 3//130 8//131 2//132
f 20//133 9//134 6//135
f 20//136 6//137 19//138
f 9//139 3//140 2//141
f 9//142 2//143 6//144
f 18//145 19//146 6//147
f 18//148 6//149 5//150
f 5//151 6//152 2//153
f 5//154 2//155 1//156
f 1//157 2//158 8//159
f 1//160 8//161 7//162
f 7//163 8//164 17//165
f 7//166 17//167 16//168
f 16//169 17//170 36//171
f 16//172 36//173 35//174
f 35//175 36//176 40//177
f 35//178 40//179 39//180
f 39//181 40//182 34//183
f 39//184 34//185 33//186
f 33//187 34//188 19//189
f 33//190 19//191 18//192
g default
v 0.000000 0.194656 3.734589
v 0.000000 0.194656 0.000000
v -2.640747 0.194656 2.640778
v -3.734573 0.194656 0.000000
v -2.640739 0.194656 -2.640778
v 0.000000 0.194656 -3.734589
v 2.640739 0.194656 -2.640778
v 3.734573 0.194656 0.000000
v 2.640739 0.194656 2.640778
vn 0.000000 1.000000 0.000000
vn 0.000000 1.000000 0.000000
vn 0.000000 1.000000 0.000000
vn 0.000000 1.000000 0.000000
vn 0.000000 1.000000 0.000000
vn 0.000000 1.000000 0.000000
vn 0.000000 1.000000 0.000000
vn 0.000000 1.000000 0.000000
vn 0.000000 1.000000 0.000000
vn 0.000000 1.000000 0.000000
vn 0.000000 1.000000 0.000000
vn 0.000000 1.000000 0.000000
vn 0.000000 1.000000 0.000000
vn 0.000000 1.000000 0.000000
vn 0.000000 1.000000 0.000000
vn 0.000000 1.000000 0.000000
vn 0.000000 1.000000 0.000000
vn 0.000000 1.000000 0.000000
vn 0.000000 1.000000 0.000000
vn 0.000000 1.000000 0.000000
vn 0.000000 1.000000 0.000000
vn 0.000000 1.000000 0.000000
vn 0.000000 1.000000 0.000000
vn 0.000000 1.000000 0.000000
s off
g checkpoint center
f 41//193 42//194 43//195
f 43//196 42//197 44//198
f 44//199 42//200 45//201
f 45//202 42//203 46//204
f 46//205 42//206 47//207
f 47//208 42//209 48//210
f 48//211 42//212 49//213
f 49//214 42//215 41//216
