# This file uses centimeters as units for non-parametric coordinates.

g default
v -4.498486 3.368908 -0.472691
v -4.498486 -3.388724 -0.472691
v 4.508390 -3.388724 -0.472691
v 4.508390 3.368908 -0.472691
vt -0.000000 1.000000
vt -0.000000 -0.000000
vt 1.000000 -0.000000
vt 1.000000 1.000000
vn 0.000000 0.000000 1.000000
vn 0.000000 0.000000 1.000000
vn 0.000000 0.000000 1.000000
vn 0.000000 0.000000 1.000000
s off
g Picture PictureFrame
f 1/1/1 2/2/2 3/3/3 4/4/4
g default
v -4.967690 3.888949 -0.500000
v 4.967690 3.888949 -0.500000
v -4.967690 -3.888949 -0.500000
v 4.967690 -3.888949 -0.500000
v 4.967690 3.442772 -0.500000
v -4.967690 3.442772 -0.500000
v 4.607234 -3.888949 -0.500000
v 4.607234 3.888949 -0.500000
v 4.508390 3.368908 -0.472691
v -4.597113 -3.888949 -0.500000
v -4.597113 3.888949 -0.500000
v -4.498486 3.368908 -0.472691
v -4.498486 -3.388724 -0.472691
v 4.508390 -3.388724 -0.472691
v 4.967690 -3.463019 -0.500000
v -4.967690 -3.463019 -0.500000
v -4.861113 -3.805515 -0.334219
v -4.749664 -3.677419 -0.268013
v -4.498486 -3.805515 -0.325868
v -4.498486 -3.684232 -0.263183
v -4.861113 3.805515 -0.333634
v -4.753510 3.675960 -0.264879
v -4.498486 3.805515 -0.322814
v -4.498486 3.684921 -0.258815
v -4.737798 -3.388726 -0.277683
v -4.861113 -3.388726 -0.336269
v 4.861113 -3.805515 -0.335916
v 4.751536 -3.676035 -0.268995
v 4.737402 -3.388726 -0.280836
v 4.861113 -3.388726 -0.338582
v -4.737798 3.368908 -0.277683
v -4.861113 3.368909 -0.336269
v 4.861113 3.805515 -0.335281
v 4.755347 3.674596 -0.265802
v 4.861113 3.368909 -0.338582
v 4.737402 3.368908 -0.280836
v 4.508390 -3.805515 -0.325868
v 4.508390 -3.684232 -0.263183
v 4.508390 3.684921 -0.258815
v 4.508390 3.805515 -0.322814
vt 0.010743 0.116928
vt 0.021967 0.129802
vt 0.023160 0.158862
vt 0.010743 0.158879
vt 0.047242 0.116926
vt 0.047248 0.129115
vt 0.953787 0.116927
vt 0.953793 0.129117
vt 0.010744 0.882978
vt 0.021581 0.869919
vt 0.047250 0.870819
vt 0.047243 0.882975
vt 0.010744 0.839034
vt 0.023161 0.839018
vt 0.953794 0.870820
vt 0.953788 0.882976
vt 0.989288 0.116930
vt 0.978265 0.129943
vt 0.989287 0.158880
vt 0.976841 0.158864
vt 0.989288 0.839036
vt 0.976842 0.839020
vt 0.989289 0.882980
vt 0.978650 0.869783
vt 0.953774 0.839073
vt 0.963720 0.891423
vt 1.000000 0.891423
vt 0.963719 0.108578
vt 0.999999 0.108578
vt 1.000000 0.846516
vt 0.000001 0.846514
vt 0.000001 0.891422
vt 0.953773 0.158918
vt 0.999999 0.151448
vt 0.000000 0.151447
vt 0.037299 0.108577
vt 0.037300 0.891422
vt 0.047229 0.839072
vt 0.000000 0.108577
vt 0.047228 0.158917
vn -0.478853 0.022634 0.877603
vn -0.478853 0.022634 0.877603
vn -0.431528 0.001077 0.902099
vn -0.431558 0.001090 0.902085
vn -0.024165 -0.450471 0.892464
vn -0.024165 -0.450471 0.892464
vn -0.000823 -0.458858 0.888509
vn -0.000826 -0.458857 0.888510
vn 0.000999 -0.458804 0.888537
vn 0.001002 -0.458803 0.888538
vn -0.030930 0.458140 0.888342
vn -0.030930 0.458140 0.888342
vn -0.001076 0.468416 0.883507
vn -0.001072 0.468417 0.883507
vn -0.494911 -0.028487 0.868477
vn -0.494911 -0.028487 0.868477
vn -0.432495 -0.001430 0.901635
vn -0.432443 -0.001408 0.901660
vn 0.001250 0.468367 0.883533
vn 0.001245 0.468369 0.883532
vn 0.029946 -0.448583 0.893239
vn 0.029946 -0.448583 0.893239
vn 0.483067 0.027728 0.875144
vn 0.483067 0.027728 0.875144
vn 0.425901 0.001326 0.904769
vn 0.425858 0.001306 0.904789
vn 0.426860 -0.001668 0.904316
vn 0.426791 -0.001639 0.904349
vn 0.499142 -0.033455 0.865874
vn 0.499142 -0.033455 0.865874
vn 0.036698 0.456377 0.889030
vn 0.036698 0.456377 0.889030
vn 0.000000 -0.560496 0.828157
vn 0.000000 -0.560496 0.828157
vn 0.000000 -0.560495 0.828158
vn 0.000504 0.904211 0.427085
vn 0.000150 0.904565 0.426336
vn 0.007732 0.896815 0.442339
vn 0.007732 0.896815 0.442339
vn 0.000123 -0.901698 0.432366
vn 0.000415 -0.901397 0.432993
vn 0.006277 -0.895255 0.445510
vn 0.006277 -0.895255 0.445510
vn 0.834630 -0.000080 0.550810
vn 0.834798 -0.000193 0.550556
vn 0.837524 -0.002043 0.546397
vn 0.837524 -0.002043 0.546397
vn -0.838310 -0.000152 0.545194
vn -0.838181 -0.000064 0.545393
vn -0.840429 -0.001618 0.541920
vn -0.840429 -0.001618 0.541920
vn -0.642182 0.000000 0.766552
vn -0.642182 -0.000000 0.766552
vn -0.642182 -0.000000 0.766552
vn -0.642182 0.000000 0.766552
vn 0.834604 0.000065 0.550851
vn 0.834736 0.000157 0.550651
vn -0.838255 0.000119 0.545278
vn -0.838158 0.000049 0.545428
vn -0.000102 -0.901717 0.432328
vn -0.000343 -0.901463 0.432856
vn -0.000436 0.904270 0.426961
vn -0.000131 0.904581 0.426301
vn -0.000000 -0.560496 0.828157
vn -0.000000 -0.560496 0.828157
vn -0.005047 -0.896446 0.443124
vn -0.005047 -0.896446 0.443124
vn -0.006493 0.897960 0.440029
vn -0.006493 0.897960 0.440029
vn 0.631700 0.000000 0.775213
vn 0.631700 0.000000 0.775213
vn 0.631700 0.000001 0.775213
vn 0.631700 0.000000 0.775213
vn 0.631700 0.000000 0.775213
vn 0.000000 0.578366 0.815777
vn 0.000000 0.578366 0.815777
vn 0.000000 0.578366 0.815777
vn -0.000000 0.578366 0.815777
vn -0.000000 0.578366 0.815777
vn -0.642182 -0.000001 0.766553
vn 0.836969 0.001731 0.547248
vn 0.836969 0.001731 0.547248
vn -0.839927 0.001320 0.542698
vn -0.839927 0.001320 0.542698
vn -0.642183 0.000000 0.766551
vn -0.000000 -0.560497 0.828157
vn 0.631700 0.000001 0.775213
vn -0.000000 0.578366 0.815777
s 1
g PictureFrame Frame
f 21/5/5 22/6/6 29/7/7 30/8/8
s 2
f 22/6/9 21/5/10 23/9/11 24/10/12
f 24/10/12 23/9/11 41/11/13 42/12/14
s 3
f 25/13/15 26/14/16 28/15/17 27/16/18
s 1
f 26/14/19 25/13/20 36/17/21 35/18/22
s 3
f 27/16/18 28/15/17 43/19/23 44/20/24
s 1
f 30/8/8 29/7/7 35/18/22 36/17/21
s 2
f 31/21/25 32/22/26 42/12/14 41/11/13
s 4
f 32/22/27 31/21/28 34/23/29 33/24/30
f 33/24/30 34/23/29 39/25/31 40/26/32
f 37/27/33 38/28/34 40/26/32 39/25/31
s 3
f 38/28/35 37/27/36 44/20/24 43/19/23
s 5
f 43/19/37 13/29/38 38/28/39
s 6
f 12/30/40 44/20/41 37/27/42 6/31/43
s 7
f 41/11/44 11/32/45 8/33/46 31/21/47
s 8
f 39/25/48 9/34/49 6/31/50 37/27/51
s 9
f 10/35/52 36/17/53 25/13/54 5/36/55
s 10
f 13/29/56 18/37/57 33/24/58 40/26/59
s 8
f 34/23/60 19/38/61 9/34/49 39/25/48
s 9
f 20/39/62 30/8/63 36/17/53 10/35/52
s 7
f 23/9/64 14/40/65 11/32/45 41/11/44
s 6
f 15/41/66 27/16/67 44/20/41 12/30/40
s 5
f 28/15/68 16/42/69 13/29/38 43/19/37
s 7
f 7/43/70 14/40/65 23/9/64 21/5/71
s 6
f 25/13/72 27/16/67 15/41/66 5/36/73
s 11
f 35/18/74 16/42/75 26/14/76
f 29/7/77 17/44/78 16/42/75 35/18/74
s 12
f 22/6/79 24/10/80 17/44/81
f 18/37/82 17/44/81 24/10/80 42/12/83
s 10
f 33/24/58 18/37/57 32/22/84
s 8
f 31/21/85 8/33/86 19/38/61 34/23/60
s 9
f 7/43/87 21/5/88 30/8/63 20/39/62
s 10
f 38/28/89 13/29/56 40/26/59
s 5
f 26/14/90 16/42/69 28/15/68
s 11
f 22/6/91 17/44/78 29/7/77
s 12
f 32/22/92 18/37/82 42/12/83
