# This file uses centimeters as units for non-parametric coordinates.

v 2.712684 2.378939 0.062383
v 2.712684 0.021061 0.062383
v 1.764485 2.378939 0.062383
v 1.764485 0.021061 0.062383
v 2.238585 2.378939 0.474099
v 2.238585 0.021061 0.474099
v 2.238585 2.378939 -0.474100
v 2.238585 0.021061 -0.474100
vt 0.015150 0.576241
vt 0.015150 0.393138
vt 0.088784 0.576241
vt 0.088784 0.393138
vt 0.015150 0.576241
vt 0.015150 0.393138
vt 0.088784 0.393138
vt 0.088784 0.576241
vn -0.000000 0.000000 -1.000000
vn -0.000000 0.000000 -1.000000
vn -0.000000 0.000000 -1.000000
vn -0.000000 0.000000 -1.000000
vn 1.000000 0.000000 0.000000
vn 1.000000 0.000000 0.000000
vn 1.000000 0.000000 0.000000
vn 1.000000 0.000000 0.000000
s off
g TreeLine5
f 1/1/1 2/2/2 4/4/3 3/3/4
f 5/5/5 6/6/6 8/7/7 7/8/8
