# This file uses centimeters as units for non-parametric coordinates.

v 1.499999 2.357879 5.000003
v 1.499999 0.000000 5.000003
v 5.499998 2.357879 -5.000004
v 5.499998 0.000000 -5.000004
v -0.000001 2.357879 -0.000001
v -0.000001 0.000000 -0.000001
vt 0.003635 0.995402
vt 0.003635 0.812298
vt 0.986258 0.812298
vt 0.408995 0.995403
vt 0.408996 0.812295
vt 0.986258 0.995402
vn 0.928477 0.000000 0.371390
vn 0.928477 0.000000 0.371390
vn 0.672673 0.000000 0.739940
vn 0.672673 0.000000 0.739940
vn 0.957826 0.000000 -0.287348
vn 0.957826 0.000000 -0.287348
s 1
g TreeLine3
f 5/4/1 6/5/2 4/3/3 3/6/4
f 1/1/5 2/2/6 6/5/2 5/4/1
