# This file uses centimeters as units for non-parametric coordinates.

g default
v -2.044213 20.070326 16.163059
v -2.463501 19.630783 16.473322
v 10.055922 0.807875 -18.076805
v 10.850412 0.677949 -17.620916
v -10.815111 1.671108 -4.959825
v -10.717238 1.297585 -17.930813
v -9.644421 12.401464 -7.887367
v 0.330768 18.506144 16.665728
v 9.467400 11.576611 -7.232622
v 9.031046 1.379694 -2.530241
v 8.117625 1.468222 -0.362658
v -1.026428 0.714771 3.572651
v 2.137269 19.558245 16.546721
v 10.373928 1.222469 -4.233311
v -0.347830 9.610457 7.400581
v -0.687129 5.162614 4.252243
vt 0.860904 0.722639
vt 0.136423 0.707217
vt 0.993691 0.429916
vt 0.444427 0.298712
vt 0.681898 0.028236
vt 0.675080 0.001950
vt 0.298046 0.098112
vt 0.271980 0.109540
vt 0.046238 0.226909
vt 0.683424 0.577227
vt 0.079580 0.701910
vt 0.225450 0.779170
vt 0.218990 0.769470
vt 0.341050 0.078110
vt 0.062909 0.464410
vt 0.054573 0.345659
vn 0.809316 0.110505 0.576885
vn 0.475162 0.772817 -0.420684
vn 0.997731 -0.012158 0.066221
vn 0.147474 0.946797 -0.286054
vn 0.475162 0.772817 -0.420684
vn 0.933101 0.243026 0.265066
vn 0.475162 0.772817 -0.420684
vn 0.809316 0.110505 0.576885
vn 0.933101 0.243026 0.265066
vn 0.719633 0.636447 0.277605
vn 0.905034 0.410835 0.110126
vn 0.621880 0.020298 0.782849
vn 0.905034 0.410835 0.110126
vn -0.137015 -0.499226 0.855570
vn 0.621880 0.020298 0.782849
vn 0.621880 0.020298 0.782849
vn -0.137015 -0.499226 0.855570
vn -0.028695 -0.705244 0.708384
vn -0.837527 0.544242 0.048477
vn -0.992898 0.118877 0.004750
vn -0.898211 0.432174 0.080267
vn -0.898211 0.432174 0.080267
vn -0.992898 0.118877 0.004750
vn -0.920356 -0.057885 0.386774
vn -0.920356 -0.057885 0.386774
vn -0.992898 0.118877 0.004750
vn -0.749729 0.541510 -0.380360
vn 0.051461 0.951443 -0.303493
vn 0.051461 0.951443 -0.303493
vn 0.032759 0.885242 -0.463976
vn 0.145075 0.928470 -0.341903
vn -0.701959 0.711963 -0.019006
vn 0.032759 0.885242 -0.463976
vn 0.475162 0.772817 -0.420684
vn -0.561713 0.674934 -0.478480
vn 0.011784 0.709841 -0.704263
vn 0.054243 0.666931 -0.743143
vn 0.054243 0.666931 -0.743143
vn -0.561713 0.674934 -0.478480
vn 0.809316 0.110505 0.576885
vn 0.959830 0.082587 0.268153
vn 0.909296 0.396335 0.126882
vn -0.388036 -0.578468 0.717497
vn -0.847217 -0.109094 0.519924
vn 0.251336 -0.208185 0.945246
vn -0.010670 0.291214 0.956599
vn -0.010670 0.291214 0.956599
vn -0.010670 0.291214 0.956599
vn -0.010670 0.291214 0.956599
vn 0.259445 -0.449454 0.854798
vn -0.099464 0.251128 0.962830
vn -0.907892 0.416827 0.044577
vn -0.343649 -0.630725 0.695766
vn -0.126247 -0.604463 0.786566
s off
g Pointyrock_Collision
f 10/7/1 3/5/2 9/4/3
f 4/6/4 3/5/5 14/14/6
f 3/5/7 10/7/8 14/14/9
f 10/7/10 13/2/11 11/8/12
f 13/2/13 8/11/14 11/8/15
s 1
f 11/8/16 8/11/17 15/15/18
s off
f 1/13/19 7/10/20 2/12/21
f 2/12/22 7/10/23 5/1/24
f 5/1/25 7/10/26 6/3/27
f 9/4/28 7/10/29 13/2/30
f 7/10/31 1/13/32 13/2/33
f 3/5/34 6/3/35 9/4/36
f 7/10/37 9/4/38 6/3/39
f 10/7/40 9/4/41 13/2/42
s 2
f 16/16/43 5/1/44 12/9/45
s off
f 2/12/46 8/11/47 13/2/48 1/13/49
s 1
f 11/8/16 16/16/50 12/9/51
s 2
f 2/12/52 5/1/44 16/16/43 15/15/53
f 2/12/52 15/15/53 8/11/54
s 1
f 11/8/16 15/15/18 16/16/50
