# This file uses centimeters as units for non-parametric coordinates.

g default
v -6.967468 -0.415878 6.002502
v 6.995789 -0.415878 6.002502
v -3.548059 11.696487 3.056667
v 3.271341 10.740604 2.806864
v -4.158618 13.709251 -2.923437
v 3.668395 12.044230 -2.568378
v -6.967468 -0.415878 -4.898010
v 6.995789 -0.415878 -4.898010
v 0.006391 5.089155 2.708968
v 0.014161 -0.415878 6.002502
v 3.099346 4.995830 2.659290
v 0.006951 11.274385 2.946358
v -3.374424 5.461336 2.907080
v 0.013825 22.424461 0.539157
v 5.699491 18.712809 0.449917
v 0.008333 13.515605 -2.882143
v -4.413446 14.549315 0.349813
v 0.008330 6.633310 -2.881215
v 3.277452 5.282917 -2.294665
v 0.014161 -0.415878 -4.898010
v -3.910537 6.329008 -2.749040
v 6.995789 -0.415878 0.552246
v -6.967468 -0.415878 0.552246
v 3.375883 5.441579 0.266492
v -4.196970 6.792584 0.332655
v -1.979940 3.092539 3.418400
v -3.476654 -0.415878 6.002502
v -2.114089 6.857029 3.650010
v -2.536435 16.757221 2.391048
v -3.944299 13.002731 1.855329
v -1.678275 11.087701 2.897571
v 0.012133 19.680405 2.808150
v -2.637886 17.427469 0.419013
v -2.335948 11.504658 -3.290952
v -4.385822 10.778242 -3.083158
v -2.148163 14.192063 -3.026394
v 0.009792 11.840164 -3.386925
v -1.864340 6.046970 -2.626536
v -6.967468 -0.415878 -2.172882
v -3.476654 -0.415878 -4.898010
v 4.353564 3.379347 2.039550
v 6.995789 -0.415878 3.277374
v 3.513240 5.662984 1.645876
v -5.287750 4.121170 -1.649043
v -4.289685 6.942639 -1.337785
v 2.140115 3.315712 3.665089
v 3.504975 -0.415878 6.002502
v 2.051961 6.601740 3.514120
v 1.905891 9.310759 3.263965
v 3.043231 7.448523 2.611143
v 2.169238 14.215494 3.714964
v 0.007958 9.622721 3.373326
v -2.034149 10.018280 3.511993
v -4.007807 9.849261 3.452742
v 2.963163 19.418259 2.770745
v 5.259794 17.269178 2.464098
v 3.481215 22.813173 0.548503
v 3.277604 21.478863 -2.031925
v 5.329682 17.498638 -1.655391
v 2.081316 13.639324 -2.908525
v 0.012994 21.076857 -1.993895
v -2.696599 17.815361 -1.685354
v -4.509828 14.867046 -1.406440
v 2.253715 11.009965 -3.149443
v 3.057881 7.484379 -2.140935
v 1.990048 6.402548 -2.780982
v 2.173891 3.368042 -3.037894
v 3.504975 -0.415878 -4.898010
v -2.136586 3.337210 -3.010084
v 6.995789 -0.415878 -2.172882
v -6.967468 -0.415878 3.277374
v 4.474499 3.473220 -1.389773
v 3.422482 5.516692 -1.063018
v 3.112373 7.617751 -0.966698
v 4.794475 11.734814 0.378475
v 3.214898 7.868688 1.506109
v -5.514480 4.297879 2.593914
v -4.313185 6.980674 2.028846
v -4.585332 11.268540 2.156859
v -4.951785 12.169105 0.392482
v -5.152966 12.663511 -1.607009
vt 0.330000 0.000000
vt 0.663333 0.000000
vt 0.330000 0.250000
vt 0.663333 0.250000
vt 0.330000 0.500000
vt 0.663333 0.500000
vt 0.330000 0.750000
vt 0.663333 0.750000
vt 1.000000 0.000000
vt 1.000000 0.250000
vt 0.000000 0.000000
vt 0.000000 0.250000
vt 0.496667 0.125000
vt 0.496667 0.000000
vt 0.663333 0.125000
vt 0.496667 0.250000
vt 0.330000 0.125000
vt 0.496667 0.375000
vt 0.663333 0.375000
vt 0.496667 0.500000
vt 0.330000 0.375000
vt 0.496667 0.625000
vt 0.663333 0.625000
vt 0.496667 0.750000
vt 0.330000 0.625000
vt 0.831667 0.125000
vt 0.831667 0.000000
vt 1.000000 0.125000
vt 0.831667 0.250000
vt 0.165000 0.125000
vt 0.165000 0.000000
vt 0.165000 0.250000
vt 0.000000 0.125000
vt 0.413333 0.062500
vt 0.413333 0.000000
vt 0.413333 0.125000
vt 0.413333 0.312500
vt 0.330000 0.312500
vt 0.413333 0.250000
vt 0.496667 0.312500
vt 0.413333 0.375000
vt 0.413333 0.562500
vt 0.330000 0.562500
vt 0.413333 0.500000
vt 0.496667 0.562500
vt 0.413333 0.625000
vt 0.413333 0.750000
vt 0.747500 0.062500
vt 0.747500 0.000000
vt 0.747500 0.125000
vt 0.082500 0.062500
vt 0.082500 0.000000
vt 0.082500 0.125000
vt 0.580000 0.062500
vt 0.580000 0.000000
vt 0.580000 0.125000
vt 0.580000 0.187500
vt 0.663333 0.187500
vt 0.580000 0.250000
vt 0.496667 0.187500
vt 0.413333 0.187500
vt 0.330000 0.187500
vt 0.580000 0.312500
vt 0.663333 0.312500
vt 0.580000 0.375000
vt 0.580000 0.437500
vt 0.663333 0.437500
vt 0.580000 0.500000
vt 0.496667 0.437500
vt 0.413333 0.437500
vt 0.330000 0.437500
vt 0.580000 0.562500
vt 0.663333 0.562500
vt 0.580000 0.625000
vt 0.580000 0.687500
vt 0.580000 0.750000
vt 0.413333 0.687500
vt 0.915833 0.062500
vt 0.915833 0.000000
vt 0.915833 0.125000
vt 0.915833 0.187500
vt 1.000000 0.187500
vt 0.915833 0.250000
vt 0.831667 0.187500
vt 0.747500 0.187500
vt 0.747500 0.250000
vt 0.247500 0.062500
vt 0.247500 0.000000
vt 0.247500 0.125000
vt 0.247500 0.187500
vt 0.247500 0.250000
vt 0.165000 0.187500
vt 0.082500 0.187500
vt 0.082500 0.250000
vt 0.000000 0.187500
vn -0.447194 -0.070793 0.891631
vn 0.005419 0.214041 0.976810
vn 0.147395 0.366049 0.918849
vn 0.092685 0.501709 0.860057
vn -0.833329 0.508899 0.215833
vn -0.843544 0.314934 0.435029
vn -0.847323 0.420792 0.324003
vn -0.829754 0.239188 0.504279
vn 0.043268 -0.117049 -0.992183
vn 0.020919 -0.110405 -0.993667
vn -0.034566 -0.093665 -0.995004
vn -0.071601 -0.082296 -0.994033
vn 0.748853 0.370309 0.549627
vn 0.809741 0.542985 0.222456
vn 0.805559 0.589313 0.061518
vn 0.816325 0.577526 0.008814
vn -0.857783 0.345424 -0.380646
vn -0.872057 0.413706 -0.261467
vn -0.886925 0.431314 -0.165324
vn -0.925479 0.375933 -0.046502
vn -0.033896 0.458130 0.888239
vn 0.011138 0.526245 0.850260
vn 0.000000 0.530843 0.847470
vn 0.718392 0.102274 0.688079
vn 0.654147 0.075464 0.752593
vn 0.638615 0.069232 0.766406
vn 0.532649 0.028791 0.845847
vn 0.113496 0.248728 0.961901
vn 0.069183 0.313981 0.946905
vn 0.045518 0.347742 0.936485
vn -0.081925 0.516852 0.852146
vn 0.014132 0.016429 0.999765
vn -0.192999 0.091125 0.976958
vn -0.035654 0.034480 0.998769
vn -0.588832 0.230451 0.774706
vn 0.835050 0.459049 -0.303259
vn 0.837617 0.419970 -0.349319
vn 0.836490 0.442976 -0.322578
vn 0.837699 0.396347 -0.375727
vn -0.245920 0.113238 -0.962653
vn -0.105561 0.204462 -0.973166
vn -0.214918 0.134059 -0.967388
vn 0.175648 0.364982 -0.914295
vn 0.203753 0.282585 -0.937353
vn 0.066203 0.164319 -0.984183
vn 0.063038 0.161553 -0.984849
vn -0.018048 0.090055 -0.995773
vn 0.427910 0.101957 -0.898052
vn 0.102030 0.308298 -0.945803
vn -0.007026 0.383112 -0.923675
vn -0.015664 0.424960 -0.905077
vn -0.255585 0.303297 -0.917980
vn -0.120196 0.390294 -0.912811
vn 0.000000 0.449380 -0.893341
vn 0.850542 0.524368 -0.040201
vn 0.841943 0.539413 -0.012850
vn 0.839096 0.543983 0.000000
vn 0.978025 0.150946 -0.143816
vn 0.984094 0.135152 -0.115292
vn 0.989028 0.119400 -0.086984
vn 0.992994 0.103075 -0.057788
vn 0.730767 -0.101688 0.675010
vn 0.971091 -0.211764 0.110175
vn 0.931154 -0.182605 0.315608
vn 0.974364 -0.217727 0.056652
vn -0.930452 0.344361 -0.125197
vn -0.948518 0.313090 -0.047826
vn -0.955631 0.294568 0.000000
vn -0.737210 -0.066863 0.672347
vn -0.851599 -0.111402 0.512219
vn -0.927389 -0.149050 0.343124
vn -0.955649 -0.168023 0.241873
vn -0.963518 0.220637 0.151501
vn -0.961081 0.245587 0.126536
vn -0.961868 0.238782 0.133391
vn -0.957443 0.270213 0.101429
vn 0.000000 0.593043 0.805171
vn 0.000000 0.593043 0.805171
vn -0.050927 0.573347 0.817729
vn -0.058068 0.457743 0.887186
vn 0.117083 0.227048 0.966820
vn 0.374636 -0.043631 0.926145
vn -0.819709 0.232696 0.523383
vn -0.092044 0.147914 0.984708
vn -0.247878 0.174878 0.952877
vn 0.118565 0.106149 0.987256
vn -0.038046 0.083208 0.995806
vn -0.100820 0.053849 0.993446
vn -0.171228 0.020335 0.985022
vn -0.179653 0.016283 0.983595
vn -0.650885 0.484018 0.584872
vn -0.745626 0.484892 0.457079
vn -0.812558 0.475714 0.336818
vn -0.867557 0.455583 0.199473
vn -0.122896 0.063496 -0.990386
vn -0.096018 0.085931 -0.991664
vn -0.105810 0.077781 -0.991340
vn -0.075507 0.102914 -0.991820
vn 0.094845 0.090962 -0.991328
vn 0.030532 0.164822 -0.985851
vn 0.035427 0.159268 -0.986599
vn -0.080167 0.287482 -0.954425
vn -0.026887 -0.096626 -0.994958
vn -0.076357 -0.120002 -0.989833
vn -0.040261 -0.102971 -0.993869
vn -0.094088 -0.128319 -0.987260
vn 0.820696 0.571366 0.000000
vn 0.820696 0.571366 0.000000
vn 0.825957 0.562880 0.031001
vn 0.843617 0.527012 0.102806
vn 0.883383 0.465495 0.054309
vn 0.936438 0.319666 -0.144559
vn -0.937794 0.347192 0.000000
vn -0.937794 0.347192 0.000000
vn -0.936395 0.350842 0.008589
vn -0.934311 0.355412 0.027307
vn -0.936477 0.347576 0.046916
vn -0.942413 0.324384 0.081446
vn 0.000000 0.530843 0.847470
vn -0.003250 0.527799 0.849363
vn 0.048964 0.496329 0.866753
vn 0.261013 0.381764 0.886639
vn 0.677982 0.051875 0.733246
vn -0.386457 0.031980 0.921753
vn -0.161662 0.310513 0.936722
vn 0.392223 -0.081650 0.916239
vn 0.409060 -0.100703 0.906934
vn 0.400737 -0.091251 0.911638
vn 0.413137 -0.105357 0.904554
vn -0.240503 -0.076065 0.967663
vn -0.200663 -0.035702 0.979010
vn -0.176221 -0.011212 0.984287
vn 0.096481 0.249168 0.963642
vn 0.033159 -0.144925 0.988887
vn -0.182650 -0.046924 0.982058
vn -0.065774 -0.100914 0.992719
vn -0.405145 0.062381 0.912122
vn 0.215098 0.431711 0.875990
vn 0.030888 0.287585 0.957257
vn 0.066655 0.316832 0.946137
vn -0.048157 0.220852 0.974118
vn -0.018979 -0.126080 0.991839
vn -0.229718 -0.061374 0.971320
vn -0.083858 -0.106851 0.990732
vn -0.547929 0.050311 0.835011
vn 0.425388 0.028735 0.904555
vn 0.242024 -0.057600 0.968559
vn 0.147602 -0.099214 0.984058
vn 0.039068 -0.144896 0.988675
vn 0.685675 0.027379 0.727393
vn 0.373561 0.017127 0.927448
vn 0.234966 0.012390 0.971925
vn 0.140718 0.009118 0.990008
vn 0.610476 0.574610 0.545107
vn 0.646434 0.426786 0.632437
vn 0.650838 0.398492 0.646231
vn 0.657768 0.339685 0.672276
vn -0.064277 0.553395 0.830435
vn -0.020295 0.583014 0.812208
vn -0.006333 0.592025 0.805895
vn 0.066228 0.635819 0.768991
vn 0.303615 0.066619 -0.950463
vn 0.283501 0.066140 -0.956688
vn 0.295461 0.066428 -0.953043
vn 0.271947 0.065853 -0.960056
vn -0.019447 0.114035 -0.993286
vn -0.021686 0.114938 -0.993136
vn -0.025107 0.116316 -0.992895
vn -0.025930 0.116648 -0.992835
vn -0.113449 0.877153 -0.466618
vn -0.106227 0.881951 -0.459214
vn -0.104647 0.882985 -0.457588
vn -0.098235 0.887118 -0.450967
vn -0.126579 0.327405 -0.936367
vn -0.394557 0.391185 -0.831444
vn -0.414759 0.394864 -0.819791
vn -0.759558 0.420161 -0.496524
vn -0.837200 0.528270 0.141516
vn -0.840894 0.524690 0.132656
vn -0.843774 0.521799 0.125586
vn -0.846278 0.519208 0.119316
vn -0.879061 0.463838 0.110025
vn -0.808819 0.560895 -0.176658
vn -0.861492 0.507766 -0.002397
vn -0.744839 0.589170 -0.313198
vn 0.309902 0.106882 -0.944742
vn 0.393395 -0.021721 -0.919113
vn 0.429136 -0.081600 -0.899546
vn 0.464278 -0.144081 -0.873892
vn 0.934258 0.116711 -0.336958
vn 0.387194 -0.068023 -0.919486
vn 0.443679 -0.054204 -0.894545
vn 0.280494 -0.092455 -0.955393
vn 0.040821 -0.081971 -0.995798
vn 0.050314 -0.086790 -0.994955
vn 0.064168 -0.093809 -0.993520
vn 0.069397 -0.096455 -0.992915
vn 0.000000 0.441162 -0.897428
vn 0.000000 0.441161 -0.897428
vn 0.114084 0.385080 -0.915805
vn 0.235498 0.296331 -0.925596
vn 0.240635 0.205113 -0.948696
vn 0.060519 0.087847 -0.994294
vn 0.000000 0.449380 -0.893341
vn 0.105824 0.334791 -0.936331
vn 0.168573 0.243905 -0.955036
vn 0.185461 0.194018 -0.963307
vn 0.077372 0.132101 -0.988212
vn -0.180797 0.155622 -0.971130
vn -0.302204 0.232798 -0.924380
vn 0.839096 0.543983 0.000000
vn 0.838375 0.545091 -0.001746
vn 0.838369 0.544893 -0.015170
vn 0.846213 0.529374 -0.060727
vn 0.859942 0.473270 -0.191092
vn 0.891325 0.449812 0.056654
vn 0.863134 0.504266 -0.026761
vn 0.990311 -0.135457 -0.030571
vn 0.926214 -0.225630 -0.302026
vn 0.976507 -0.170392 -0.131909
vn 0.922200 -0.228681 -0.311853
vn 0.974170 -0.221626 -0.043303
vn 0.971984 -0.214324 -0.096498
vn 0.935638 -0.179356 -0.303995
vn 0.747235 -0.090172 -0.658414
vn 0.845868 -0.181748 -0.501473
vn 0.937045 -0.079258 -0.340094
vn 0.868093 -0.160981 -0.469574
vn 0.988658 0.143961 0.042785
vn 0.847151 -0.232950 0.477566
vn 0.856798 -0.226625 0.463183
vn 0.948700 -0.145731 0.280590
vn 0.989270 -0.075966 0.124798
vn 0.986287 0.025765 0.163016
vn 0.931765 0.102347 0.348338
vn 0.966881 0.060627 0.247921
vn 0.877816 0.147608 0.455688
vn 0.984989 0.125735 -0.118265
vn 0.957102 -0.078911 0.278800
vn 0.869763 -0.177480 0.460450
vn 0.843366 -0.198989 0.499137
vn -0.955631 0.294568 0.000000
vn -0.907109 0.391450 0.154663
vn -0.546602 0.569488 0.613930
vn -0.384906 0.499005 0.776429
vn -0.308117 0.326200 0.893676
vn -0.915680 0.387750 -0.105736
vn -0.921928 0.362050 -0.137729
vn -0.692750 0.311844 0.650270
vn -0.692439 0.336727 0.638078
vn -0.692437 0.336823 0.638029
vn -0.691470 0.364085 0.623948
vn -0.711626 0.367192 0.598965
vn -0.872504 0.270010 0.407224
vn -0.874283 0.268534 0.404375
vn -0.928402 0.215407 0.302771
vn -0.981321 -0.139246 0.132742
vn -0.996227 -0.086781 0.000839
vn -0.985957 -0.128847 0.106241
vn -0.996220 -0.061395 -0.061449
vn -0.860209 0.289290 -0.419943
vn -0.850091 0.190017 -0.491160
vn -0.844497 0.159334 -0.511309
vn -0.828990 0.094301 -0.551256
vn -0.936579 -0.124646 -0.327541
vn -0.963986 -0.149407 -0.220018
vn -0.949711 -0.135368 -0.282355
vn -0.968878 -0.155276 -0.192783
vn -0.988235 -0.147166 0.041631
vn -0.988257 -0.145303 0.047280
vn -0.988171 -0.140928 0.060478
vn -0.988099 -0.139442 0.064939
s 1
g TallRock_Collision
f 28/36/1 13/17/2 26/34/3
f 26/34/3 13/17/2 1/1/4
s 2
f 33/41/5 17/21/6 29/37/7
f 29/37/7 17/21/6 30/38/8
s 3
f 38/46/9 21/25/10 34/42/11
f 34/42/11 21/25/10 35/43/12
s 4
f 43/50/13 11/15/14 41/48/15
f 41/48/15 11/15/14 2/2/16
s 5
f 45/53/17 21/33/18 44/51/19
f 44/51/19 21/33/18 7/11/20
s 6
f 46/54/21 10/14/22 47/55/23
s 7
f 48/56/24 11/15/25 49/57/26
f 49/57/26 11/15/25 50/58/27
s 8
f 52/60/28 12/16/29 53/61/30
f 53/61/30 12/16/29 31/39/31
s 9
f 32/40/32 12/16/33 55/63/34
f 55/63/34 12/16/33 51/59/35
s 10
f 57/65/36 15/19/37 58/66/38
f 58/66/38 15/19/37 59/67/39
s 11
f 61/69/40 16/20/41 62/70/42
f 62/70/42 16/20/41 36/44/43
s 12
f 37/45/44 16/20/45 64/72/46
f 64/72/46 16/20/45 60/68/47
s 13
f 66/74/48 19/23/49 67/75/50
f 67/75/50 19/23/49 8/8/51
s 14
f 69/77/52 20/24/53 40/47/54
s 15
f 72/78/55 22/27/56 70/79/57
s 16
f 73/80/58 19/28/59 74/81/60
f 74/81/60 19/28/59 65/82/61
s 17
f 75/84/62 15/29/63 76/85/64
f 76/85/64 15/29/63 56/86/65
s 18
f 77/87/66 23/31/67 71/88/68
s 19
f 78/89/69 13/17/70 79/90/71
f 79/90/71 13/17/70 54/62/72
s 20
f 80/92/73 17/32/74 81/93/75
f 81/93/75 17/32/74 63/94/76
s 1
f 26/34/3 1/1/4 27/35/77
s 21
f 27/35/78 10/14/79 26/34/80
f 26/34/80 10/14/79 9/13/81
f 26/34/80 9/13/81 28/36/82
s 22
f 30/38/83 3/3/84 29/37/85
f 29/37/85 3/3/84 31/39/86
s 23
f 31/39/87 12/16/88 29/37/89
f 29/37/89 12/16/88 32/40/90
s 24
f 32/40/91 14/18/92 29/37/93
f 29/37/93 14/18/92 33/41/94
s 25
f 35/43/95 5/5/96 34/42/97
f 34/42/97 5/5/96 36/44/98
s 26
f 36/44/99 16/20/100 34/42/101
f 34/42/101 16/20/100 37/45/102
s 27
f 37/45/103 18/22/104 34/42/105
f 34/42/105 18/22/104 38/46/106
s 4
f 41/48/15 2/2/16 42/49/107
s 28
f 42/49/108 22/27/109 41/48/110
f 41/48/110 22/27/109 24/26/111
f 41/48/110 24/26/111 43/50/112
s 5
f 44/51/19 7/11/20 39/52/113
s 29
f 39/52/114 23/31/115 44/51/116
f 44/51/116 23/31/115 25/30/117
f 44/51/116 25/30/117 45/53/118
s 30
f 47/55/119 2/2/120 46/54/121
f 46/54/121 2/2/120 11/15/122
f 46/54/121 11/15/122 48/56/123
s 6
f 48/56/124 9/13/125 46/54/21
f 46/54/21 9/13/125 10/14/22
s 31
f 50/58/126 4/4/127 49/57/128
f 49/57/128 4/4/127 51/59/129
s 32
f 51/59/130 12/16/131 49/57/132
f 49/57/132 12/16/131 52/60/133
s 33
f 52/60/134 9/13/135 49/57/136
f 49/57/136 9/13/135 48/56/137
s 34
f 31/39/138 3/3/139 53/61/140
f 53/61/140 3/3/139 54/62/141
s 35
f 54/62/142 13/17/143 53/61/144
f 53/61/144 13/17/143 28/36/145
s 36
f 28/36/146 9/13/147 53/61/148
f 53/61/148 9/13/147 52/60/149
s 37
f 51/59/150 4/4/151 55/63/152
f 55/63/152 4/4/151 56/64/153
s 38
f 56/64/154 15/19/155 55/63/156
f 55/63/156 15/19/155 57/65/157
s 39
f 57/65/158 14/18/159 55/63/160
f 55/63/160 14/18/159 32/40/161
s 40
f 59/67/162 6/6/163 58/66/164
f 58/66/164 6/6/163 60/68/165
s 41
f 60/68/166 16/20/167 58/66/168
f 58/66/168 16/20/167 61/69/169
s 42
f 61/69/170 14/18/171 58/66/172
f 58/66/172 14/18/171 57/65/173
s 43
f 36/44/174 5/5/175 62/70/176
f 62/70/176 5/5/175 63/71/177
s 44
f 63/71/178 17/21/179 62/70/180
f 62/70/180 17/21/179 33/41/181
s 45
f 33/41/182 14/18/183 62/70/184
f 62/70/184 14/18/183 61/69/185
s 46
f 60/68/186 6/6/187 64/72/188
f 64/72/188 6/6/187 65/73/189
s 47
f 65/73/190 19/23/191 64/72/192
f 64/72/192 19/23/191 66/74/193
s 48
f 66/74/194 18/22/195 64/72/196
f 64/72/196 18/22/195 37/45/197
s 13
f 67/75/50 8/8/51 68/76/198
s 49
f 68/76/199 20/24/200 67/75/201
f 67/75/201 20/24/200 18/22/202
f 67/75/201 18/22/202 66/74/203
s 50
f 40/47/204 7/7/205 69/77/206
f 69/77/206 7/7/205 21/25/207
f 69/77/206 21/25/207 38/46/208
s 14
f 38/46/209 18/22/210 69/77/52
f 69/77/52 18/22/210 20/24/53
s 51
f 70/79/211 8/9/212 72/78/213
f 72/78/213 8/9/212 19/28/214
f 72/78/213 19/28/214 73/80/215
s 15
f 73/80/216 24/26/217 72/78/55
f 72/78/55 24/26/217 22/27/56
s 52
f 65/82/218 6/10/219 74/81/220
f 74/81/220 6/10/219 59/83/221
s 53
f 59/83/222 15/29/223 74/81/224
f 74/81/224 15/29/223 75/84/225
s 54
f 75/84/226 24/26/227 74/81/228
f 74/81/228 24/26/227 73/80/229
s 55
f 56/86/230 4/4/231 76/85/232
f 76/85/232 4/4/231 50/58/233
s 56
f 50/58/234 11/15/235 76/85/236
f 76/85/236 11/15/235 43/50/237
s 57
f 43/50/238 24/26/239 76/85/240
f 76/85/240 24/26/239 75/84/241
s 58
f 71/88/242 1/1/243 77/87/244
f 77/87/244 1/1/243 13/17/245
f 77/87/244 13/17/245 78/89/246
s 18
f 78/89/247 25/30/248 77/87/66
f 77/87/66 25/30/248 23/31/67
s 59
f 54/62/249 3/3/250 79/90/251
f 79/90/251 3/3/250 30/91/252
s 60
f 30/91/253 17/32/254 79/90/255
f 79/90/255 17/32/254 80/92/256
s 61
f 80/92/257 25/30/258 79/90/259
f 79/90/259 25/30/258 78/89/260
s 62
f 63/94/261 5/12/262 81/93/263
f 81/93/263 5/12/262 35/95/264
s 63
f 35/95/265 21/33/266 81/93/267
f 81/93/267 21/33/266 45/53/268
s 64
f 45/53/269 25/30/270 81/93/271
f 81/93/271 25/30/270 80/92/272
