# This file uses centimeters as units for non-parametric coordinates.

mtllib Lever Base 2.mtl
g default
v -0.606662 1.138288 -8.228618
v -0.626499 2.417212 -7.432927
v -0.638843 0.010084 -8.546413
v -0.629698 3.373765 -6.106310
v -0.634975 3.738784 -4.444868
v -0.638843 3.446026 -3.028346
v -0.633967 2.800166 -1.901558
v -0.593418 1.985579 -0.949402
v -0.638843 0.010069 -0.009714
v -0.638843 1.060213 -0.305396
v 0.032219 1.130670 -8.219232
v 0.012436 2.412330 -7.427424
v 0.000093 0.005200 -6.948390
v 0.000038 0.002466 -8.537027
v 0.009293 3.372131 -6.104845
v 0.000149 0.008447 -5.752750
v 0.004019 3.738024 -4.443757
v 0.000151 0.009319 -4.523354
v 0.000152 3.445661 -3.028639
v 0.000152 0.009713 -3.361745
v 0.004921 2.797984 -1.910312
v 0.000045 0.007894 -2.273422
v 0.045394 1.978530 -0.952549
v -0.000030 0.003023 -1.396971
v -0.000000 1.050143 -0.295682
v -0.000000 -0.000000 0.000000
v -0.629513 1.829581 -7.315985
v -0.614518 0.862870 -8.306199
v 0.024363 0.855251 -8.296812
v 0.009423 1.824699 -7.310481
v 0.007061 2.550985 -6.018891
v 0.003075 2.827769 -4.463189
v 0.000152 2.606874 -3.109957
v 0.003731 2.116864 -1.998954
v 0.034305 1.496267 -1.061042
v -0.000000 0.793782 -0.223499
v -0.638843 0.803850 -0.233214
v -0.604508 1.503317 -1.057894
v -0.635158 2.119046 -1.990201
v -0.638843 2.607239 -3.109665
v -0.635919 2.828529 -4.464300
v -0.631931 2.552620 -6.020356
v -1.909593 1.138288 -8.228618
v -1.929431 2.417212 -7.432927
v -1.941774 0.010082 -6.953894
v -1.941774 0.010084 -8.546413
v -1.932630 3.373765 -6.106310
v -1.941774 0.010081 -5.754215
v -1.937906 3.738784 -4.444868
v -1.941774 0.010079 -4.524465
v -1.941774 0.010078 -3.361453
v -1.941774 3.446026 -3.028346
v -1.936899 2.800166 -1.901558
v -1.941774 0.010076 -2.264668
v -1.941774 0.010073 -1.393824
v -1.896350 1.985579 -0.949402
v -1.941774 0.010069 -0.009714
v -1.941774 1.060213 -0.305396
v -1.270712 1.130670 -8.219232
v -1.290495 2.412330 -7.427424
v -1.302893 0.002466 -8.537027
v -1.293638 3.372131 -6.104845
v -1.298912 3.738024 -4.443757
v -1.302780 3.445661 -3.028639
v -1.298010 2.797984 -1.910312
v -1.257538 1.978530 -0.952549
v -1.302932 1.050143 -0.295682
v -1.302932 -0.000000 0.000000
v -1.932444 1.829581 -7.315985
v -1.917449 0.862870 -8.306199
v -1.278569 0.855251 -8.296812
v -1.293509 1.824699 -7.310481
v -1.295871 2.550985 -6.018891
v -1.299857 2.827769 -4.463189
v -1.302780 2.606874 -3.109957
v -1.299201 2.116864 -1.998954
v -1.268627 1.496267 -1.061042
v -1.302932 0.793782 -0.223499
v -1.941774 0.803850 -0.233214
v -1.907439 1.503317 -1.057894
v -1.938089 2.119046 -1.990201
v -1.941774 2.607239 -3.109665
v -1.938850 2.828529 -4.464300
v -1.934862 2.552620 -6.020356
v -1.932044 0.317885 -8.450328
v -1.938042 0.317889 -7.098730
v -1.939010 0.317892 -5.860672
v -1.940605 0.317893 -4.500399
v -1.941774 0.317893 -3.260738
v -1.940300 0.317890 -2.154881
v -1.928040 0.317887 -1.259452
v -1.941774 0.317885 -0.099114
v -1.302932 0.317885 -0.089400
v -1.289228 0.317887 -1.262599
v -1.301412 0.317890 -2.163635
v -1.302780 0.317893 -3.261030
v -1.301611 0.317894 -4.499288
v -1.300018 0.317893 -5.859207
v -1.299107 0.317889 -7.093226
v -1.293164 0.317885 -8.440941
v -0.629112 0.337014 -8.450328
v -0.635110 0.337017 -7.098730
v -0.636078 0.337020 -5.860672
v -0.637673 0.337022 -4.500399
v -0.638843 0.337020 -3.260738
v -0.637368 0.337018 -2.154881
v -0.625109 0.337016 -1.259452
v -0.638843 0.337013 -0.099114
v -0.000000 0.337013 -0.089400
v 0.013704 0.337016 -1.262599
v 0.001520 0.337018 -2.163635
v 0.000152 0.337020 -3.261030
v 0.001320 0.337020 -4.499288
v 0.002914 0.337019 -5.859207
v 0.003824 0.337017 -7.093226
v 0.009769 0.337013 -8.440941
vt 0.060416 0.020775
vt 0.121666 0.083093
vt 0.027673 0.096819
vt 0.027672 0.011669
vt 0.077817 0.025677
vt 0.158794 0.075704
vt 0.027673 0.174786
vt 0.167554 0.164697
vt 0.006708 0.105970
vt 0.006535 0.005598
vt 0.219435 0.159266
vt 0.006913 0.181512
vt 0.027673 0.260708
vt 0.185042 0.262988
vt 0.242552 0.264216
vt 0.006968 0.259187
vt 0.171085 0.348488
vt 0.027673 0.338943
vt 0.224081 0.353625
vt 0.006993 0.332579
vt 0.027673 0.408277
vt 0.140126 0.418682
vt 0.183160 0.424283
vt 0.006878 0.401341
vt 0.100916 0.477941
vt 0.027673 0.465206
vt 0.131386 0.484795
vt 0.006570 0.456716
vt 0.056531 0.530858
vt 0.027672 0.539330
vt 0.072729 0.526297
vt 0.006380 0.544979
vt 0.653169 0.850789
vt 0.653170 0.772570
vt 0.793150 0.782658
vt 0.747469 0.864515
vt 0.653170 0.686628
vt 0.810582 0.684348
vt 0.845029 0.788089
vt 0.784595 0.871904
vt 0.796601 0.598762
vt 0.653170 0.608307
vt 0.868091 0.683120
vt 0.849595 0.593625
vt 0.653169 0.538440
vt 0.765757 0.528035
vt 0.808790 0.522435
vt 0.726855 0.469132
vt 0.653169 0.481867
vt 0.757325 0.462278
vt 0.653170 0.152282
vt 0.653170 0.074318
vt 0.748369 0.060592
vt 0.794255 0.142194
vt 0.785495 0.053204
vt 0.846135 0.136763
vt 0.653170 0.238202
vt 0.811743 0.240482
vt 0.869252 0.241710
vt 0.797787 0.325979
vt 0.653170 0.316434
vt 0.850780 0.331116
vt 0.653170 0.385767
vt 0.766828 0.396171
vt 0.809860 0.401772
vt 0.727619 0.455428
vt 0.653169 0.442694
vt 0.758088 0.462283
vt 0.358603 0.467218
vt 0.297525 0.529781
vt 0.263092 0.538888
vt 0.263093 0.453492
vt 0.314926 0.524880
vt 0.395731 0.474607
vt 0.243645 0.544958
vt 0.243645 0.444341
vt 0.263093 0.375270
vt 0.404286 0.385359
vt 0.456167 0.390789
vt 0.243645 0.368544
vt 0.263093 0.289326
vt 0.421718 0.287045
vt 0.479229 0.285817
vt 0.243645 0.290846
vt 0.407737 0.201457
vt 0.263093 0.211002
vt 0.460733 0.196319
vt 0.243645 0.217365
vt 0.263093 0.141133
vt 0.376892 0.130728
vt 0.419926 0.125127
vt 0.243644 0.148069
vt 0.337989 0.071823
vt 0.263092 0.084558
vt 0.368459 0.064969
vt 0.243644 0.093048
vt 0.293796 0.019719
vt 0.263092 0.011247
vt 0.309994 0.024280
vt 0.243644 0.005598
vt 0.594967 0.510716
vt 0.594509 0.366287
vt 0.650057 0.366190
vt 0.650515 0.510589
vt 0.594173 0.243149
vt 0.649720 0.243174
vt 0.595246 0.626039
vt 0.650788 0.625560
vt 0.594597 0.145197
vt 0.650135 0.145958
vt 0.596970 0.695208
vt 0.652508 0.694392
vt 0.598121 0.062426
vt 0.653653 0.062700
vt 0.539244 0.694392
vt 0.537524 0.625560
vt 0.594173 0.006442
vt 0.649707 0.005598
vt 0.483706 0.695208
vt 0.481982 0.626039
vt 0.540389 0.062700
vt 0.536443 0.005598
vt 0.481704 0.510716
vt 0.537251 0.510589
vt 0.484858 0.062426
vt 0.480909 0.006442
vt 0.481245 0.366287
vt 0.536793 0.366190
vt 0.481333 0.145197
vt 0.536871 0.145958
vt 0.480909 0.243149
vt 0.536457 0.243174
vt 0.240964 0.398205
vt 0.240189 0.454787
vt 0.198228 0.455340
vt 0.198998 0.398404
vt 0.240096 0.524667
vt 0.198141 0.524685
vt 0.240170 0.603002
vt 0.198215 0.602932
vt 0.240271 0.688958
vt 0.198316 0.688866
vt 0.240332 0.767192
vt 0.198373 0.766844
vt 0.174990 0.491892
vt 0.174990 0.533036
vt 0.141124 0.532096
vt 0.141615 0.490951
vt 0.196044 0.533663
vt 0.196535 0.492518
vt 0.176222 0.575802
vt 0.141615 0.574862
vt 0.123387 0.531590
vt 0.123878 0.490446
vt 0.196535 0.576428
vt 0.176222 0.616946
vt 0.141124 0.616006
vt 0.123878 0.574356
vt 0.196044 0.617573
vt 0.123387 0.615500
vt 0.460521 0.455626
vt 0.461169 0.496765
vt 0.431107 0.496765
vt 0.431107 0.455626
vt 0.477678 0.496765
vt 0.477030 0.455626
vt 0.460521 0.539530
vt 0.429875 0.539530
vt 0.410053 0.496765
vt 0.409404 0.455626
vt 0.477030 0.539530
vt 0.461169 0.580669
vt 0.429875 0.580669
vt 0.409404 0.539530
vt 0.477678 0.580669
vt 0.410053 0.580669
vt 0.453751 0.005598
vt 0.453044 0.036334
vt 0.410717 0.036784
vt 0.411424 0.006048
vt 0.451731 0.110667
vt 0.409404 0.111886
vt 0.867652 0.376083
vt 0.868008 0.470991
vt 0.825786 0.470681
vt 0.825430 0.374866
vt 0.868199 0.508358
vt 0.825977 0.508047
vn 0.999852 -0.009687 0.014242
vn 0.999706 -0.010237 0.021969
vn 0.999870 -0.013401 0.008961
vn 0.999870 -0.013459 0.008901
vn 0.999992 -0.003690 0.001712
vn 0.999993 -0.003166 0.001829
vn 0.999994 -0.002579 0.002448
vn 0.999992 -0.002725 0.002895
vn 0.999997 -0.001694 0.001880
vn 0.999997 -0.001609 0.001906
vn 0.999996 -0.001337 0.002347
vn 0.999996 -0.001376 0.002437
vn 0.999998 -0.000508 0.001796
vn 0.999998 -0.000494 0.001749
vn 0.999999 -0.000559 0.001448
vn 0.999999 -0.000601 0.001418
vn 0.999998 -0.000544 -0.002137
vn 0.999998 -0.000643 -0.002036
vn 0.999996 -0.000357 -0.002926
vn 0.999996 -0.000361 -0.002658
vn 0.999484 -0.004238 -0.031832
vn 0.999595 -0.004466 -0.028101
vn 0.999723 -0.006632 -0.022576
vn 0.999747 -0.007994 -0.021023
vn 0.999561 -0.014844 0.025641
vn 0.999698 -0.013787 0.020354
vn 0.999774 -0.016650 0.013228
vn 0.999774 -0.016615 0.013296
vn -0.999995 0.002422 -0.002027
vn -0.999995 0.002422 -0.002027
vn -0.999992 0.002719 -0.002919
vn -0.999994 0.002572 -0.002479
vn -0.999997 0.001200 -0.002028
vn -0.999997 0.001200 -0.002028
vn -0.999996 0.001375 -0.002437
vn -0.999996 0.001337 -0.002347
vn -0.999998 0.000493 -0.001748
vn -0.999998 0.000508 -0.001794
vn -0.999999 0.000429 -0.001541
vn -0.999999 0.000429 -0.001541
vn -0.999997 0.000359 0.002397
vn -0.999997 0.000359 0.002397
vn -0.999996 0.000354 0.002732
vn -0.999995 0.000351 0.002994
vn -0.999589 0.004425 0.028316
vn -0.999477 0.004197 0.032051
vn -0.999676 0.004626 0.025028
vn -0.999676 0.004626 0.025028
vn 0.015509 0.488584 -0.872379
vn 0.011228 0.688054 -0.725573
vn 0.011264 0.686730 -0.726825
vn 0.015507 0.488768 -0.872276
vn 0.015756 0.270559 -0.962574
vn 0.015756 0.270805 -0.962505
vn 0.016298 0.267369 -0.963456
vn 0.016317 0.267425 -0.963440
vn 0.004843 0.914275 -0.405064
vn 0.004848 0.914115 -0.405426
vn 0.001594 0.999722 -0.023518
vn 0.001595 0.999714 -0.023840
vn 0.002909 0.937858 0.347006
vn 0.002909 0.937837 0.347064
vn 0.008372 0.817855 0.575364
vn 0.008407 0.817258 0.576211
vn 0.007788 0.677392 0.735581
vn 0.007783 0.677287 0.735678
vn -0.011689 0.276097 0.961059
vn -0.011666 0.276009 0.961084
vn -0.012500 0.271028 0.962490
vn -0.012501 0.270980 0.962504
vn 0.000859 0.521146 0.853467
vn 0.000857 0.521099 0.853496
vn 0.999377 -0.011059 0.033515
vn 0.999377 -0.011059 0.033515
vn 0.999987 -0.003129 0.004124
vn 0.999987 -0.003129 0.004124
vn 0.999993 -0.001711 0.003220
vn 0.999993 -0.001711 0.003220
vn 0.999997 -0.000675 0.002328
vn 0.999997 -0.000675 0.002328
vn 0.999992 -0.000345 -0.003921
vn 0.999992 -0.000345 -0.003921
vn 0.999182 -0.003721 -0.040275
vn 0.999182 -0.003721 -0.040275
vn 0.999246 -0.016723 0.035039
vn 0.999246 -0.016723 0.035039
vn -0.999171 0.003677 0.040541
vn -0.999171 0.003677 0.040541
vn -0.999992 0.000338 0.003982
vn -0.999992 0.000338 0.003982
vn -0.999997 0.000674 -0.002326
vn -0.999997 0.000674 -0.002326
vn -0.999993 0.001711 -0.003220
vn -0.999993 0.001711 -0.003220
vn -0.999987 0.003127 -0.004145
vn -0.999987 0.003127 -0.004145
vn 0.999995 -0.002406 0.001988
vn 0.999995 -0.002406 0.001988
vn 0.999994 -0.002559 0.002439
vn 0.999992 -0.002710 0.002886
vn 0.999997 -0.001192 0.002027
vn 0.999997 -0.001192 0.002027
vn 0.999996 -0.001330 0.002344
vn 0.999996 -0.001369 0.002434
vn 0.999998 -0.000505 0.001794
vn 0.999998 -0.000491 0.001748
vn 0.999999 -0.000426 0.001543
vn 0.999999 -0.000426 0.001543
vn 0.999997 -0.000362 -0.002320
vn 0.999997 -0.000362 -0.002320
vn 0.999996 -0.000355 -0.002923
vn 0.999996 -0.000358 -0.002655
vn 0.999486 -0.004209 -0.031777
vn 0.999597 -0.004423 -0.028050
vn 0.999682 -0.004609 -0.024800
vn 0.999682 -0.004609 -0.024800
vn -0.999713 0.010097 -0.021728
vn -0.999855 0.009468 -0.014124
vn -0.999866 0.013632 -0.009093
vn -0.999866 0.013595 -0.009126
vn -0.999993 0.003134 -0.001871
vn -0.999992 0.003703 -0.001755
vn -0.999992 0.002703 -0.002910
vn -0.999994 0.002552 -0.002470
vn -0.999997 0.001599 -0.001915
vn -0.999997 0.001691 -0.001889
vn -0.999996 0.001368 -0.002434
vn -0.999996 0.001329 -0.002344
vn -0.999998 0.000491 -0.001747
vn -0.999998 0.000505 -0.001793
vn -0.999999 0.000601 -0.001424
vn -0.999999 0.000557 -0.001454
vn -0.999997 0.000637 0.002128
vn -0.999997 0.000533 0.002228
vn -0.999996 0.000352 0.002729
vn -0.999995 0.000349 0.002990
vn -0.999591 0.004382 0.028266
vn -0.999479 0.004168 0.031997
vn -0.999738 0.008015 0.021427
vn -0.999715 0.006534 0.022967
vn -0.999695 0.013381 -0.020776
vn -0.999553 0.014582 -0.026088
vn -0.999759 0.016916 -0.013958
vn -0.999760 0.016934 -0.013931
vn 0.015509 0.488584 -0.872379
vn 0.011228 0.688054 -0.725573
vn 0.011264 0.686730 -0.726825
vn 0.015507 0.488769 -0.872276
vn 0.015756 0.270330 -0.962639
vn 0.015757 0.271037 -0.962440
vn 0.016276 0.261494 -0.965068
vn 0.016293 0.261643 -0.965027
vn 0.004843 0.914275 -0.405064
vn 0.004848 0.914115 -0.405426
vn 0.001594 0.999722 -0.023517
vn 0.001595 0.999714 -0.023840
vn 0.002909 0.937858 0.347006
vn 0.002909 0.937837 0.347064
vn 0.008372 0.817855 0.575363
vn 0.008407 0.817258 0.576211
vn 0.007788 0.677392 0.735581
vn 0.007783 0.677287 0.735677
vn -0.011789 0.269404 0.962955
vn -0.011765 0.269431 0.962948
vn -0.012501 0.270996 0.962499
vn -0.012500 0.271012 0.962495
vn 0.000859 0.521147 0.853467
vn 0.000857 0.521099 0.853496
vn -0.999381 0.011063 -0.033403
vn -0.999381 0.011063 -0.033403
vn 0.999987 -0.003130 0.004124
vn 0.999987 -0.003130 0.004124
vn 0.999993 -0.001711 0.003220
vn 0.999993 -0.001711 0.003220
vn 0.999997 -0.000674 0.002328
vn 0.999997 -0.000674 0.002328
vn 0.999992 -0.000345 -0.003921
vn 0.999992 -0.000345 -0.003921
vn 0.999182 -0.003723 -0.040275
vn 0.999182 -0.003723 -0.040275
vn -0.999221 0.016758 -0.035725
vn -0.999221 0.016758 -0.035725
vn -0.999171 0.003677 0.040541
vn -0.999171 0.003677 0.040541
vn -0.999992 0.000338 0.003982
vn -0.999992 0.000338 0.003982
vn -0.999997 0.000674 -0.002326
vn -0.999997 0.000674 -0.002326
vn -0.999993 0.001711 -0.003220
vn -0.999993 0.001711 -0.003220
vn -0.999987 0.003127 -0.004145
vn -0.999987 0.003127 -0.004145
vn -0.999762 0.021701 -0.002037
vn -0.999762 0.021701 -0.002037
vn -0.999946 0.010389 -0.000397
vn -0.999946 0.010389 -0.000397
vn -0.999980 0.006308 -0.000616
vn -0.999980 0.006308 -0.000616
vn -0.999998 0.001999 -0.000487
vn -0.999998 0.001999 -0.000487
vn -0.999997 0.002166 0.000669
vn -0.999997 0.002166 0.000669
vn -0.999735 0.021943 0.006939
vn -0.999735 0.021943 0.006939
vn -0.999728 0.022697 -0.005396
vn -0.999728 0.022697 -0.005396
vn -0.012455 0.274740 0.961438
vn -0.012455 0.274740 0.961438
vn 0.015794 0.294175 -0.955621
vn 0.015794 0.294175 -0.955621
vn -0.012633 0.260010 0.965523
vn -0.012633 0.260010 0.965523
vn 0.999769 -0.020819 0.005294
vn 0.999769 -0.020819 0.005294
vn 0.999768 -0.020398 -0.006866
vn 0.999768 -0.020398 -0.006866
vn 0.999998 -0.002060 -0.000579
vn 0.999998 -0.002060 -0.000579
vn 0.999998 -0.001879 0.000487
vn 0.999998 -0.001879 0.000487
vn 0.999982 -0.005917 0.000616
vn 0.999982 -0.005917 0.000616
vn 0.999953 -0.009699 0.000365
vn 0.999953 -0.009699 0.000365
vn 0.999797 -0.020053 0.002024
vn 0.999797 -0.020053 0.002024
vn 0.015770 0.278521 -0.960301
vn 0.015770 0.278521 -0.960301
vn -0.014487 0.526707 -0.849923
vn -0.014487 0.526707 -0.849923
vn -0.014487 0.526707 -0.849923
vn -0.014487 0.526707 -0.849923
vn -0.016717 0.271536 -0.962283
vn -0.016717 0.271536 -0.962283
vn -0.016717 0.271536 -0.962283
vn -0.016717 0.271536 -0.962283
vn -0.018918 0.262108 -0.964853
vn -0.018918 0.262108 -0.964853
vn -0.018918 0.262108 -0.964853
vn -0.018918 0.262108 -0.964853
vn -0.019319 0.287101 -0.957705
vn -0.019319 0.287101 -0.957705
vn -0.019319 0.287101 -0.957705
vn -0.019319 0.287101 -0.957705
vn 0.008222 0.267192 0.963608
vn 0.008222 0.267192 0.963608
vn 0.008222 0.267192 0.963608
vn 0.008222 0.267192 0.963608
vn 0.008055 0.273625 0.961803
vn 0.008055 0.273624 0.961803
vn 0.008055 0.273625 0.961803
vn 0.008055 0.273624 0.961803
vn 0.009971 0.271010 0.962525
vn 0.009971 0.271010 0.962525
vn 0.009971 0.271010 0.962525
vn 0.009971 0.271010 0.962525
vn -0.003358 0.574531 0.818476
vn -0.003358 0.574531 0.818476
vn -0.003358 0.574531 0.818476
vn -0.003358 0.574531 0.818476
vn 0.002294 0.219430 -0.975626
vn 0.002294 0.219430 -0.975626
vn 0.002294 0.219430 -0.975626
vn 0.002294 0.219430 -0.975626
vn 0.001332 0.169419 -0.985543
vn 0.001332 0.169419 -0.985543
vn 0.001332 0.169419 -0.985543
vn 0.001332 0.169419 -0.985543
vn -0.028796 0.999585 0.000396
vn -0.028796 0.999585 0.000396
vn -0.028796 0.999585 0.000396
vn -0.028796 0.999585 0.000396
vn -0.028796 0.999585 0.000040
vn -0.028796 0.999585 0.000040
vn -0.028796 0.999585 0.000040
vn -0.028796 0.999585 0.000040
vn -0.028798 0.999585 -0.000027
vn -0.028798 0.999585 -0.000027
vn -0.028798 0.999585 -0.000027
vn -0.028798 0.999585 -0.000027
vn -0.028798 0.999585 -0.000033
vn -0.028798 0.999585 -0.000033
vn -0.028798 0.999585 -0.000033
vn -0.028798 0.999585 -0.000033
vn -0.028797 0.999585 -0.000025
vn -0.028797 0.999585 -0.000025
vn -0.028797 0.999585 -0.000025
vn -0.028797 0.999585 -0.000025
vn 0.005612 0.143347 0.989657
vn 0.005612 0.143347 0.989657
vn 0.005612 0.143347 0.989657
vn 0.005612 0.143347 0.989657
vn 0.006695 0.195142 0.980752
vn 0.006695 0.195142 0.980752
vn 0.006695 0.195142 0.980752
vn 0.006695 0.195142 0.980752
s 1
g Lever_Base
usemtl initialShadingGroup
f 29/1/1 30/2/2 115/3/3 116/4/4
s 2
f 114/7/5 115/3/6 30/2/7 31/8/8
s 3
f 113/13/9 114/7/10 31/8/11 32/14/12
s 4
f 32/14/13 33/17/14 112/18/15 113/13/16
s 5
f 111/21/17 112/18/18 33/17/19 34/22/20
s 6
f 34/22/21 35/25/22 110/26/23 111/21/24
s 7
f 35/25/25 36/29/26 109/30/27 110/26/28
s 8
f 102/33/29 103/34/30 42/35/31 27/36/32
s 9
f 103/34/33 104/37/34 41/38/35 42/35/36
s 10
f 40/41/37 41/38/38 104/37/39 105/42/40
s 11
f 105/42/41 106/45/42 39/46/43 40/41/44
s 12
f 38/48/45 39/46/46 106/45/47 107/49/48
s 13
f 1/111/49 2/107/50 12/108/51 11/112/52
f 116/145/53 101/146/54 28/147/55 29/148/56
f 2/107/50 4/101/57 15/104/58 12/108/51
f 4/101/57 5/102/59 17/103/60 15/104/58
f 5/102/59 6/105/61 19/106/62 17/103/60
f 6/105/61 7/109/63 21/110/64 19/106/62
f 7/109/63 8/113/65 23/114/66 21/110/64
f 36/161/67 37/162/68 108/163/69 109/164/70
f 8/113/65 10/117/71 25/118/72 23/114/66
f 29/148/56 28/147/55 1/153/49 11/154/52
s 1
f 11/5/73 12/6/74 30/2/2 29/1/1
s 2
f 31/8/8 30/2/7 12/6/75 15/11/76
s 3
f 32/14/12 31/8/11 15/11/77 17/15/78
s 4
f 19/19/79 33/17/14 32/14/13 17/15/80
s 5
f 34/22/20 33/17/19 19/19/81 21/23/82
s 6
f 23/27/83 35/25/22 34/22/21 21/23/84
s 7
f 25/31/85 36/29/26 35/25/25 23/27/86
s 13
f 10/165/71 37/162/68 36/161/67 25/166/72
s 12
f 8/50/87 7/47/88 39/46/46 38/48/45
s 11
f 40/41/44 39/46/43 7/47/89 6/44/90
s 10
f 6/44/91 5/43/92 41/38/38 40/41/37
s 9
f 42/35/36 41/38/35 5/43/93 4/39/94
s 8
f 27/36/32 42/35/31 4/39/95 2/40/96
s 16
f 98/51/97 99/52/98 72/53/99 73/54/100
s 17
f 97/57/101 98/51/102 73/54/103 74/58/104
s 18
f 74/58/105 75/60/106 96/61/107 97/57/108
s 19
f 95/63/109 96/61/110 75/60/111 76/64/112
s 20
f 76/64/113 77/66/114 94/67/115 95/63/116
s 21
f 69/69/117 70/70/118 85/71/119 86/72/120
s 22
f 86/72/121 87/77/122 84/78/123 69/69/124
s 23
f 87/77/125 88/81/126 83/82/127 84/78/128
s 24
f 82/85/129 83/82/130 88/81/131 89/86/132
s 25
f 89/86/133 90/89/134 81/90/135 82/85/136
s 26
f 80/93/137 81/90/138 90/89/139 91/94/140
s 27
f 79/97/141 80/93/142 91/94/143 92/98/144
s 28
f 43/119/145 44/120/146 60/116/147 59/115/148
f 100/151/149 85/156/150 70/157/151 71/152/152
f 44/120/146 47/123/153 62/124/154 60/116/147
f 47/123/153 49/127/155 63/128/156 62/124/154
f 49/127/155 52/131/157 64/132/158 63/128/156
f 52/131/157 53/129/159 65/130/160 64/132/158
f 53/129/159 56/125/161 66/121/162 65/130/160
f 78/167/163 79/172/164 92/173/165 93/168/166
f 56/125/161 58/126/167 67/122/168 66/121/162
s 21
f 43/73/169 70/70/118 69/69/117 44/74/170
s 28
f 71/152/152 70/157/151 43/160/145 59/158/148
s 16
f 73/54/100 72/53/99 60/55/171 62/56/172
s 17
f 74/58/104 73/54/103 62/56/173 63/59/174
s 18
f 64/62/175 75/60/106 74/58/105 63/59/176
s 19
f 76/64/112 75/60/111 64/62/177 65/65/178
s 20
f 66/68/179 77/66/114 76/64/113 65/65/180
s 28
f 58/175/167 79/172/164 78/167/163 67/171/168
s 27
f 58/99/181 56/95/182 80/93/142 79/97/141
s 26
f 56/95/183 53/91/184 81/90/138 80/93/137
s 25
f 82/85/136 81/90/135 53/91/185 52/87/186
s 24
f 52/87/187 49/83/188 83/82/130 82/85/129
s 23
f 84/78/128 83/82/127 49/83/189 47/79/190
s 22
f 69/69/124 84/78/123 47/79/191 44/74/192
s 21
f 86/72/120 85/71/119 46/75/193 45/76/194
s 22
f 45/76/195 48/80/196 87/77/122 86/72/121
s 23
f 48/80/197 50/84/198 88/81/126 87/77/125
s 24
f 89/86/132 88/81/131 50/84/199 51/88/200
s 25
f 51/88/201 54/92/202 90/89/134 89/86/133
s 26
f 91/94/140 90/89/139 54/92/203 55/96/204
s 27
f 92/98/144 91/94/143 55/96/205 57/100/206
s 28
f 93/168/166 92/173/165 57/176/207 68/174/208
f 46/159/209 85/156/150 100/151/149 61/155/210
s 13
f 109/164/70 108/163/69 9/169/211 26/170/212
s 7
f 110/26/28 109/30/27 26/32/213 24/28/214
s 6
f 111/21/24 110/26/23 24/28/215 22/24/216
s 5
f 20/20/217 112/18/18 111/21/17 22/24/218
s 4
f 113/13/16 112/18/15 20/20/219 18/16/220
s 3
f 16/12/221 114/7/10 113/13/9 18/16/222
s 2
f 13/9/223 115/3/6 114/7/5 16/12/224
s 1
f 116/4/4 115/3/3 13/9/225 14/10/226
s 13
f 3/149/227 101/146/54 116/145/53 14/150/228
s off
f 2/107/229 1/111/230 59/115/231 60/116/232
f 1/153/233 28/147/234 71/152/235 59/158/236
f 28/147/237 101/146/238 100/151/239 71/152/240
f 101/146/241 3/149/242 61/155/243 100/151/244
f 9/169/245 108/163/246 93/168/247 68/174/248
f 108/163/249 37/162/250 78/167/251 93/168/252
f 37/162/253 10/165/254 67/171/255 78/167/256
f 10/117/257 8/113/258 66/121/259 67/122/260
f 8/177/261 38/178/262 77/179/263 66/180/264
f 38/178/265 107/181/266 94/182/267 77/179/268
f 107/133/269 106/134/270 95/135/271 94/136/272
f 106/134/273 105/137/274 96/138/275 95/135/276
f 105/137/277 104/139/278 97/140/279 96/138/280
f 104/139/281 103/141/282 98/142/283 97/140/284
f 103/141/285 102/143/286 99/144/287 98/142/288
f 102/183/289 27/184/290 72/185/291 99/186/292
f 27/184/293 2/187/294 60/188/295 72/185/296
