# This file uses centimeters as units for non-parametric coordinates.

g default
v -0.145929 0.000000 -0.241577
v 5.601074 0.000000 -0.241577
v -0.145929 1.121872 -1.119568
v 5.601074 1.121872 -1.119568
v -0.145929 1.121872 -5.777832
v 5.601074 1.121872 -5.777832
v -0.145929 0.000000 -5.988708
v 5.601074 0.000000 -5.988708
v -0.145929 3.548462 0.304382
v 5.601074 3.548462 0.304382
v 5.601074 3.548462 -5.514954
v -0.145929 3.548462 -5.514954
v -0.145929 3.819824 0.304382
v 5.601074 3.819824 0.304382
v 5.601074 3.819824 -5.514954
v -0.145929 3.819824 -5.514954
v -0.145929 10.805908 -3.769485
v 5.601074 10.805908 -3.769485
v 5.601074 9.627808 -5.292664
v -0.145929 9.627808 -5.292664
v 1.505981 0.000000 -0.241577
v 1.505981 1.121872 -1.119568
v 1.505981 3.548462 0.304382
v 1.505981 3.819824 0.304382
v 1.505981 9.627808 -5.292664
v 1.505981 3.548462 -5.514954
v 1.505981 1.121872 -5.777832
v 1.505981 0.000000 -5.988708
v 4.084351 0.000000 -0.241577
v 4.084351 1.121872 -1.119568
v 4.084351 3.548462 0.304382
v 4.084351 3.819824 0.304382
v 4.084351 1.121872 -5.777832
v 4.084351 0.000000 -5.988708
v 4.084351 10.805908 -3.769485
v 1.506012 10.805908 -3.769485
v 1.505981 3.819824 -5.515015
v 4.084351 9.627808 -5.292664
v 4.084351 3.819824 -5.514954
v 4.084351 3.548462 -5.514954
v 0.000000 0.000000 0.000000
v 1.360077 0.000000 0.000000
v 1.360077 1.139252 -0.866119
v 0.000000 1.139252 -0.866119
v 0.000000 1.167038 -6.081848
v 1.360077 1.167038 -6.081848
v 1.360077 0.000000 -6.290955
v 0.000000 0.000000 -6.290955
v 1.360077 3.470642 0.590820
v 0.000000 3.470642 0.590820
v 1.360077 3.565063 -5.821655
v 0.000000 3.565063 -5.821655
v 1.360077 3.897278 0.591064
v 0.000000 3.897278 0.591064
v 1.360077 3.825684 -5.822449
v 0.000000 3.825684 -5.822510
v 1.360077 11.005127 -3.730682
v 0.000000 11.005127 -3.730682
v 1.360077 9.755371 -5.540436
v 0.000000 9.755371 -5.540436
v 4.218323 0.000000 0.000000
v 4.218323 1.139252 -0.866119
v 5.467163 0.000000 0.000000
v 5.467163 1.139252 -0.866119
v 4.218323 3.470642 0.590820
v 5.467163 3.470642 0.590820
v 4.218323 3.897278 0.591064
v 5.467163 3.897278 0.591064
v 4.218323 1.167038 -6.081848
v 4.218323 0.000000 -6.290833
v 5.467163 1.167038 -6.081848
v 5.467163 0.000000 -6.290833
v 4.218323 11.005127 -3.730682
v 5.467163 11.005127 -3.730682
v 4.218323 9.755371 -5.540436
v 5.467163 9.755371 -5.540436
v 4.218323 3.825684 -5.822510
v 5.467163 3.825684 -5.822510
v 4.218323 3.565063 -5.821655
v 5.467163 3.565063 -5.821655
vt 0.286838 0.416484
vt 0.348591 0.416484
vt 0.348591 0.475429
vt 0.286838 0.475429
vt 0.196902 0.916917
vt 0.196902 0.977875
vt 0.079832 0.977875
vt 0.079832 0.916917
vt 0.265281 0.479154
vt 0.203528 0.479154
vt 0.203528 0.418771
vt 0.265281 0.418771
vt 0.505244 0.029115
vt 0.712540 0.029115
vt 0.704938 0.087161
vt 0.536914 0.087161
vt 0.748396 0.029115
vt 0.955691 0.029115
vt 0.924022 0.087161
vt 0.755997 0.087161
vt 0.348591 0.596055
vt 0.286838 0.596055
vt 0.695455 0.212715
vt 0.485552 0.212715
vt 0.203528 0.603228
vt 0.265281 0.603228
vt 0.975384 0.212715
vt 0.765481 0.212715
vt 0.348591 0.618130
vt 0.286838 0.618130
vt 0.695455 0.226753
vt 0.485552 0.226753
vt 0.203528 0.616713
vt 0.265281 0.616713
vt 0.975384 0.226753
vt 0.765481 0.226753
vt 0.348591 0.985892
vt 0.286838 0.985892
vt 0.687436 0.527261
vt 0.632494 0.588219
vt 0.203528 0.923517
vt 0.265281 0.923517
vt 0.828441 0.588219
vt 0.773499 0.527261
vt 0.355217 0.474529
vt 0.355217 0.416484
vt 0.472287 0.416484
vt 0.472287 0.474529
vt 0.355217 0.600083
vt 0.472287 0.600083
vt 0.355217 0.614121
vt 0.472287 0.614121
vt 0.079832 0.602370
vt 0.079832 0.476817
vt 0.196902 0.476817
vt 0.196902 0.602370
vt 0.196902 0.418771
vt 0.079832 0.418771
vt 0.478370 0.475429
vt 0.478370 0.416484
vt 0.535071 0.416484
vt 0.535071 0.475429
vt 0.478370 0.596055
vt 0.535071 0.596055
vt 0.478370 0.618130
vt 0.535071 0.618130
vt 0.073749 0.418771
vt 0.073748 0.479154
vt 0.017049 0.479154
vt 0.017049 0.418771
vt 0.478370 0.985892
vt 0.535071 0.985892
vt 0.355217 0.975588
vt 0.472287 0.975588
vt 0.265281 0.988179
vt 0.203528 0.988179
vt 0.079832 0.616409
vt 0.196902 0.616409
vt 0.073748 0.923517
vt 0.073748 0.988179
vt 0.017049 0.988179
vt 0.017049 0.923517
vt 0.017049 0.616713
vt 0.073748 0.616713
vt 0.017049 0.603228
vt 0.073748 0.603228
vt 0.964405 0.029115
vt 0.933164 0.088060
vt 0.745030 0.089498
vt 0.737493 0.029115
vt 0.985717 0.208687
vt 0.754417 0.213572
vt 0.985725 0.230762
vt 0.754388 0.227057
vt 0.829840 0.598523
vt 0.764561 0.533861
vt 0.527771 0.088060
vt 0.496530 0.029115
vt 0.475218 0.208687
vt 0.475211 0.230762
vt 0.723443 0.029115
vt 0.715905 0.089498
vt 0.631096 0.598523
vt 0.696375 0.533861
vt 0.706547 0.227057
vt 0.706519 0.213572
vn 0.000000 0.605211 0.796065
vn 0.000000 0.605211 0.796065
vn 0.000000 0.605211 0.796065
vn 0.000000 0.605211 0.796065
vn 0.000000 0.791009 -0.611805
vn 0.000000 0.791009 -0.611805
vn 0.000000 0.791009 -0.611805
vn 0.000000 0.791009 -0.611805
vn 0.000000 0.176368 -0.984324
vn 0.000000 0.176368 -0.984324
vn 0.000000 0.176368 -0.984324
vn 0.000000 0.176368 -0.984324
vn 0.997610 0.042203 0.054714
vn 0.999514 0.005624 -0.030660
vn 0.999708 0.003173 -0.023937
vn 0.999887 0.009199 0.011926
vn -0.999425 0.006121 -0.033362
vn -0.997196 0.045710 0.059260
vn -0.999863 0.010130 0.013133
vn -0.999654 0.003459 -0.026092
vn 0.000000 -0.529952 0.848028
vn 0.000000 -0.529952 0.848028
vn 0.000000 -0.529952 0.848028
vn 0.000000 -0.529952 0.848028
vn 0.999899 -0.007371 0.012175
vn 0.999761 0.002121 -0.021753
vn 0.999046 -0.020392 0.038616
vn 0.000000 0.107870 -0.994165
vn 0.000000 0.107870 -0.994165
vn 0.000000 0.107870 -0.994165
vn 0.000000 0.107870 -0.994165
vn -1.000000 -0.000000 0.000000
vn -1.000000 -0.000000 0.000000
vn -0.999716 0.002312 -0.023715
vn 0.000000 -0.000572 1.000000
vn 0.000000 -0.000572 1.000000
vn 0.000000 -0.000572 1.000000
vn 0.000000 -0.000572 1.000000
vn 0.999538 0.001246 -0.030364
vn 0.942028 0.165621 0.291810
vn 0.000023 -0.003162 -0.999995
vn 0.000023 -0.003162 -0.999995
vn 0.000023 -0.003162 -0.999995
vn 0.000023 -0.003162 -0.999995
vn -0.978914 -0.095388 0.180633
vn -0.932347 0.178471 0.314449
vn -0.999452 0.001358 -0.033081
vn 0.000000 0.519529 0.854453
vn 0.000000 0.519529 0.854453
vn 0.000000 0.519529 0.854453
vn 0.000000 0.519529 0.854453
vn 1.000000 0.000000 0.000000
vn 0.999481 0.008421 -0.031089
vn 1.000000 0.000000 0.000000
vn 0.000022 0.047511 -0.998871
vn 0.000022 0.047511 -0.998871
vn 0.000022 0.047511 -0.998871
vn 0.000022 0.047511 -0.998871
vn -1.000000 -0.000000 0.000000
vn -1.000000 -0.000000 0.000000
vn -0.999388 0.009145 -0.033762
vn 0.000000 0.616310 0.787504
vn 0.000000 0.616310 0.787504
vn 0.000000 0.616310 0.787504
vn 0.000000 0.616310 0.787504
vn 0.000000 -0.506107 0.862470
vn 0.000000 -0.506107 0.862470
vn 0.000000 -0.506107 0.862470
vn 0.000000 -0.506107 0.862470
vn 0.000000 0.000000 1.000000
vn 0.000000 0.000000 1.000000
vn 0.000000 0.000000 1.000000
vn 0.000000 0.000000 1.000000
vn 0.000000 0.107702 -0.994183
vn 0.000000 0.107702 -0.994183
vn 0.000000 0.107702 -0.994183
vn 0.000000 0.107702 -0.994183
vn 0.000000 0.184733 -0.982789
vn 0.000000 0.184733 -0.982789
vn 0.000000 0.184733 -0.982789
vn 0.000000 0.184733 -0.982789
vn 0.000000 0.605211 0.796065
vn 0.000000 0.605211 0.796065
vn 0.000000 0.605211 0.796065
vn 0.000000 0.605211 0.796065
vn 0.000000 -0.529952 0.848028
vn 0.000000 -0.529952 0.848028
vn 0.000000 -0.529952 0.848028
vn 0.000000 -0.529952 0.848028
vn 0.000000 -0.000572 1.000000
vn 0.000000 -0.000572 1.000000
vn 0.000000 -0.000572 1.000000
vn 0.000000 -0.000572 1.000000
vn 0.000000 0.176269 -0.984342
vn 0.000000 0.176269 -0.984342
vn 0.000000 0.176269 -0.984342
vn 0.000000 0.176269 -0.984342
vn 0.000000 0.519529 0.854453
vn 0.000000 0.519529 0.854453
vn 0.000000 0.519529 0.854453
vn 0.000000 0.519529 0.854453
vn 0.000000 0.503747 0.863851
vn 0.000000 0.503747 0.863851
vn 0.000000 0.503747 0.863851
vn 0.000000 0.503747 0.863851
vn 0.000000 0.822862 -0.568241
vn 0.000000 0.822862 -0.568241
vn 0.000000 0.822862 -0.568241
vn 0.000000 0.822862 -0.568241
vn 0.000012 0.038250 -0.999268
vn 0.000012 0.038250 -0.999268
vn 0.000012 0.038250 -0.999268
vn 0.000012 0.038250 -0.999268
vn 0.000012 -0.000112 -1.000000
vn 0.000012 -0.000112 -1.000000
vn 0.000012 -0.000112 -1.000000
vn 0.000012 -0.000112 -1.000000
vn 0.000000 0.822862 -0.568241
vn 0.000000 0.822862 -0.568241
vn 0.000000 0.822862 -0.568241
vn 0.000000 0.822862 -0.568241
vn 0.000000 0.047516 -0.998871
vn 0.000000 0.047516 -0.998871
vn 0.000000 0.047516 -0.998871
vn 0.000000 0.047516 -0.998871
vn 0.000000 -0.003279 -0.999995
vn 0.000000 -0.003279 -0.999995
vn 0.000000 -0.003279 -0.999995
vn 0.000000 -0.003279 -0.999995
vn 0.000000 0.107870 -0.994165
vn 0.000000 0.107870 -0.994165
vn 0.000000 0.107870 -0.994165
vn 0.000000 0.107870 -0.994165
vn 0.809671 0.358447 0.464703
vn 0.809671 0.358447 0.464703
vn 0.809671 0.358447 0.464703
vn 0.809671 0.358447 0.464703
vn -0.809624 0.358487 0.464754
vn -0.809624 0.358487 0.464754
vn 0.902408 0.056633 -0.427144
vn 0.900551 0.078461 -0.427612
vn 0.900551 0.078461 -0.427612
vn 0.902412 0.056589 -0.427143
vn -0.902383 0.056597 -0.427202
vn -0.900522 0.078472 -0.427671
vn 0.860611 -0.263769 0.435632
vn 0.867707 -0.232116 0.439552
vn 0.867821 -0.231572 0.439615
vn 0.860611 -0.263769 0.435632
vn -0.860573 -0.263802 0.435687
vn -0.860573 -0.263802 0.435687
vn -0.867784 -0.231601 0.439671
vn 0.903234 0.041642 -0.427124
vn 0.903234 0.041633 -0.427124
vn -0.903209 0.041638 -0.427177
vn 0.827309 0.277281 0.488545
vn 0.827369 0.277116 0.488535
vn -0.827351 0.277129 0.488558
vn 0.887753 0.018874 -0.459933
vn 0.887756 0.018871 -0.459927
vn -0.887765 0.018870 -0.459910
vn 0.821988 0.291454 0.489274
vn 0.821989 0.291454 0.489274
vn -0.821971 0.291468 0.489295
vn -0.821971 0.291468 0.489295
vn 0.885937 0.121271 -0.447670
vn 0.886140 0.117548 -0.448261
vn -0.886146 0.117537 -0.448252
vn 0.798552 0.486524 -0.354413
vn 0.798552 0.486524 -0.354413
vn -0.798533 0.486548 -0.354423
vn -0.798533 0.486548 -0.354423
vn -0.832474 0.338402 0.438715
vn -0.832474 0.338402 0.438715
vn -0.832474 0.338402 0.438715
vn -0.832474 0.338402 0.438715
vn 0.832591 0.338294 0.438577
vn 0.832591 0.338294 0.438577
vn -0.885029 -0.217388 0.411662
vn -0.878671 -0.247281 0.408399
vn -0.878671 -0.247281 0.408399
vn -0.885133 -0.216865 0.411715
vn 0.885220 -0.216788 0.411568
vn 0.878762 -0.247194 0.408256
vn -0.848603 0.261131 0.460090
vn -0.848660 0.260970 0.460078
vn 0.848768 0.260885 0.459927
vn -0.914177 0.073128 -0.398663
vn -0.915835 0.052771 -0.398073
vn -0.915838 0.052730 -0.398071
vn -0.914177 0.073128 -0.398663
vn 0.914246 0.073100 -0.398511
vn 0.915905 0.052710 -0.397919
vn -0.843759 0.274678 0.461110
vn -0.843759 0.274678 0.461110
vn 0.843870 0.274589 0.460961
vn 0.843870 0.274589 0.460961
vn -0.901309 0.113255 -0.418109
vn -0.822290 0.459970 -0.335063
vn -0.822290 0.459970 -0.335063
vn -0.901494 0.109681 -0.418663
vn 0.822411 0.459828 -0.334959
vn 0.901571 0.109640 -0.418508
vn 0.822411 0.459828 -0.334959
vn -0.902923 0.017623 -0.429442
vn -0.902925 0.017620 -0.429437
vn 0.903001 0.017613 -0.429277
vn -0.916574 0.038799 -0.397978
vn -0.916574 0.038791 -0.397978
vn 0.916641 0.038777 -0.397826
s off
g Wall_s_3
f 41/1/1 42/2/2 43/3/3 44/4/4
f 25/5/5 36/6/6 35/7/7 38/8/8
f 45/9/9 46/10/10 47/11/11 48/12/12
s 1
f 2/13/13 8/14/14 6/15/15 4/16/16
s 2
f 7/17/17 1/18/18 3/19/19 5/20/20
s off
f 44/4/21 43/3/22 49/21/23 50/22/24
s 1
f 4/16/25 6/15/15 11/23/26 10/24/27
s off
f 51/25/28 46/10/29 45/9/30 52/26/31
s 2
f 5/20/20 3/19/32 9/27/33 12/28/34
s off
f 50/22/35 49/21/36 53/29/37 54/30/38
s 1
f 10/24/27 11/23/26 15/31/39 14/32/40
s off
f 55/33/41 51/25/42 52/26/43 56/34/44
s 2
f 12/28/34 9/27/45 13/35/46 16/36/47
s off
f 54/30/48 53/29/49 57/37/50 58/38/51
s 1
f 14/32/52 15/31/39 19/39/53 18/40/54
s off
f 59/41/55 55/33/56 56/34/57 60/42/58
s 2
f 16/36/47 13/35/59 17/43/60 20/44/61
s off
f 22/45/62 21/46/63 29/47/64 30/48/65
f 23/49/66 22/45/67 30/48/68 31/50/69
f 24/51/70 23/49/71 31/50/72 32/52/73
f 40/53/74 33/54/75 27/55/76 26/56/77
f 28/57/78 27/55/79 33/54/80 34/58/81
f 62/59/82 61/60/83 63/61/84 64/62/85
f 65/63/86 62/59/87 64/62/88 66/64/89
f 67/65/90 65/63/91 66/64/92 68/66/93
f 70/67/94 69/68/95 71/69/96 72/70/97
f 73/71/98 67/65/99 68/66/100 74/72/101
f 36/73/102 24/51/103 32/52/104 35/74/105
f 58/75/106 57/76/107 59/41/108 60/42/109
f 38/8/110 39/77/111 37/78/112 25/5/113
f 39/77/114 40/53/115 26/56/116 37/78/117
f 75/79/118 73/80/119 74/81/120 76/82/121
f 78/83/122 77/84/123 75/79/124 76/82/125
f 80/85/126 79/86/127 77/84/128 78/83/129
f 71/69/130 69/68/131 79/86/132 80/85/133
f 21/46/134 22/45/135 43/3/136 42/2/137
s 2
f 3/19/19 1/18/18 41/87/138 44/88/139
s 9
f 27/55/140 28/57/141 47/11/142 46/10/143
s 2
f 7/17/17 5/20/20 45/89/144 48/90/145
s 10
f 22/45/146 23/49/147 49/21/148 43/3/149
s 2
f 9/27/45 3/19/150 44/88/151 50/91/152
s 9
f 26/56/153 27/55/140 46/10/143 51/25/154
s 2
f 5/20/20 12/28/34 52/92/155 45/89/144
s 10
f 23/49/147 24/51/156 53/29/157 49/21/148
s 2
f 13/35/46 9/27/45 50/91/152 54/93/158
s 9
f 37/78/159 26/56/153 51/25/154 55/33/160
s 2
f 12/28/34 16/36/47 56/94/161 52/92/155
s 10
f 24/51/156 36/73/162 57/37/163 53/29/157
s 2
f 17/43/164 13/35/46 54/93/158 58/95/165
s 9
f 25/5/166 37/78/159 55/33/160 59/41/167
s 2
f 16/36/47 20/44/61 60/96/168 56/94/161
s 9
f 36/6/169 25/5/166 59/41/167 57/76/170
s 2
f 20/44/61 17/43/171 58/95/172 60/96/168
s off
f 30/48/173 29/47/174 61/60/175 62/59/176
s 1
f 2/13/13 4/16/16 64/97/177 63/98/178
s 11
f 31/50/179 30/48/180 62/59/181 65/63/182
s 1
f 4/16/25 10/24/27 66/99/183 64/97/184
s 11
f 32/52/185 31/50/179 65/63/182 67/65/186
s 1
f 10/24/27 14/32/40 68/100/187 66/99/183
s 12
f 34/58/188 33/54/189 69/68/190 70/67/191
s 1
f 6/15/15 8/14/14 72/101/192 71/102/193
s 11
f 35/74/194 32/52/185 67/65/186 73/71/195
s 1
f 14/32/40 18/40/196 74/103/197 68/100/187
s 12
f 38/8/198 35/7/199 73/80/200 75/79/201
s 1
f 18/40/202 19/39/53 76/104/203 74/103/204
s 12
f 39/77/205 38/8/198 75/79/201 77/84/206
s 1
f 19/39/53 15/31/39 78/105/207 76/104/203
s 12
f 40/53/208 39/77/205 77/84/206 79/86/209
s 1
f 15/31/39 11/23/26 80/106/210 78/105/207
s 12
f 33/54/189 40/53/208 79/86/209 69/68/190
s 1
f 11/23/26 6/15/15 71/102/193 80/106/210
