# This file uses centimeters as units for non-parametric coordinates.

mtllib Wall_ws_3.mtl
g default
v 0.000000 0.000000 0.000000
v 6.021362 0.000000 0.000000
v 0.000000 1.113715 -0.593323
v 6.021362 1.113715 -0.593323
v 0.000000 1.113715 -4.096130
v 6.021362 1.113715 -4.096130
v 0.000000 0.000000 -4.276550
v 6.021362 0.000000 -4.276550
v 0.000000 3.558127 -1.162170
v 6.021362 3.558127 -1.162170
v 6.021362 3.558127 -4.096130
v 0.000000 3.558127 -4.096130
v 0.000000 3.864951 -1.299621
v 6.021362 3.864951 -1.299621
v 6.021362 3.864951 -4.096130
v 0.000000 3.864951 -4.096130
v 0.000000 9.698508 -2.235290
v 6.021362 9.698508 -2.235290
v 6.021362 9.698508 -3.836242
v 0.000000 9.698508 -3.836242
vt 0.458554 0.023953
vt 0.456024 0.188955
vt 0.409124 0.189039
vt 0.411654 0.024037
vt 0.366149 0.403002
vt 0.370335 0.208115
vt 0.412987 0.208098
vt 0.408801 0.402986
vt 0.070401 0.024887
vt 0.066961 0.189878
vt 0.015471 0.189510
vt 0.018911 0.024519
vt 0.307091 0.189223
vt 0.309621 0.024220
vt 0.272630 0.403039
vt 0.276816 0.208151
vt 0.294212 0.189246
vt 0.296743 0.024244
vt 0.260893 0.403043
vt 0.265079 0.208156
vt 0.037695 0.403130
vt 0.041881 0.208242
vn 0.000000 0.470182 0.882570
vn 0.000000 0.470182 0.882570
vn 0.000000 0.470182 0.882570
vn 0.000000 0.470182 0.882570
vn 0.000000 0.159914 -0.987131
vn 0.000000 0.159914 -0.987131
vn 0.000000 0.159914 -0.987131
vn 0.000000 0.159914 -0.987131
vn 0.000000 1.000000 0.000000
vn 0.000000 1.000000 0.000000
vn 0.000000 1.000000 0.000000
vn 0.000000 1.000000 0.000000
vn 0.000000 0.226657 0.973975
vn 0.000000 0.226657 0.973975
vn 0.000000 0.226657 0.973975
vn 0.000000 0.226657 0.973975
vn 0.000000 0.000000 -1.000000
vn 0.000000 0.000000 -1.000000
vn 0.000000 0.000000 -1.000000
vn 0.000000 0.000000 -1.000000
vn 0.000000 0.408832 0.912610
vn 0.000000 0.408832 0.912610
vn 0.000000 0.408832 0.912610
vn 0.000000 0.408832 0.912610
vn 0.000000 0.000000 -1.000000
vn 0.000000 0.000000 -1.000000
vn 0.000000 0.000000 -1.000000
vn 0.000000 0.000000 -1.000000
vn 0.000000 0.158370 0.987380
vn 0.000000 0.158370 0.987380
vn 0.000000 0.158370 0.987380
vn 0.000000 0.158370 0.987380
vn 0.000000 0.044506 -0.999009
vn 0.000000 0.044506 -0.999009
vn 0.000000 0.044506 -0.999009
vn 0.000000 0.044506 -0.999009
s off
g Wall_ws_3
usemtl initialShadingGroup
f 1/1/1 2/2/2 4/3/3 3/4/4
f 5/5/5 6/6/6 8/7/7 7/8/8
f 17/9/9 18/10/10 19/11/11 20/12/12
f 3/4/13 4/3/14 10/13/15 9/14/16
f 6/6/17 5/5/18 12/15/19 11/16/20
f 9/14/21 10/13/22 14/17/23 13/18/24
f 11/16/25 12/15/26 16/19/27 15/20/28
f 13/18/29 14/17/30 18/10/31 17/9/32
f 15/20/33 16/19/34 20/21/35 19/22/36
