# This file uses centimeters as units for non-parametric coordinates.

mtllib FlooR_Fern_Revamped.mtl
g default
v -0.882986 -0.064835 0.610241
v -0.078375 -0.002159 -0.126144
v 0.882985 -0.064835 -0.641359
v -1.670044 1.126383 -0.500274
v -0.787058 1.306392 -1.126075
v 0.095927 1.126383 -1.751875
v -2.472445 1.498605 -1.632440
v -1.589460 1.678614 -2.258240
v -0.706474 1.498605 -2.884040
v -3.410283 1.298970 -2.955701
v -2.527297 1.478979 -3.581501
v -1.644312 1.298970 -4.207302
v -4.191520 0.929805 -4.058003
v -3.308534 1.109814 -4.683804
v -2.425548 0.929805 -5.309604
v 0.633958 -0.064835 -0.892706
v 0.109854 -0.002159 0.063838
v -0.633958 -0.064835 0.861588
v 1.737130 1.126383 -0.095388
v 1.103173 1.306392 0.781759
v 0.469215 1.126383 1.658906
v 2.861809 1.498605 0.717474
v 2.227851 1.678614 1.594621
v 1.593894 1.498605 2.471768
v 4.176321 1.298970 1.667537
v 3.542363 1.478979 2.544684
v 2.908405 1.298970 3.421831
v 5.271334 0.929805 2.458958
v 4.637376 1.109814 3.336105
v 4.003418 0.929805 4.213252
v 0.976670 -0.064835 -0.481826
v 0.058395 -0.002159 0.106760
v -0.976670 -0.064835 0.450708
v 1.563086 1.126383 0.746516
v 0.586416 1.306392 1.212782
v -0.390254 1.126383 1.679049
v 2.160934 1.498605 1.998803
v 1.184264 1.678614 2.465070
v 0.207594 1.498605 2.931337
v 2.859692 1.298970 3.462462
v 1.883022 1.478979 3.928729
v 0.906352 1.298970 4.394996
v 3.441771 0.929805 4.681718
v 2.465101 1.109814 5.147985
v 1.488431 0.929805 5.614252
v -1.082261 -0.064835 -0.015559
v 0.000000 -0.002159 -0.151101
v 1.082261 -0.064835 -0.015559
v -1.082261 1.126383 -1.376700
v 0.000000 1.306392 -1.376700
v 1.082261 1.126383 -1.376700
v -1.082261 1.498605 -2.764377
v 0.000000 1.678614 -2.764377
v 1.082261 1.498605 -2.764377
v -1.082261 1.298970 -4.386277
v 0.000000 1.478979 -4.386277
v 1.082261 1.298970 -4.386277
v -1.082261 0.929805 -5.737351
v 0.000000 1.109814 -5.737351
v 1.082261 0.929805 -5.737351
v 0.613038 -0.064835 0.876335
v -0.111701 -0.002159 0.061218
v -0.613038 -0.064835 -0.907452
v -0.508681 1.126383 1.647342
v -1.121719 1.306392 0.755449
v -1.734757 1.126383 -0.136445
v -1.652268 1.498605 2.433380
v -2.265306 1.678614 1.541487
v -2.878344 1.498605 0.649594
v -2.988879 1.298970 3.352092
v -3.601917 1.478979 2.460199
v -4.214955 1.298970 1.568306
v -4.102301 0.929805 4.117397
v -4.715339 1.109814 3.225504
v -5.328377 0.929805 2.333611
v -0.757470 -0.064835 -0.788558
v 0.096811 -0.002159 -0.110424
v 0.757470 -0.064835 0.757441
v 0.214718 1.126383 -1.741215
v 0.972188 1.306392 -0.968216
v 1.729658 1.126383 -0.195216
v 1.205859 1.498605 -2.712445
v 1.963329 1.678614 -1.939445
v 2.720799 1.498605 -1.166446
v 2.364293 1.298970 -3.847606
v 3.121763 1.478979 -3.074607
v 3.879233 1.298970 -2.301607
v 3.329291 0.929805 -4.793217
v 4.086761 1.109814 -4.020218
v 4.844231 0.929805 -3.247218
v 0.542716 -0.064835 -0.486156
v 0.045908 0.005262 0.037385
v -0.542717 -0.064835 0.455039
v 0.919411 0.989065 -0.051733
v 0.349677 1.101199 0.387707
v -0.166022 0.989065 0.889462
v 1.429860 1.538858 0.536942
v 0.860125 1.650993 0.976381
v 0.344426 1.538858 1.478136
v 2.121725 1.786080 1.334836
v 1.551991 1.898215 1.774275
v 1.036292 1.786080 2.276031
v 2.728511 1.865647 2.034611
v 2.158777 1.977782 2.474051
v 1.643078 1.865647 2.975806
v -0.709084 -0.064835 0.099344
v -0.010185 0.011126 -0.078410
v 0.709084 -0.064835 -0.130461
v -0.785951 1.035348 -0.375014
v -0.068725 1.143443 -0.439675
v 0.632218 1.035348 -0.604819
v -0.902408 1.651230 -1.093690
v -0.185182 1.759325 -1.158350
v 0.515761 1.651230 -1.323495
v -1.067227 1.989940 -2.110814
v -0.350001 2.098035 -2.175475
v 0.350942 1.989940 -2.340620
v -1.213699 2.150272 -3.014720
v -0.496474 2.258367 -3.079381
v 0.204469 2.150272 -3.244525
v -0.459530 -0.064835 0.536560
v -0.054118 0.004926 -0.060601
v 0.459530 -0.064835 -0.567678
v -0.905342 0.986307 0.165510
v -0.414526 1.098638 -0.360570
v 0.013717 0.986307 -0.938728
v -1.506226 1.532374 -0.334607
v -1.015410 1.644705 -0.860686
v -0.587167 1.532374 -1.438845
v -2.318842 1.774551 -1.010948
v -1.828026 1.886881 -1.537028
v -1.399783 1.774551 -2.115187
v -3.031025 1.849695 -1.603699
v -2.540210 1.962026 -2.129779
v -2.111966 1.849695 -2.707938
v -6.483925 2.181644 -0.852069
v -6.391178 1.648990 0.598255
v -6.298430 2.181644 2.048579
v -3.884140 3.774463 -1.310760
v -3.930498 3.166512 0.309403
v -3.678145 3.774463 1.910463
v -3.264365 4.170812 -1.350394
v -3.310723 3.243010 0.269769
v -3.058369 4.170812 1.870829
v -2.338144 3.371812 -1.409625
v -2.823552 2.850863 0.130202
v -2.132148 3.371812 1.811597
v 0.046358 0.157705 -1.562113
v 0.000000 -0.046339 0.058050
v 0.252353 0.157705 1.659110
v 6.421616 2.181644 -1.155425
v 5.816254 1.648990 -2.476629
v 5.210892 2.181644 -3.797832
v 4.116778 3.774463 -0.052970
v 3.580571 3.166512 -1.582532
v 2.772246 3.774463 -2.987412
v 3.552180 4.170812 0.205722
v 3.015973 3.243010 -1.323839
v 2.207649 4.170812 -2.728719
v 2.708419 3.371812 0.592325
v 2.611263 2.850863 -1.238753
v 1.363888 3.371812 -2.342116
v 0.536207 0.157705 1.587611
v -0.000000 -0.046339 0.058050
v -0.808324 0.157705 -1.346830
v -4.180265 2.181644 5.253114
v -2.882288 1.648990 5.906794
v -1.584310 2.181644 6.560473
v -3.145637 3.986123 2.716086
v -1.771525 3.166512 3.575675
v -0.262781 3.774463 4.167932
v -2.866296 4.170812 2.161414
v -1.492185 3.243010 3.021003
v 0.016559 3.959151 3.613260
v -2.448836 3.371812 1.332486
v -1.261375 2.850863 2.493593
v 0.434019 3.371812 2.784332
v -1.374111 0.157705 -0.801540
v -0.000000 -0.046339 0.058050
v 1.508744 0.157705 0.650306
vt 0.020895 0.009284
vt 0.247756 0.009284
vt 0.247756 0.291364
vt 0.020895 0.291364
vt 0.474617 0.009284
vt 0.474617 0.291364
vt 0.247756 0.503699
vt 0.020895 0.503699
vt 0.474617 0.503699
vt 0.247756 0.771963
vt 0.020895 0.771963
vt 0.474617 0.771963
vt 0.247756 0.984298
vt 0.020895 0.984298
vt 0.474617 0.984298
vt 0.020895 0.009284
vt 0.247756 0.009284
vt 0.247756 0.291364
vt 0.020895 0.291364
vt 0.474617 0.009284
vt 0.474617 0.291364
vt 0.247756 0.503699
vt 0.020895 0.503699
vt 0.474617 0.503699
vt 0.247756 0.771963
vt 0.020895 0.771963
vt 0.474617 0.771963
vt 0.247756 0.984298
vt 0.020895 0.984298
vt 0.474617 0.984298
vt 0.020895 0.009284
vt 0.247756 0.009284
vt 0.247756 0.291364
vt 0.020895 0.291364
vt 0.474617 0.009284
vt 0.474617 0.291364
vt 0.247756 0.503699
vt 0.020895 0.503699
vt 0.474617 0.503699
vt 0.247756 0.771963
vt 0.020895 0.771963
vt 0.474617 0.771963
vt 0.247756 0.984298
vt 0.020895 0.984298
vt 0.474617 0.984298
vt 0.020895 0.009284
vt 0.247756 0.009284
vt 0.247756 0.291364
vt 0.020895 0.291364
vt 0.474617 0.009284
vt 0.474617 0.291364
vt 0.247756 0.503699
vt 0.020895 0.503699
vt 0.474617 0.503699
vt 0.247756 0.771963
vt 0.020895 0.771963
vt 0.474617 0.771963
vt 0.247756 0.984298
vt 0.020895 0.984298
vt 0.474617 0.984298
vt 0.020895 0.009284
vt 0.247756 0.009284
vt 0.247756 0.291364
vt 0.020895 0.291364
vt 0.474617 0.009284
vt 0.474617 0.291364
vt 0.247756 0.503699
vt 0.020895 0.503699
vt 0.474617 0.503699
vt 0.247756 0.771963
vt 0.020895 0.771963
vt 0.474617 0.771963
vt 0.247756 0.984298
vt 0.020895 0.984298
vt 0.474617 0.984298
vt 0.020895 0.009284
vt 0.247756 0.009284
vt 0.247756 0.291364
vt 0.020895 0.291364
vt 0.474617 0.009284
vt 0.474617 0.291364
vt 0.247756 0.503699
vt 0.020895 0.503699
vt 0.474617 0.503699
vt 0.247756 0.771963
vt 0.020895 0.771963
vt 0.474617 0.771963
vt 0.247756 0.984298
vt 0.020895 0.984298
vt 0.474617 0.984298
vt 0.020895 0.009284
vt 0.247756 0.009284
vt 0.247756 0.291364
vt 0.020895 0.291364
vt 0.474617 0.009284
vt 0.474617 0.291364
vt 0.247756 0.503699
vt 0.020895 0.503699
vt 0.474617 0.503699
vt 0.247756 0.771963
vt 0.020895 0.771963
vt 0.474617 0.771963
vt 0.247756 0.984298
vt 0.020895 0.984298
vt 0.474617 0.984298
vt 0.020895 0.009284
vt 0.247756 0.009284
vt 0.247756 0.291364
vt 0.020895 0.291364
vt 0.474617 0.009284
vt 0.474617 0.291364
vt 0.247756 0.503699
vt 0.020895 0.503699
vt 0.474617 0.503699
vt 0.247756 0.771963
vt 0.020895 0.771963
vt 0.474617 0.771963
vt 0.247756 0.984298
vt 0.020895 0.984298
vt 0.474617 0.984298
vt 0.020895 0.009284
vt 0.247756 0.009284
vt 0.247756 0.291364
vt 0.020895 0.291364
vt 0.474617 0.009284
vt 0.474617 0.291364
vt 0.247756 0.503699
vt 0.020895 0.503699
vt 0.474617 0.503699
vt 0.247756 0.771963
vt 0.020895 0.771963
vt 0.474617 0.771963
vt 0.247756 0.984298
vt 0.020895 0.984298
vt 0.474617 0.984298
vt 0.511099 0.014398
vt 0.736045 0.014398
vt 0.736045 0.390256
vt 0.511099 0.390256
vt 0.960990 0.014398
vt 0.960990 0.390256
vt 0.736045 0.473635
vt 0.511099 0.473635
vt 0.960990 0.473635
vt 0.736045 0.609214
vt 0.511099 0.609214
vt 0.960990 0.609214
vt 0.736045 0.987859
vt 0.511099 0.987859
vt 0.960990 0.987859
vt 0.511099 0.014398
vt 0.736045 0.014398
vt 0.736045 0.390256
vt 0.511099 0.390256
vt 0.960990 0.014398
vt 0.960990 0.390256
vt 0.736045 0.473635
vt 0.511099 0.473635
vt 0.960990 0.473635
vt 0.736045 0.609214
vt 0.511099 0.609214
vt 0.960990 0.609214
vt 0.736045 0.987859
vt 0.511099 0.987859
vt 0.960990 0.987859
vt 0.511099 0.014398
vt 0.736045 0.014398
vt 0.736045 0.390256
vt 0.511099 0.390256
vt 0.960990 0.014398
vt 0.960990 0.390256
vt 0.736045 0.473635
vt 0.511099 0.473635
vt 0.960990 0.473635
vt 0.736045 0.609214
vt 0.511099 0.609214
vt 0.960990 0.609214
vt 0.736045 0.987859
vt 0.511099 0.987859
vt 0.960990 0.987859
vn 0.371292 0.718597 0.588014
vn 0.401823 0.719092 0.566961
vn 0.292557 0.862563 0.412790
vn 0.229202 0.845783 0.481786
vn 0.431802 0.718598 0.545128
vn 0.378646 0.845783 0.375870
vn 0.032289 0.998440 0.045558
vn -0.100206 0.984798 0.141886
vn 0.167071 0.984798 -0.047541
vn -0.107832 0.982458 -0.152148
vn -0.239549 0.969075 -0.059246
vn 0.023460 0.969075 -0.245649
vn -0.152409 0.964639 -0.215044
vn -0.279734 0.952457 -0.120725
vn -0.021235 0.952457 -0.303932
vn -0.541102 0.718597 -0.436836
vn -0.563212 0.719092 -0.407061
vn -0.410060 0.862563 -0.296371
vn -0.372344 0.845783 -0.382114
vn -0.584547 0.718598 -0.376727
vn -0.479641 0.845783 -0.233658
vn -0.045257 0.998440 -0.032709
vn 0.049088 0.984798 -0.166623
vn -0.142809 0.984798 0.098886
vn 0.151142 0.982458 0.109238
vn 0.245856 0.969075 -0.021182
vn 0.057023 0.969075 0.240088
vn 0.213622 0.964639 0.154396
vn 0.303722 0.952457 0.024051
vn 0.118127 0.952457 0.280841
vn -0.265717 0.718597 -0.642660
vn -0.299388 0.719092 -0.627115
vn -0.217977 0.862563 -0.456587
vn -0.143795 0.845783 -0.513784
vn -0.332647 0.718598 -0.610708
vn -0.309096 0.845783 -0.434869
vn -0.024057 0.998440 -0.050392
vn 0.122907 0.984798 -0.122746
vn -0.172727 0.984798 0.018391
vn 0.080343 0.982458 0.168291
vn 0.225958 0.969075 0.099180
vn -0.064956 0.969075 0.238064
vn 0.113556 0.964639 0.237860
vn 0.255085 0.952457 0.166605
vn -0.030841 0.952457 0.303108
vn -0.037083 0.718598 0.694437
vn -0.000000 0.719092 0.694915
vn -0.000000 0.862563 0.505950
vn -0.091586 0.845783 0.525608
vn 0.037083 0.718598 0.694437
vn 0.091586 0.845783 0.525608
vn -0.000000 0.998440 0.055840
vn -0.163798 0.984798 0.057818
vn 0.163798 0.984798 0.057818
vn 0.000000 0.982458 -0.186485
vn -0.161183 0.969075 -0.186853
vn 0.161183 0.969075 -0.186853
vn 0.000000 0.964639 -0.263576
vn -0.158419 0.952457 -0.260248
vn 0.158419 0.952457 -0.260248
vn 0.593292 0.718597 -0.362798
vn 0.572680 0.719092 -0.393629
vn 0.416954 0.862563 -0.286591
vn 0.485032 0.845783 -0.222250
vn 0.551281 0.718598 -0.423918
vn 0.381276 0.845783 -0.373202
vn 0.046018 0.998440 -0.031630
vn 0.140430 0.984798 0.102236
vn -0.045134 0.984798 -0.167737
vn -0.153683 0.982458 0.105633
vn -0.062685 0.969075 0.238672
vn -0.245286 0.969075 -0.026990
vn -0.217214 0.964639 0.149301
vn -0.124735 0.952457 0.277969
vn -0.304206 0.952457 0.016862
vn -0.521952 0.718597 0.459547
vn -0.496339 0.719092 0.486368
vn -0.361372 0.862563 0.354112
vn -0.439513 0.845783 0.302456
vn -0.470044 0.718598 0.512520
vn -0.311312 0.845783 0.433285
vn -0.039883 0.998440 0.039082
vn -0.155938 0.984798 -0.076525
vn 0.073345 0.984798 0.157459
vn 0.133196 0.982458 -0.130520
vn 0.020647 0.969075 -0.245902
vn 0.246270 0.969075 -0.015653
vn 0.188258 0.964639 -0.184476
vn 0.075004 0.952457 -0.295296
vn 0.296757 0.952457 -0.068996
vn -0.561461 0.434731 -0.704110
vn -0.589884 0.435030 -0.680284
vn -0.506140 0.634909 -0.583706
vn -0.445237 0.612375 -0.653269
vn -0.617495 0.434731 -0.655522
vn -0.583628 0.612375 -0.533269
vn -0.260112 0.917800 -0.299974
vn -0.134491 0.904314 -0.405127
vn -0.381997 0.904314 -0.190511
vn -0.107502 0.986445 -0.123977
vn 0.017527 0.974011 -0.225821
vn -0.226027 0.974011 -0.014632
vn -0.056073 0.996330 -0.064666
vn 0.064324 0.983749 -0.167633
vn -0.175053 0.983749 0.039935
vn 0.112858 0.354305 0.928295
vn 0.149566 0.354549 0.922998
vn 0.131996 0.564849 0.814569
vn 0.043290 0.541294 0.839718
vn 0.186069 0.354305 0.916431
vn 0.224104 0.541294 0.810419
vn 0.076116 0.879525 0.469725
vn -0.086216 0.866341 0.491956
vn 0.237162 0.866341 0.439554
vn 0.039958 0.968296 0.246590
vn -0.120114 0.956345 0.266416
vn 0.198101 0.956345 0.214851
vn 0.027588 0.985015 0.170248
vn -0.129140 0.972576 0.193439
vn 0.183619 0.972576 0.142758
vn 0.666268 0.439022 0.602783
vn 0.690465 0.439324 0.574675
vn 0.591482 0.638590 0.492292
vn 0.542705 0.616117 0.570852
vn 0.713713 0.439022 0.545778
vn 0.659883 0.616117 0.430064
vn 0.301800 0.919685 0.251188
vn 0.194873 0.906186 0.375302
vn 0.404441 0.906186 0.123508
vn 0.122503 0.987217 0.101960
vn 0.015622 0.974760 0.222709
vn 0.221845 0.974760 -0.025065
vn 0.062129 0.996728 0.051710
vn -0.039999 0.984141 0.172820
vn 0.162688 0.984141 -0.070706
vn -0.462821 0.828665 0.314819
vn -0.513932 0.857503 0.023732
vn -0.488682 0.871670 0.037177
vn -0.421236 0.841107 0.339262
vn -0.520968 0.817195 -0.246547
vn -0.480094 0.832576 -0.276274
vn 0.273270 0.960863 -0.045462
vn 0.281820 0.842560 0.458988
vn 0.207095 0.856888 -0.472074
vn 0.738741 0.673121 -0.034190
vn 0.717382 0.630856 0.295608
vn 0.677884 0.637525 -0.366108
vn 0.759022 0.648822 -0.053992
vn 0.738422 0.619491 0.266391
vn 0.709478 0.617125 -0.340290
vn 0.351539 0.812121 -0.465704
vn 0.473624 0.851187 -0.226188
vn 0.455598 0.866769 -0.202836
vn 0.298105 0.829446 -0.472390
vn 0.566022 0.822827 0.050747
vn 0.538298 0.837425 0.094632
vn -0.276601 0.956082 0.096951
vn -0.417635 0.848573 -0.324814
vn -0.032135 0.835613 0.548379
vn -0.667249 0.673232 0.318649
vn -0.773991 0.632960 -0.017329
vn -0.482855 0.627264 0.611057
vn -0.688648 0.655377 0.310233
vn -0.784782 0.619608 0.014236
vn -0.508278 0.621450 0.596199
vn 0.077282 0.807350 0.584990
vn -0.207317 0.859849 0.466561
vn -0.174985 0.882161 0.437233
vn 0.141750 0.832643 0.535362
vn -0.471121 0.828430 0.302900
vn -0.459781 0.855879 0.236799
vn 0.177400 0.954800 -0.238510
vn 0.551613 0.833433 -0.033371
vn -0.254349 0.884087 -0.392042
vn 0.340026 0.678500 -0.651168
vn 0.601739 0.637203 -0.481542
vn 0.038547 0.650188 -0.758795
vn 0.343119 0.643076 -0.684633
vn 0.587779 0.616445 -0.523939
vn 0.076793 0.615726 -0.784209
s 1
g polySurface6
usemtl lambert2SG
f 1/1/1 2/2/2 5/3/3 4/4/4
f 2/2/2 3/5/5 6/6/6 5/3/3
f 4/4/4 5/3/3 8/7/7 7/8/8
f 5/3/3 6/6/6 9/9/9 8/7/7
f 7/8/8 8/7/7 11/10/10 10/11/11
f 8/7/7 9/9/9 12/12/12 11/10/10
f 10/11/11 11/10/10 14/13/13 13/14/14
f 11/10/10 12/12/12 15/15/15 14/13/13
s 2
f 16/16/16 17/17/17 20/18/18 19/19/19
f 17/17/17 18/20/20 21/21/21 20/18/18
f 19/19/19 20/18/18 23/22/22 22/23/23
f 20/18/18 21/21/21 24/24/24 23/22/22
f 22/23/23 23/22/22 26/25/25 25/26/26
f 23/22/22 24/24/24 27/27/27 26/25/25
f 25/26/26 26/25/25 29/28/28 28/29/29
f 26/25/25 27/27/27 30/30/30 29/28/28
s 3
f 31/31/31 32/32/32 35/33/33 34/34/34
f 32/32/32 33/35/35 36/36/36 35/33/33
f 34/34/34 35/33/33 38/37/37 37/38/38
f 35/33/33 36/36/36 39/39/39 38/37/37
f 37/38/38 38/37/37 41/40/40 40/41/41
f 38/37/37 39/39/39 42/42/42 41/40/40
f 40/41/41 41/40/40 44/43/43 43/44/44
f 41/40/40 42/42/42 45/45/45 44/43/43
s 4
f 46/46/46 47/47/47 50/48/48 49/49/49
f 47/47/47 48/50/50 51/51/51 50/48/48
f 49/49/49 50/48/48 53/52/52 52/53/53
f 50/48/48 51/51/51 54/54/54 53/52/52
f 52/53/53 53/52/52 56/55/55 55/56/56
f 53/52/52 54/54/54 57/57/57 56/55/55
f 55/56/56 56/55/55 59/58/58 58/59/59
f 56/55/55 57/57/57 60/60/60 59/58/58
s 5
f 61/61/61 62/62/62 65/63/63 64/64/64
f 62/62/62 63/65/65 66/66/66 65/63/63
f 64/64/64 65/63/63 68/67/67 67/68/68
f 65/63/63 66/66/66 69/69/69 68/67/67
f 67/68/68 68/67/67 71/70/70 70/71/71
f 68/67/67 69/69/69 72/72/72 71/70/70
f 70/71/71 71/70/70 74/73/73 73/74/74
f 71/70/70 72/72/72 75/75/75 74/73/73
s 6
f 76/76/76 77/77/77 80/78/78 79/79/79
f 77/77/77 78/80/80 81/81/81 80/78/78
f 79/79/79 80/78/78 83/82/82 82/83/83
f 80/78/78 81/81/81 84/84/84 83/82/82
f 82/83/83 83/82/82 86/85/85 85/86/86
f 83/82/82 84/84/84 87/87/87 86/85/85
f 85/86/86 86/85/85 89/88/88 88/89/89
f 86/85/85 87/87/87 90/90/90 89/88/88
s 7
f 91/91/91 92/92/92 95/93/93 94/94/94
f 92/92/92 93/95/95 96/96/96 95/93/93
f 94/94/94 95/93/93 98/97/97 97/98/98
f 95/93/93 96/96/96 99/99/99 98/97/97
f 97/98/98 98/97/97 101/100/100 100/101/101
f 98/97/97 99/99/99 102/102/102 101/100/100
f 100/101/101 101/100/100 104/103/103 103/104/104
f 101/100/100 102/102/102 105/105/105 104/103/103
s 8
f 106/106/106 107/107/107 110/108/108 109/109/109
f 107/107/107 108/110/110 111/111/111 110/108/108
f 109/109/109 110/108/108 113/112/112 112/113/113
f 110/108/108 111/111/111 114/114/114 113/112/112
f 112/113/113 113/112/112 116/115/115 115/116/116
f 113/112/112 114/114/114 117/117/117 116/115/115
f 115/116/116 116/115/115 119/118/118 118/119/119
f 116/115/115 117/117/117 120/120/120 119/118/118
s 9
f 121/121/121 122/122/122 125/123/123 124/124/124
f 122/122/122 123/125/125 126/126/126 125/123/123
f 124/124/124 125/123/123 128/127/127 127/128/128
f 125/123/123 126/126/126 129/129/129 128/127/127
f 127/128/128 128/127/127 131/130/130 130/131/131
f 128/127/127 129/129/129 132/132/132 131/130/130
f 130/131/131 131/130/130 134/133/133 133/134/134
f 131/130/130 132/132/132 135/135/135 134/133/133
s 10
f 136/136/136 137/137/137 140/138/138 139/139/139
f 137/137/137 138/140/140 141/141/141 140/138/138
f 139/139/139 140/138/138 143/142/142 142/143/143
f 140/138/138 141/141/141 144/144/144 143/142/142
f 142/143/143 143/142/142 146/145/145 145/146/146
f 143/142/142 144/144/144 147/147/147 146/145/145
f 145/146/146 146/145/145 149/148/148 148/149/149
f 146/145/145 147/147/147 150/150/150 149/148/148
s 11
f 151/151/151 152/152/152 155/153/153 154/154/154
f 152/152/152 153/155/155 156/156/156 155/153/153
f 154/154/154 155/153/153 158/157/157 157/158/158
f 155/153/153 156/156/156 159/159/159 158/157/157
f 157/158/158 158/157/157 161/160/160 160/161/161
f 158/157/157 159/159/159 162/162/162 161/160/160
f 160/161/161 161/160/160 164/163/163 163/164/164
f 161/160/160 162/162/162 165/165/165 164/163/163
s 12
f 166/166/166 167/167/167 170/168/168 169/169/169
f 167/167/167 168/170/170 171/171/171 170/168/168
f 169/169/169 170/168/168 173/172/172 172/173/173
f 170/168/168 171/171/171 174/174/174 173/172/172
f 172/173/173 173/172/172 176/175/175 175/176/176
f 173/172/172 174/174/174 177/177/177 176/175/175
f 175/176/176 176/175/175 179/178/178 178/179/179
f 176/175/175 177/177/177 180/180/180 179/178/178
