# This file uses centimeters as units for non-parametric coordinates.

g default
v -4.945250 7.202195 0.000000
v -4.945250 7.202195 13.267486
v -4.945249 14.333674 -6.505256
v -4.945250 14.333674 13.267486
v -0.000000 14.333674 -6.505257
v 0.000000 14.333674 13.267486
v 0.000000 7.202195 0.000000
v 0.000000 7.202195 13.267486
v -4.945249 21.646685 -6.505256
v -4.945250 21.646684 13.267486
v 0.000000 21.646684 13.267486
v -0.000000 21.646685 -6.505257
v -4.945250 38.456170 -6.505260
v -4.945250 38.878053 0.272630
v -0.000000 38.878053 0.272630
v -0.000001 38.456170 -6.505260
v 0.000000 0.000000 0.000000
v 0.000000 0.000000 13.267486
v -4.945250 0.000000 13.267486
v -4.945250 0.000000 0.000000
v -4.945249 30.328296 6.452035
v -0.000001 30.328296 6.452035
v -0.826890 7.202195 13.267486
v -4.118361 7.202195 13.267486
v -0.826890 14.333674 13.267485
v -4.118361 14.333674 13.267486
v -0.826890 21.646684 13.267486
v -4.118360 21.646685 13.267487
v -0.826890 30.328296 6.452035
v -4.118360 30.328296 6.452036
v -4.118360 0.000000 13.267486
v -0.826889 0.000000 13.267486
v -0.826890 38.878053 0.272630
v -4.118360 38.878053 0.272630
v -0.826889 7.202195 0.000000
v -4.118360 7.202195 0.000001
v -4.118359 14.333674 -6.505256
v -0.826890 14.333674 -6.505257
v -4.118359 21.646685 -6.505256
v -0.826890 21.646685 -6.505257
v -4.118360 38.456170 -6.505260
v -0.826890 38.456170 -6.505257
v -0.826889 0.000000 0.000000
v -4.118360 -0.000001 0.000001
v -1.156037 7.202195 12.849956
v -3.789213 7.202195 12.849955
v -1.156036 14.333674 12.849955
v -3.789213 14.333674 12.849955
v -1.156036 21.646684 12.699674
v -3.789213 21.646684 12.699674
v -1.156037 29.383384 6.452029
v -3.789213 29.383384 6.452030
v -3.789213 0.000003 12.849955
v -1.156036 0.000003 12.849955
v -1.156037 37.830933 0.286322
v -3.789213 37.830933 0.286321
v -1.156037 7.202196 0.774258
v -3.789213 7.202196 0.774258
v -3.789213 14.333679 -5.479337
v -1.156036 14.333679 -5.479335
v -3.789214 21.646685 -5.710342
v -1.156037 21.646684 -5.710340
v -3.789213 37.262646 -5.710349
v -1.156036 37.262646 -5.710347
v -1.156037 0.000003 0.794911
v -3.789213 0.000003 0.794911
v -4.945250 50.309884 -6.505260
v -4.945250 50.309884 0.272630
v -0.000000 50.309884 0.272630
v -0.000001 50.309884 -6.505260
v -4.945250 57.255921 0.272630
v -0.000000 57.255921 0.272630
v -5.357783 14.333679 6.452034
v -5.357783 7.202196 6.452034
v -5.357783 7.202196 12.942821
v -5.357783 14.333679 12.942821
v -5.357783 21.646687 6.452034
v -5.357783 21.646687 12.942821
v -5.357783 38.456174 0.374710
v -5.357784 21.646685 0.374702
v -5.357783 29.864205 6.452034
v -5.357783 0.000003 6.452034
v -5.357783 0.000003 12.942821
v -5.357783 21.646685 -6.180592
v -5.357783 38.456174 -6.180595
v -5.357783 14.333679 -6.180592
v -5.357784 14.333679 0.374702
v -5.357784 7.202196 0.374708
v -5.357784 0.000003 0.374708
v -5.357783 50.309876 0.374710
v -5.357783 50.309876 -6.180595
v -5.357783 56.610539 0.374710
v 0.412534 14.333679 -6.180592
v 0.412534 14.333679 0.374703
v 0.412534 7.202196 0.374708
v 0.412534 21.646685 0.374703
v 0.412534 21.646685 -6.180592
v 0.412534 38.456174 0.374711
v 0.412534 38.456174 -6.180595
v 0.412532 0.000003 6.452034
v 0.412532 7.202196 6.452034
v 0.412534 7.202196 12.942821
v 0.412534 0.000003 12.942821
v 0.412532 21.646687 6.452034
v 0.412534 21.646687 12.942821
v 0.412532 29.864205 6.452034
v 0.412532 14.333679 6.452034
v 0.412534 14.333679 12.942821
v 0.412534 0.000003 0.374708
v 0.412534 50.309876 -6.180595
v 0.412534 50.309876 0.374711
v 0.412534 56.610539 0.374711
vt 0.447334 0.861896
vt 0.891768 0.142379
vt 0.447335 0.977834
vt 0.935582 0.142379
vt 0.935582 0.261412
vt 0.365049 0.977834
vt 0.365049 0.861896
vt 0.384284 0.142379
vt 0.428099 0.142379
vt 0.428099 0.261412
vt 0.891768 0.261412
vt 0.935582 0.383474
vt 0.891768 0.383474
vt 0.935582 0.512609
vt 0.891768 0.512609
vt 0.384284 0.261412
vt 0.428099 0.383474
vt 0.891768 0.022166
vt 0.384284 0.383474
vt 0.428099 0.644123
vt 0.384284 0.644123
vt 0.384284 0.022166
vt 0.428099 0.022166
vt 0.447335 0.142379
vt 0.694080 0.262973
vt 0.694080 0.141989
vt 0.447334 0.261412
vt 0.317017 0.262973
vt 0.797259 0.141989
vt 0.797259 0.262973
vt 0.694080 0.387038
vt 0.797259 0.387038
vt 0.433576 0.261412
vt 0.935582 0.022166
vt 0.433576 0.142379
vt 0.365049 0.261412
vt 0.212814 0.262973
vt 0.365049 0.142379
vt 0.378808 0.142379
vt 0.935582 0.653608
vt 0.891768 0.653608
vt 0.954818 0.142379
vt 0.954818 0.261412
vt 0.941059 0.261412
vt 0.941059 0.142379
vt 0.872532 0.261412
vt 0.872532 0.142379
vt 0.886291 0.142379
vt 0.886291 0.261412
vt 0.954818 0.383474
vt 0.941059 0.383474
vt 0.378808 0.261412
vt 0.447334 0.383474
vt 0.433576 0.383474
vt 0.872532 0.383474
vt 0.365049 0.383474
vt 0.378808 0.383474
vt 0.447334 0.664044
vt 0.433576 0.664044
vt 0.365049 0.664044
vt 0.378808 0.664044
vt 0.365049 0.022166
vt 0.378808 0.022166
vt 0.447335 0.022166
vt 0.433576 0.022166
vt 0.454199 0.383474
vt 0.886291 0.383474
vt 0.954818 0.528381
vt 0.941059 0.528381
vt 0.872532 0.528381
vt 0.454199 0.664044
vt 0.454199 0.261412
vt 0.454199 0.142379
vt 0.454199 0.022166
vt 0.886291 0.528381
vt 0.872532 0.022166
vt 0.886291 0.022166
vt 0.954818 0.022166
vt 0.454199 0.861896
vt 0.454199 0.967061
vt 0.358184 0.261412
vt 0.358184 0.142379
vt 0.941059 0.022166
vt 0.358184 0.383474
vt 0.358184 0.664044
vt 0.358184 0.022166
vt 0.358184 0.861896
vt 0.358184 0.967061
vt 0.954818 0.671086
vt 0.941059 0.671086
vt 0.872532 0.671086
vt 0.886291 0.671086
vt 0.954818 0.861896
vt 0.597475 0.980196
vt 0.493271 0.873306
vt 0.872532 0.861896
vt 0.954818 0.977834
vt 0.597475 0.873306
vt 0.597475 0.019804
vt 0.872532 0.977834
vt 0.865668 0.261412
vt 0.865668 0.142379
vt 0.865668 0.383474
vt 0.865668 0.664044
vt 0.865668 0.520634
vt 0.597475 0.141989
vt 0.865668 0.022166
vt 0.865668 0.861896
vt 0.597475 0.262973
vt 0.493271 0.262973
vt 0.493271 0.672209
vt 0.212814 0.980196
vt 0.865668 0.967061
vt 0.212814 0.873306
vt 0.317018 0.873306
vt 0.597475 0.672209
vt 0.961682 0.022166
vt 0.212814 0.019804
vt 0.116208 0.262973
vt 0.961682 0.142379
vt 0.013030 0.262973
vt 0.116208 0.526447
vt 0.597475 0.387038
vt 0.694080 0.526447
vt 0.961682 0.383474
vt 0.116208 0.387038
vt 0.694080 0.019804
vt 0.797259 0.019804
vt 0.212814 0.141989
vt 0.212814 0.387038
vt 0.493271 0.387038
vt 0.961682 0.520634
vt 0.961682 0.261412
vt 0.961682 0.664044
vt 0.317017 0.387038
vt 0.961682 0.861896
vt 0.961682 0.967061
vt 0.212814 0.672209
vt 0.013030 0.387038
vt 0.013030 0.019804
vt 0.317018 0.672209
vt 0.013030 0.141989
vt 0.116208 0.141989
vt 0.116208 0.019804
vn -1.000000 -0.000000 0.000000
vn -1.000000 -0.000000 0.000000
vn -1.000000 0.000000 0.000000
vn -1.000000 0.000000 0.000000
vn -0.050186 0.698116 -0.714223
vn -0.046662 0.698193 -0.714387
vn 0.046662 0.698193 -0.714387
vn 0.050186 0.698116 -0.714223
vn 1.000000 0.000000 0.000000
vn 1.000000 0.000000 0.000000
vn 1.000000 0.000000 0.000000
vn -0.000000 0.000000 1.000000
vn -0.000000 0.000000 1.000000
vn -0.000000 0.000000 1.000000
vn -0.000000 0.000000 1.000000
vn 0.000000 -0.659313 -0.751869
vn 0.000000 -0.659313 -0.751869
vn 0.000000 -0.659313 -0.751869
vn 0.000000 -0.659313 -0.751869
vn -1.000000 0.000000 0.000000
vn -1.000000 0.000000 0.000000
vn -1.000000 0.000000 0.000000
vn -1.000000 0.000000 0.000000
vn 0.000000 0.020545 0.999789
vn 0.000000 0.020545 0.999789
vn 0.000000 0.020545 0.999789
vn 0.000000 0.020545 0.999789
vn 1.000000 0.000000 0.000000
vn 1.000000 0.000000 0.000000
vn 1.000000 0.000000 0.000000
vn 1.000000 0.000000 0.000000
vn 0.000001 -0.031573 -0.999502
vn 0.000001 -0.031573 -0.999502
vn 0.000001 -0.031573 -0.999502
vn 0.000001 -0.031573 -0.999501
vn -1.000000 0.000000 -0.000000
vn -1.000000 0.000000 -0.000000
vn -1.000000 0.000000 0.000000
vn -1.000000 0.000000 0.000000
vn 0.000000 0.628262 0.778002
vn 0.000000 0.628262 0.778002
vn 0.000000 0.608599 0.793478
vn 0.000000 0.608599 0.793478
vn 1.000000 0.000000 0.000000
vn 1.000000 0.000000 0.000000
vn 1.000000 0.000000 0.000000
vn 1.000000 0.000000 0.000000
vn 0.000001 -0.000000 -1.000000
vn 0.000001 -0.000000 -1.000000
vn 0.000001 -0.059523 -0.998227
vn 0.000001 -0.059523 -0.998227
vn 1.000000 0.000000 0.000000
vn 1.000000 0.000000 0.000000
vn 1.000000 0.000000 -0.000000
vn 1.000000 0.000000 -0.000000
vn -0.000000 -0.000000 1.000000
vn -0.000000 -0.000000 1.000000
vn -0.000000 -0.000000 1.000000
vn -0.000000 -0.000000 1.000000
vn -1.000000 0.000000 0.000000
vn -1.000000 0.000000 0.000000
vn -1.000000 0.000000 0.000000
vn -1.000000 0.000000 0.000000
vn 0.000000 -0.002868 -0.999996
vn 0.000000 -0.002868 -0.999996
vn 0.000000 -0.002868 -0.999996
vn 0.000000 -0.002868 -0.999996
vn -1.000000 0.000000 -0.000000
vn -1.000000 0.000000 -0.000000
vn -1.000000 0.000000 -0.000000
vn -1.000000 0.000000 -0.000000
vn -1.000000 0.000000 -0.000000
vn -1.000000 0.000000 -0.000000
vn -1.000000 -0.000000 0.000000
vn -1.000000 -0.000000 0.000000
vn -1.000000 -0.000000 -0.000000
vn 1.000000 0.000000 -0.000000
vn 1.000000 -0.000000 0.000000
vn 1.000000 -0.000000 0.000000
vn 1.000000 0.000000 -0.000000
vn 1.000000 0.000000 -0.000000
vn 1.000000 0.000000 -0.000000
vn 1.000000 0.000000 -0.000000
vn 1.000000 0.000000 0.000000
vn 1.000000 0.000000 0.000000
vn 1.000000 0.000000 -0.000000
vn 1.000000 0.000000 -0.000000
vn -1.000000 0.000000 0.000000
vn -1.000000 0.000000 0.000000
vn -1.000000 0.000000 0.000000
vn 1.000000 0.000000 0.000000
vn 1.000000 0.000000 0.000000
vn 0.000000 0.589549 0.807733
vn 0.000000 0.589549 0.807733
vn 0.253399 0.000000 0.967362
vn 0.253399 -0.000000 0.967362
vn -0.000001 0.000000 1.000000
vn -0.000001 0.000000 1.000000
vn -0.253399 -0.000000 0.967362
vn -0.253399 0.000000 0.967362
vn 0.000001 0.000000 1.000000
vn 0.000001 0.000000 1.000000
vn 0.253400 -0.000000 0.967362
vn -0.000001 -0.000000 1.000000
vn -0.000001 -0.000000 1.000000
vn -0.253400 -0.000000 0.967362
vn -0.000000 -0.000000 1.000000
vn -0.000000 -0.000000 1.000000
vn 0.173017 0.608484 0.774476
vn 0.183305 0.588943 0.787112
vn 0.000000 0.617496 0.786574
vn 0.000000 0.617496 0.786574
vn -0.183306 0.588943 0.787112
vn -0.173018 0.608484 0.774476
vn -0.000001 0.617496 0.786574
vn -0.000001 0.617496 0.786574
vn -0.253399 0.000000 0.967362
vn 0.000000 0.000000 1.000000
vn 0.000000 0.000000 1.000000
vn 0.253399 -0.000000 0.967362
vn 0.000000 -0.000000 1.000000
vn 0.000000 -0.000000 1.000000
vn 0.109109 0.581418 0.806256
vn 0.000000 0.585776 0.810473
vn 0.000000 0.585776 0.810473
vn -0.109109 0.581418 0.806256
vn -0.000000 0.585776 0.810473
vn -0.000000 0.585776 0.810473
vn -0.239001 -0.654934 -0.716896
vn -0.164231 -0.665145 -0.728430
vn 0.000001 -0.673925 -0.738800
vn 0.000001 -0.673925 -0.738800
vn 0.164232 -0.665145 -0.728430
vn 0.239002 -0.654934 -0.716896
vn 0.000000 -0.673925 -0.738800
vn 0.000000 -0.673925 -0.738800
vn -0.253398 0.000000 -0.967362
vn -0.253398 -0.000000 -0.967362
vn 0.000000 0.000000 -1.000000
vn 0.000000 0.000000 -1.000000
vn 0.253398 -0.000000 -0.967362
vn 0.253398 0.000000 -0.967362
vn 0.000000 0.000000 -1.000000
vn 0.000000 0.000000 -1.000000
vn -0.109668 -0.000000 -0.993968
vn 0.000000 -0.000000 -1.000000
vn 0.000000 -0.000000 -1.000000
vn 0.109668 -0.000000 -0.993968
vn -0.000000 -0.000000 -1.000000
vn -0.000000 -0.000000 -1.000000
vn -0.060485 -0.000000 -0.998169
vn 0.060485 -0.000000 -0.998169
vn -0.000002 -0.000000 -1.000000
vn -0.000002 -0.000000 -1.000000
vn 0.289389 0.000000 -0.957211
vn 0.289389 0.000000 -0.957212
vn 0.000000 0.000000 -1.000000
vn 0.000000 0.000000 -1.000000
vn -0.289388 0.000000 -0.957212
vn -0.289389 0.000000 -0.957212
vn 0.000001 0.000000 -1.000000
vn 0.000001 0.000000 -1.000000
vn -0.785324 -0.000000 0.619085
vn -0.810573 0.003046 0.585630
vn -0.810690 0.003061 0.585468
vn -0.785324 -0.000000 0.619085
vn 0.810572 0.003046 0.585631
vn 0.785324 0.000000 0.619085
vn 0.785324 0.000000 0.619085
vn 0.810690 0.003061 0.585468
vn -0.850772 0.168714 0.497717
vn -0.851341 0.229980 0.471516
vn 0.850772 0.168714 0.497717
vn 0.851341 0.229980 0.471516
vn -0.864159 0.299830 0.404142
vn -0.849878 0.323976 0.415629
vn 0.864160 0.299829 0.404142
vn 0.849878 0.323975 0.415629
vn 0.785324 0.000000 0.619085
vn 0.785324 0.000000 0.619085
vn -0.785324 -0.000000 0.619085
vn -0.785324 -0.000000 0.619085
vn -0.869632 0.290126 0.399459
vn -0.869632 0.290126 0.399459
vn -0.000000 0.013074 0.999915
vn -0.000000 0.013074 0.999915
vn -0.000000 0.013074 0.999915
vn -0.000000 0.013074 0.999915
vn 0.869632 0.290126 0.399458
vn 0.869632 0.290126 0.399458
vn 0.916632 -0.185602 -0.354032
vn 0.934268 -0.110183 -0.339122
vn 0.924518 -0.179008 -0.336486
vn 0.922314 -0.120655 -0.367124
vn -0.934268 -0.110183 -0.339122
vn -0.916632 -0.185602 -0.354032
vn -0.922313 -0.120655 -0.367125
vn -0.924518 -0.179008 -0.336486
vn 0.929698 -0.001808 -0.368320
vn 0.929767 -0.001831 -0.368145
vn -0.929697 -0.001808 -0.368320
vn -0.929767 -0.001831 -0.368145
vn 0.923928 -0.000000 -0.382567
vn 0.923928 -0.000000 -0.382567
vn 0.000001 -0.554327 -0.832299
vn 0.000001 -0.554327 -0.832299
vn -0.923927 -0.000000 -0.382568
vn -0.923928 -0.000000 -0.382568
vn -0.922141 -0.000555 -0.386855
vn -0.922141 -0.000555 -0.386855
vn 0.922141 -0.000555 -0.386854
vn 0.922141 -0.000555 -0.386854
vn -1.000000 0.000000 0.000000
vn -1.000000 0.000000 0.000000
vn -1.000000 0.000000 0.000000
vn -1.000000 0.000000 0.000000
vn -0.027921 0.000000 0.999610
vn -0.018942 0.000000 0.999821
vn 0.018942 0.000000 0.999821
vn 0.027921 0.000000 0.999610
vn 0.000000 0.000000 1.000000
vn 0.000000 0.000000 1.000000
vn 1.000000 0.000000 0.000000
vn 1.000000 0.000000 0.000000
vn 1.000000 0.000000 0.000000
vn 1.000000 0.000000 0.000000
vn -1.000000 0.000000 0.000000
vn -1.000000 0.000000 0.000000
vn -1.000000 0.000000 0.000000
vn -0.007088 0.000000 0.999975
vn 0.007088 0.000000 0.999975
vn 1.000000 0.000000 0.000000
vn 1.000000 0.000000 0.000000
vn 1.000000 0.000000 0.000000
vn -0.618448 0.000000 0.785826
vn -0.618448 0.000000 0.785825
vn -0.618448 0.000000 0.785826
vn -0.464088 0.515206 0.720545
vn -0.526137 0.517089 0.675129
vn -0.618448 0.000000 0.785825
vn -0.618446 -0.000000 -0.785827
vn -0.618446 -0.000000 -0.785828
vn -0.618447 0.000000 -0.785827
vn -0.530096 -0.572643 -0.625363
vn -0.530095 -0.572643 -0.625363
vn -0.549176 0.516998 0.656596
vn -0.672356 0.000000 -0.740228
vn -0.672356 0.000000 -0.740228
vn 0.240203 0.000000 0.970723
vn 0.240203 0.000000 0.970723
vn -0.618445 0.000000 -0.785828
vn 0.240203 0.000000 0.970723
vn -0.676840 0.522214 -0.518826
vn -0.676840 0.522214 -0.518826
vn 0.530096 -0.572643 -0.625363
vn 0.530096 -0.572643 -0.625363
vn 0.618447 -0.000000 -0.785827
vn 0.618447 0.000000 -0.785827
vn 0.618447 -0.000000 -0.785827
vn 0.618448 0.000000 0.785826
vn 0.618448 0.000000 0.785826
vn 0.549176 0.516998 0.656596
vn 0.526137 0.517089 0.675129
vn 0.618448 0.000000 0.785826
vn 0.618448 0.000000 0.785826
vn 0.672357 0.000000 -0.740227
vn 0.672357 0.000000 -0.740227
vn 0.464087 0.515206 0.720545
vn 0.618446 0.000000 -0.785827
vn -0.240204 0.000000 0.970722
vn -0.240205 0.000000 0.970722
vn 0.676839 0.522214 -0.518827
vn 0.676839 0.522214 -0.518827
vn -0.240206 0.000000 0.970722
s 1
g Alien_Structure_2a
f 73/25/1 74/26/2 75/29/3 76/30/4
s 2
f 67/1/5 71/3/6 72/6/7 70/7/8
s 3
f 93/28/9 94/37/10 95/129/11
s off
f 46/2/12 45/4/13 47/5/14 48/11/15
f 57/8/16 58/9/17 59/10/18 60/16/19
s 4
f 77/31/20 73/25/21 76/30/22 78/32/23
s off
f 48/11/24 47/5/25 49/12/26 50/13/27
s 5
f 96/130/28 94/37/29 93/28/30 97/135/31
s off
f 60/16/32 59/10/33 61/17/34 62/19/35
s 6
f 79/116/36 80/123/37 77/31/38 81/124/39
s 7
f 50/13/40 49/12/41 51/14/42 52/15/43
s 8
f 98/138/44 96/130/45 97/135/46 99/141/47
s 9
f 62/19/48 61/17/49 63/20/50 64/21/51
s 10
f 100/144/52 101/143/53 102/142/54 103/140/55
s off
f 45/4/56 46/2/57 53/18/58 54/34/59
s 11
f 75/29/60 74/26/61 82/127/62 83/128/63
s off
f 58/9/64 57/8/65 65/22/66 66/23/67
s 6
f 84/131/68 80/123/37 79/116/36 85/111/69
s 4
f 86/110/70 87/109/71 80/123/72 84/131/73
s 1
f 88/106/74 87/109/75 86/110/76
s 8
f 105/139/77 104/126/78 106/122/79
s 5
f 108/121/80 107/119/81 104/126/82 105/139/83
s 3
f 101/143/84 107/119/85 108/121/86 102/142/87
s 6
f 81/124/39 77/31/38 78/32/88
s 4
f 80/123/72 87/109/71 73/25/21 77/31/20
s 1
f 88/106/74 74/26/2 73/25/1 87/109/75
s 11
f 82/127/62 74/26/61 88/106/89 89/99/90
s 10
f 95/129/91 101/143/53 100/144/52 109/118/92
s 3
f 95/129/11 94/37/10 107/119/85 101/143/84
s 5
f 104/126/82 107/119/81 94/37/29 96/130/28
s 8
f 106/122/79 104/126/78 96/130/45 98/138/44
s 7
f 52/15/43 51/14/42 55/40/93 56/41/94
s 12
f 8/42/95 6/43/96 25/44/97 23/45/98
s 13
f 4/46/99 2/47/100 24/48/101 26/49/102
s 12
f 6/43/96 11/50/103 27/51/104 25/44/105
s 13
f 10/55/106 4/46/99 26/49/107 28/67/108
s 16
f 11/50/109 22/68/110 29/69/111 27/51/112
s 17
f 21/70/113 10/55/114 28/67/115 30/75/116
s 13
f 2/47/100 19/76/117 31/77/118 24/48/119
s 12
f 18/78/120 8/42/95 23/45/121 32/83/122
s 16
f 22/68/110 15/89/123 33/90/124 29/69/125
s 17
f 14/91/126 21/70/113 30/75/127 34/92/128
s 22
f 1/24/129 3/27/130 37/33/131 36/35/132
s 23
f 5/36/133 7/38/134 35/39/135 38/52/136
s 24
f 3/27/137 9/53/138 39/54/139 37/33/140
f 12/56/141 5/36/142 38/52/143 40/57/144
f 9/53/138 13/58/145 41/59/146 39/54/147
f 16/60/148 42/61/149 41/59/150 13/58/145 67/1/151 70/7/152
f 16/60/148 12/56/141 40/57/153 42/61/154
s 29
f 7/38/155 17/62/156 43/63/157 35/39/158
s 30
f 20/64/159 1/24/160 36/35/161 44/65/162
s 31
f 23/45/163 25/44/164 47/5/165 45/4/166
s 32
f 26/49/167 24/48/168 46/2/169 48/11/170
s 31
f 25/44/164 27/51/171 49/12/172 47/5/165
s 32
f 28/67/173 26/49/167 48/11/170 50/13/174
s 31
f 27/51/171 29/69/175 51/14/176 49/12/172
s 32
f 30/75/177 28/67/173 50/13/174 52/15/178
f 24/48/168 31/77/179 53/18/180 46/2/169
s 31
f 32/83/181 23/45/163 45/4/166 54/34/182
f 29/69/175 33/90/183 55/40/184 51/14/176
s off
f 33/90/185 34/92/186 56/41/187 55/40/188
s 32
f 34/92/189 30/75/177 52/15/178 56/41/190
s 33
f 36/35/191 37/33/192 59/10/193 58/9/194
s 34
f 38/52/195 35/39/196 57/8/197 60/16/198
s 33
f 37/33/192 39/54/199 61/17/200 59/10/193
s 34
f 40/57/201 38/52/195 60/16/198 62/19/202
s 33
f 39/54/199 41/59/203 63/20/204 61/17/200
s 9
f 41/59/205 42/61/206 64/21/51 63/20/50
s 34
f 42/61/207 40/57/201 62/19/202 64/21/208
f 35/39/196 43/63/209 65/22/210 57/8/197
s 33
f 44/65/211 36/35/191 58/9/194 66/23/212
s off
f 85/111/213 79/116/214 90/98/215 91/95/216
s 35
f 15/89/217 69/93/218 68/96/219 14/91/220 34/92/221 33/90/222
s off
f 98/138/223 99/141/224 110/115/225 111/114/226
f 91/95/227 90/98/228 92/94/229
s 35
f 68/96/219 69/93/218 72/97/230 71/100/231
s off
f 111/114/232 110/115/233 112/112/234
s 13
f 2/47/100 4/46/99 76/101/235 75/102/236
f 4/46/99 10/55/106 78/103/237 76/101/235
s 17
f 21/70/113 14/91/126 79/104/238 81/105/239
s 13
f 19/76/117 2/47/100 75/102/236 83/107/240
s 24
f 13/58/145 9/53/138 84/66/241 85/71/242
f 9/53/138 3/27/137 86/72/243 84/66/241
s 22
f 3/27/130 1/24/129 88/73/244 86/72/245
s 17
f 10/55/114 21/70/113 81/105/239 78/103/246
s 30
f 1/24/160 20/64/159 89/74/247 88/73/248
s 35
f 14/91/220 68/96/219 90/108/249 79/104/250
s 24
f 67/1/151 13/58/145 85/71/242 91/79/251
s 35
f 68/96/219 71/100/231 92/113/252 90/108/249
s 2
f 71/3/6 67/1/5 91/79/253 92/80/254
s 23
f 7/38/134 5/36/133 93/81/255 95/82/256
s 24
f 5/36/142 12/56/141 97/84/257 93/81/258
f 12/56/141 16/60/148 99/85/259 97/84/257
s 12
f 8/42/95 18/78/120 103/117/260 102/120/261
s 16
f 22/68/110 11/50/109 105/125/262 106/132/263
s 12
f 11/50/103 6/43/96 108/133/264 105/125/265
f 6/43/96 8/42/95 102/120/261 108/133/264
s 29
f 17/62/156 7/38/155 95/82/266 109/86/267
s 16
f 15/89/123 22/68/110 106/132/263 98/134/268
s 24
f 16/60/148 70/7/152 110/87/269 99/85/259
s 35
f 69/93/218 15/89/217 98/134/270 111/136/271
s 2
f 70/7/8 72/6/7 112/88/272 110/87/273
s 35
f 72/97/230 69/93/218 111/136/271 112/137/274
