# This file uses centimeters as units for non-parametric coordinates.

g default
v -18.978802 20.717297 1.936077
v -17.950150 0.954606 4.477666
v 26.505726 19.964119 0.051115
v -21.003771 15.827410 -0.405431
v -19.933422 18.117228 1.728878
v -28.479830 20.887793 -8.783327
v -29.737038 16.305277 -8.956956
v 27.975779 15.186431 -1.624871
v -30.047243 0.983498 -8.344264
v 30.074081 0.824920 -8.492478
v 23.051270 0.728841 3.275853
v 28.289003 20.057995 -8.959313
v 30.087784 18.190500 -9.305571
v 29.805429 15.304472 -8.958753
v 27.240709 18.117228 0.606716
v -29.658337 18.326736 -8.870142
v 30.074087 0.805704 -6.135164
v 30.505093 15.280865 -7.182808
v 30.681530 18.175846 -6.858293
v 28.922464 20.599022 -6.623363
v -29.155525 21.541525 -6.440499
v -30.536230 18.284834 -7.909561
v -30.566284 16.209703 -7.210938
v -30.047239 0.977720 -5.565940
v -30.047220 0.966163 -3.034116
v -30.253864 16.018557 -3.718902
v -30.321108 18.201031 -3.189176
v -28.535999 22.116041 -1.754842
v 28.249846 21.100649 -1.777341
v 29.929489 18.146538 -3.363348
v 29.964882 15.233648 -3.630918
v 30.074081 0.767273 -1.388328
v 29.356836 8.064696 -8.657984
v 29.356840 8.043284 -6.682584
v 29.356833 8.000461 -2.509623
v 21.881886 7.957636 0.064762
v -14.860314 8.391007 1.266562
v -28.470116 8.492360 -3.856631
v -28.470129 8.593712 -6.503553
v -28.470121 8.644387 -8.650610
v 19.749428 0.763754 5.490828
v 19.996801 8.024653 2.279737
v 20.244177 15.285553 -0.101891
v 20.009739 18.117228 1.531208
v 18.995571 20.694668 2.114636
v 19.468369 21.376312 -1.814355
v 19.941168 20.849667 -6.559517
v 19.510159 20.186316 -8.932098
v 0.754689 0.840095 2.601678
v 0.931794 8.171195 -0.609400
v 0.169929 15.502296 0.788136
v -0.036550 18.117228 1.531208
v 0.230753 20.703718 2.114638
v 0.266623 22.472893 -1.790550
v 0.302490 21.460644 -6.511910
v 0.314164 20.466906 -8.872590
v -3.981830 0.867437 0.183731
v -3.829890 8.223680 -3.027350
v -7.019794 15.579924 1.216111
v -7.216259 18.117228 1.531208
v -6.489989 20.706961 2.114639
v -6.610609 22.515036 -1.782024
v -6.731230 21.541689 -6.494860
v -6.561007 20.567400 -8.851276
v 15.223630 0.794290 1.252931
v 15.442896 8.083270 -1.958148
v 12.214478 15.372252 0.254120
v 11.991224 18.117228 1.531208
v 11.489644 20.698288 2.114637
v 11.787671 21.736324 -1.804833
v 12.085697 20.940182 -6.540475
v 11.831761 20.298552 -8.908295
v -25.031538 0.961540 -1.416597
v -23.454422 8.451818 -4.627677
v -26.559223 15.942099 -3.223601
v -26.178690 18.167509 -1.089020
v -24.231823 21.415983 -0.604710
v -6.562361 22.231510 0.103110
v 0.252275 22.204927 0.097994
v 11.668460 21.879118 0.089424
v 19.279249 21.536486 0.083710
v 27.980797 20.970543 -1.186536
v 29.628674 18.134813 -1.405525
v 29.748798 15.214762 -2.210162
v 23.827202 7.983331 -2.039753
v 24.544451 0.751900 1.171327
v 28.579659 20.656931 -0.780122
v 28.969875 20.729933 -1.884611
v 29.459370 20.616085 -6.665836
v -24.854584 21.057121 -0.611373
v -29.148010 21.433395 -1.766747
v -29.856144 20.358742 -6.475740
v -29.082153 19.578859 -8.827698
v 28.434692 18.126020 -0.399405
v 27.542692 20.310524 -0.364504
v 27.534739 16.944908 -0.751660
v 20.103516 16.984558 0.412228
v 12.080526 17.019238 0.554632
v 0.046042 17.071255 0.768238
v -7.137673 17.102306 0.939428
v -20.361561 17.201302 -0.684428
v -26.330902 17.277346 -2.970273
v -30.294210 17.328041 -3.866808
v -30.548252 17.454782 -6.790345
v -29.689817 17.518154 -8.904868
v -22.827238 0.958073 3.306655
v -20.493761 8.421413 0.095563
v -23.781498 15.884754 -1.814516
v -23.346231 17.239323 -1.827350
v -23.056057 18.142368 0.319929
v -21.916693 20.887209 0.662352
vt 0.718840 0.660120
vt 0.855080 0.881780
vt 0.293740 0.273600
vt 0.765950 0.713850
vt 0.725430 0.704730
vt 0.760450 0.641550
vt 0.794520 0.666440
vt 0.242860 0.235910
vt 0.957530 0.749050
vt 0.190550 0.055170
vt 0.109040 0.119230
vt 0.316280 0.235980
vt 0.302560 0.223450
vt 0.285250 0.202500
vt 0.268300 0.254755
vt 0.777485 0.653995
vt 0.174248 0.067982
vt 0.276772 0.209182
vt 0.295708 0.229711
vt 0.311772 0.243504
vt 0.752128 0.645264
vt 0.767074 0.664142
vt 0.788806 0.675922
vt 0.937040 0.775596
vt 0.896060 0.828688
vt 0.777378 0.694886
vt 0.746252 0.684436
vt 0.735484 0.652692
vt 0.302756 0.258552
vt 0.282004 0.242233
vt 0.259816 0.222546
vt 0.141644 0.093606
vt 0.237900 0.128835
vt 0.225510 0.138582
vt 0.200730 0.158076
vt 0.175950 0.177570
vt 0.810515 0.797815
vt 0.836719 0.761787
vt 0.862923 0.725759
vt 0.876025 0.707745
vt 0.224409 0.237152
vt 0.274080 0.273486
vt 0.323752 0.309820
vt 0.338991 0.324340
vt 0.359478 0.333372
vt 0.369674 0.319503
vt 0.379870 0.305633
vt 0.384967 0.298698
vt 0.476677 0.495003
vt 0.488654 0.483218
vt 0.500631 0.471432
vt 0.493567 0.476496
vt 0.503223 0.464071
vt 0.515998 0.452778
vt 0.528773 0.441485
vt 0.535160 0.435839
vt 0.567029 0.587354
vt 0.565505 0.558334
vt 0.563982 0.529314
vt 0.548929 0.530992
vt 0.554706 0.510882
vt 0.568405 0.500512
vt 0.582104 0.490142
vt 0.588953 0.484957
vt 0.325316 0.340293
vt 0.359910 0.357379
vt 0.394503 0.374465
vt 0.400822 0.385202
vt 0.416976 0.385652
vt 0.428204 0.372813
vt 0.439431 0.359974
vt 0.445045 0.353554
vt 0.879668 0.849925
vt 0.826237 0.776198
vt 0.772807 0.702472
vt 0.737923 0.692554
vt 0.728826 0.655663
vt 0.562925 0.504660
vt 0.510888 0.457296
vt 0.423713 0.377948
vt 0.365596 0.325050
vt 0.299150 0.264571
vt 0.276522 0.247242
vt 0.253034 0.227892
vt 0.190818 0.165874
vt 0.128602 0.103856
vt 0.290927 0.258273
vt 0.293860 0.251556
vt 0.306869 0.239294
vt 0.731736 0.667464
vt 0.739176 0.663575
vt 0.759712 0.654843
vt 0.769156 0.647911
vt 0.272411 0.250998
vt 0.292333 0.265937
vt 0.258124 0.247217
vt 0.332896 0.318532
vt 0.398294 0.380907
vt 0.496393 0.474470
vt 0.554950 0.530321
vt 0.741638 0.708378
vt 0.751877 0.696521
vt 0.758702 0.688616
vt 0.775767 0.668854
vt 0.784299 0.658973
vt 0.867374 0.865852
vt 0.818376 0.787007
vt 0.769378 0.708161
vt 0.746757 0.702449
vt 0.731677 0.698642
vt 0.725288 0.663792
vn 0.283813 0.278305 0.917604
vn 0.104531 0.366228 0.924635
vn 0.170829 0.138676 0.975493
vn 0.117012 0.015432 0.993011
vn -0.717399 -0.210899 0.663973
vn -0.999337 0.016004 -0.032718
vn -0.617532 0.070301 0.783398
vn -0.989931 0.046537 -0.133680
vn -0.999522 -0.030112 0.006959
vn -0.978994 0.203886 0.001429
vn -0.407074 0.102676 0.907606
vn -0.630233 0.213640 0.746434
vn 0.449564 0.892539 0.035571
vn 0.864118 0.488658 0.120467
vn 0.005125 0.996024 -0.088943
vn 0.809680 0.585187 -0.044434
vn 0.999869 -0.009412 0.013210
vn 0.668055 0.123727 0.733753
vn 0.995113 0.098740 0.000845
vn 0.767240 0.171868 0.617903
vn -0.007860 -0.217698 0.975985
vn 0.012085 -0.100247 0.994889
vn -0.007541 -0.206172 0.978487
vn 0.015485 -0.085077 0.996254
vn -0.017527 0.993655 -0.111100
vn -0.002261 0.966042 -0.258377
vn -0.003200 0.995163 -0.098187
vn -0.000416 0.985671 -0.168680
vn -0.044262 -0.179956 0.982678
vn -0.104250 -0.494332 0.863000
vn -0.062336 0.168791 0.983679
vn -0.107357 0.245811 0.963354
vn 0.971221 0.180783 0.155072
vn 0.984176 -0.028066 0.174956
vn 0.981464 0.190584 0.020175
vn 0.996116 -0.080848 -0.034877
vn -0.713117 0.132877 0.688338
vn -0.921943 0.383990 -0.050722
vn -0.843419 -0.074536 0.532062
vn -0.954988 0.224692 -0.193680
vn 0.999204 -0.027013 -0.029373
vn 0.995120 0.098668 0.000840
vn 0.899564 0.286911 -0.329342
vn 0.921402 -0.133982 -0.364783
vn 0.582138 0.670334 -0.460183
vn 0.000180 0.961065 -0.276321
vn 0.011794 0.924209 -0.381704
vn -0.776191 0.458834 -0.432434
vn -0.720191 0.249634 -0.647309
vn -0.891737 -0.028431 -0.451660
vn -0.903139 0.053453 -0.426008
vn -0.979243 0.202690 0.001013
vn -0.998846 -0.036189 -0.031569
vn -0.456191 0.116965 0.882161
vn -0.563686 0.369257 0.738856
vn -0.287879 -0.618966 0.730758
vn -0.300974 -0.098847 0.948496
vn -0.323516 0.059093 0.944376
vn -0.345111 -0.413141 0.842741
vn -0.022281 0.922068 0.386386
vn -0.023734 0.857446 0.514027
vn 0.098913 0.852991 0.512467
vn 0.645880 0.330873 0.688013
vn 0.867314 -0.013767 0.497571
vn 0.773821 -0.138819 0.618005
vn 0.370426 0.113238 0.921934
vn 0.468674 0.322585 0.822365
vn 0.991662 -0.127384 -0.019486
vn 0.927608 -0.072699 -0.366413
vn 0.988074 -0.109402 0.108352
vn 0.484906 -0.110584 0.867547
vn 0.133076 -0.260176 0.956347
vn -0.111969 0.129032 0.985299
vn -0.744838 -0.204814 0.635033
vn -0.166463 -0.172130 0.970908
vn -0.967043 -0.235703 -0.096296
vn -0.887562 -0.163995 -0.430511
vn -0.222243 0.400666 0.888862
vn 0.562864 0.338596 0.754014
vn -0.261579 0.383553 0.885699
vn 0.514958 0.193947 0.834987
vn 0.002985 -0.007741 0.999966
vn 0.193661 0.065543 0.978877
vn 0.072415 -0.496756 0.864864
vn 0.098642 -0.292475 0.951172
vn 0.146181 -0.535176 0.831997
vn 0.171881 -0.403219 0.898817
vn 0.085877 -0.187656 0.978473
vn 0.143379 -0.132822 0.980714
vn 0.154184 0.228119 0.961348
vn 0.119742 0.329401 0.936567
vn 0.092786 0.977134 0.191312
vn 0.089333 0.904238 0.417581
vn 0.033691 0.993788 -0.106069
vn 0.028620 0.996678 -0.076250
vn 0.019012 0.986684 -0.161536
vn 0.026612 0.989595 -0.141396
vn 0.012031 0.962656 -0.270461
vn 0.023558 0.970895 -0.238344
vn -0.041700 0.401705 0.914819
vn -0.153853 0.402495 0.902401
vn -0.071295 0.120818 0.990111
vn -0.101069 0.129951 0.986356
vn -0.011085 -0.285869 0.958205
vn 0.067026 -0.245331 0.967120
vn 0.021769 -0.274589 0.961315
vn 0.033721 0.004148 0.999423
vn 0.020572 -0.415460 0.909379
vn 0.032271 -0.183584 0.982474
vn -0.000037 -0.220515 0.975384
vn -0.000044 -0.220450 0.975398
vn -0.000085 -0.220047 0.975489
vn -0.000106 -0.220029 0.975493
vn 0.010140 0.913736 0.406181
vn 0.035943 0.966490 0.254177
vn 0.035864 0.992659 -0.115511
vn 0.049539 0.988497 -0.142899
vn 0.030743 0.964472 -0.262392
vn 0.035971 0.980625 -0.192563
vn 0.012269 0.921620 -0.387899
vn 0.028994 0.960986 -0.275073
vn -0.558737 0.468987 0.684006
vn -0.531530 0.231927 0.814669
vn -0.590284 -0.210051 0.779387
vn -0.322422 -0.585451 0.743835
vn -0.406723 0.105562 0.907432
vn -0.393582 0.125128 0.910734
vn -0.367575 -0.427985 0.825662
vn -0.055124 0.920443 0.386971
vn -0.004050 0.797304 0.603565
vn 0.000387 0.802145 0.597129
vn 0.013708 0.858264 0.513025
vn 0.101488 0.907890 0.406738
vn 0.157694 0.710534 0.685765
vn 0.223184 0.398982 0.889383
vn 0.312446 0.374686 0.872919
vn 0.374174 -0.297264 0.878424
vn 0.602181 -0.151063 0.783938
vn 0.284032 -0.466283 0.837798
vn 0.588601 0.036013 0.807621
vn 0.741033 0.078223 0.666897
vn 0.383697 -0.271821 0.882548
vn 0.757971 0.363273 0.541768
vn -0.278565 0.467845 0.838762
vn -0.392905 0.076209 0.916416
vn -0.577331 0.510427 0.637302
vn -0.848693 0.517887 -0.107298
vn -0.818542 0.419992 -0.391914
vn 0.045118 -0.698000 0.714675
vn 0.098872 -0.737690 0.667861
vn 0.006036 -0.661680 0.749762
vn 0.005936 -0.586030 0.810268
vn 0.008860 -0.503177 0.864138
vn -0.050157 -0.925111 0.376368
vn -0.191871 0.310194 0.931110
vn -0.197446 0.445287 0.873347
vn -0.353238 0.038906 0.934724
vn -0.273377 -0.702242 0.657359
vn -0.360754 0.293152 0.885392
vn -0.389761 -0.281140 0.876953
s 1
g Longcliff_Collision
f 2/2/1 57/57/2 37/37/3
f 37/37/3 57/57/2 58/58/4
s 2
f 103/103/5 104/104/6 26/26/7
f 26/26/7 104/104/6 23/23/8
s 3
f 39/39/9 24/24/10 38/38/11
f 38/38/11 24/24/10 25/25/12
s 4
f 29/29/13 88/88/14 20/20/15
f 20/20/15 88/88/14 89/89/16
s 5
f 34/34/17 35/35/18 17/17/19
f 17/17/19 35/35/18 32/32/20
s 6
f 61/61/21 1/1/22 60/60/23
f 60/60/23 1/1/22 5/5/24
s 7
f 62/62/25 63/63/26 28/28/27
f 28/28/27 63/63/26 21/21/28
s 8
f 100/100/29 101/101/30 59/59/31
f 59/59/31 101/101/30 4/4/32
s 4
f 30/30/33 31/31/34 19/19/35
f 19/19/35 31/31/34 18/18/36
s 2
f 91/91/37 92/92/38 27/27/39
f 27/27/39 92/92/38 22/22/40
s 5
f 33/33/41 34/34/17 10/10/42
f 10/10/42 34/34/17 17/17/19
s 4
f 19/19/35 18/18/36 13/13/43
f 13/13/43 18/18/36 14/14/44
f 20/20/15 89/89/16 12/12/45
s 7
f 21/21/28 63/63/26 6/6/46
f 6/6/46 63/63/26 64/64/47
s 2
f 92/92/38 93/93/48 22/22/40
f 22/22/40 93/93/48 16/16/49
f 104/104/6 105/105/50 23/23/8
f 23/23/8 105/105/50 7/7/51
s 3
f 24/24/10 39/39/9 9/9/52
f 9/9/52 39/39/9 40/40/53
f 74/74/54 38/38/11 73/73/55
f 73/73/55 38/38/11 25/25/12
s 2
f 102/102/56 103/103/5 75/75/57
f 75/75/57 103/103/5 26/26/7
f 90/90/58 91/91/37 76/76/59
f 76/76/59 91/91/37 27/27/39
s 7
f 78/78/60 62/62/25 77/77/61
f 77/77/61 62/62/25 28/28/27
s 4
f 82/82/62 87/87/63 29/29/13
f 29/29/13 87/87/63 88/88/14
f 83/83/64 84/84/65 30/30/33
f 30/30/33 84/84/65 31/31/34
s 5
f 85/85/66 86/86/67 35/35/18
f 35/35/18 86/86/67 32/32/20
f 34/34/17 33/33/41 18/18/68
f 18/18/68 33/33/41 14/14/69
f 35/35/18 34/34/17 31/31/70
f 31/31/70 34/34/17 18/18/68
f 85/85/66 35/35/18 84/84/71
f 84/84/71 35/35/18 31/31/70
s 1
f 58/58/4 59/59/72 37/37/3
f 37/37/3 59/59/72 4/4/73
s 3
f 26/26/74 38/38/11 75/75/75
f 75/75/75 38/38/11 74/74/54
f 23/23/76 39/39/9 26/26/74
f 26/26/74 39/39/9 38/38/11
f 39/39/9 23/23/76 40/40/53
f 40/40/53 23/23/76 7/7/77
s 1
f 41/41/78 11/11/79 42/42/80
f 42/42/80 11/11/79 36/36/81
f 42/42/80 36/36/81 43/43/82
f 43/43/82 36/36/81 8/8/83
s 8
f 97/97/84 43/43/85 96/96/86
f 96/96/86 43/43/85 8/8/87
s 6
f 45/45/88 44/44/89 3/3/90
f 3/3/90 44/44/89 15/15/91
s 7
f 81/81/92 82/82/93 46/46/94
f 46/46/94 82/82/93 29/29/95
f 46/46/94 29/29/95 47/47/96
f 47/47/96 29/29/95 20/20/97
f 48/48/98 47/47/96 12/12/99
f 12/12/99 47/47/96 20/20/97
s 1
f 49/49/100 65/65/101 50/50/102
f 50/50/102 65/65/101 66/66/103
f 51/51/104 50/50/102 67/67/105
f 67/67/105 50/50/102 66/66/103
s 8
f 99/99/106 51/51/107 98/98/108
f 98/98/108 51/51/107 67/67/109
s 6
f 68/68/110 69/69/111 52/52/112
f 52/52/112 69/69/111 53/53/113
s 7
f 79/79/114 80/80/115 54/54/116
f 54/54/116 80/80/115 70/70/117
f 54/54/116 70/70/117 55/55/118
f 55/55/118 70/70/117 71/71/119
f 56/56/120 55/55/118 72/72/121
f 72/72/121 55/55/118 71/71/119
s 1
f 58/58/4 57/57/2 50/50/102
f 50/50/102 57/57/2 49/49/100
f 59/59/72 58/58/4 51/51/104
f 51/51/104 58/58/4 50/50/102
s 8
f 100/100/29 59/59/31 99/99/106
f 99/99/106 59/59/31 51/51/107
s 6
f 53/53/113 61/61/21 52/52/112
f 52/52/112 61/61/21 60/60/23
s 7
f 79/79/114 54/54/116 78/78/60
f 78/78/60 54/54/116 62/62/25
f 63/63/26 62/62/25 55/55/118
f 55/55/118 62/62/25 54/54/116
f 63/63/26 55/55/118 64/64/47
f 64/64/47 55/55/118 56/56/120
s 1
f 66/66/103 65/65/101 42/42/80
f 42/42/80 65/65/101 41/41/78
f 67/67/105 66/66/103 43/43/82
f 43/43/82 66/66/103 42/42/80
s 8
f 98/98/108 67/67/109 97/97/84
f 97/97/84 67/67/109 43/43/85
s 6
f 44/44/89 45/45/88 68/68/110
f 68/68/110 45/45/88 69/69/111
s 7
f 80/80/115 81/81/92 70/70/117
f 70/70/117 81/81/92 46/46/94
f 70/70/117 46/46/94 71/71/119
f 71/71/119 46/46/94 47/47/96
f 72/72/121 71/71/119 48/48/98
f 48/48/98 71/71/119 47/47/96
s 3
f 106/106/122 107/107/123 73/73/55
f 73/73/55 107/107/123 74/74/54
f 75/75/75 74/74/54 108/108/124
f 108/108/124 74/74/54 107/107/123
s 2
f 109/109/125 102/102/56 108/108/126
f 108/108/126 102/102/56 75/75/57
f 111/111/127 90/90/58 110/110/128
f 110/110/128 90/90/58 76/76/59
s 7
f 77/77/61 1/1/129 78/78/60
f 78/78/60 1/1/129 61/61/130
f 53/53/131 79/79/114 61/61/130
f 61/61/130 79/79/114 78/78/60
f 53/53/131 69/69/132 79/79/114
f 79/79/114 69/69/132 80/80/115
f 69/69/132 45/45/133 80/80/115
f 80/80/115 45/45/133 81/81/92
f 45/45/133 3/3/134 81/81/92
f 81/81/92 3/3/134 82/82/93
s 4
f 3/3/135 95/95/136 82/82/62
f 8/8/137 94/94/138 96/96/139
f 96/96/139 94/94/138 15/15/140
s 5
f 36/36/141 85/85/66 8/8/142
f 8/8/142 85/85/66 84/84/71
f 85/85/66 36/36/141 86/86/67
f 86/86/67 36/36/141 11/11/143
s 4
f 94/94/138 95/95/136 15/15/140
f 15/15/140 95/95/136 3/3/135
f 87/87/63 83/83/64 88/88/14
f 88/88/14 83/83/64 30/30/33
f 88/88/14 30/30/33 89/89/16
f 89/89/16 30/30/33 19/19/35
f 12/12/45 89/89/16 13/13/43
f 13/13/43 89/89/16 19/19/35
s 2
f 90/90/58 111/111/127 77/77/144
f 77/77/144 111/111/127 1/1/145
f 91/91/37 90/90/58 28/28/146
f 28/28/146 90/90/58 77/77/144
f 92/92/38 91/91/37 21/21/147
f 21/21/147 91/91/37 28/28/146
f 93/93/48 92/92/38 6/6/148
f 6/6/148 92/92/38 21/21/147
s 4
f 84/84/65 83/83/64 8/8/137
f 8/8/137 83/83/64 94/94/138
f 95/95/136 94/94/138 87/87/63
f 87/87/63 94/94/138 83/83/64
f 82/82/62 95/95/136 87/87/63
s 8
f 44/44/149 97/97/84 15/15/150
f 15/15/150 97/97/84 96/96/86
f 68/68/151 98/98/108 44/44/149
f 44/44/149 98/98/108 97/97/84
f 52/52/152 99/99/106 68/68/151
f 68/68/151 99/99/106 98/98/108
f 60/60/153 100/100/29 52/52/152
f 52/52/152 100/100/29 99/99/106
f 101/101/30 100/100/29 5/5/154
f 5/5/154 100/100/29 60/60/153
s 2
f 110/110/128 76/76/59 109/109/125
f 109/109/125 76/76/59 102/102/56
f 103/103/5 102/102/56 27/27/39
f 27/27/39 102/102/56 76/76/59
f 103/103/5 27/27/39 104/104/6
f 104/104/6 27/27/39 22/22/40
f 104/104/6 22/22/40 105/105/50
f 105/105/50 22/22/40 16/16/49
s 3
f 37/37/155 107/107/123 2/2/156
f 2/2/156 107/107/123 106/106/122
f 108/108/124 107/107/123 4/4/157
f 4/4/157 107/107/123 37/37/155
s 2
f 101/101/158 109/109/125 4/4/159
f 4/4/159 109/109/125 108/108/126
f 5/5/160 110/110/128 101/101/158
f 101/101/158 110/110/128 109/109/125
f 1/1/145 111/111/127 5/5/160
f 5/5/160 111/111/127 110/110/128
